<svg width="51" height="51" viewBox="0 0 51 51" fill="none" xmlns="http://www.w3.org/2000/svg">
<circle cx="25.5" cy="25.5" r="25.5" fill="white"/>
<g clip-path="url(#clip0_5108_19590)">
<path d="M40.524 18.636C40.292 18.816 36.196 21.124 36.196 26.256C36.196 32.192 41.408 34.292 41.564 34.344C41.54 34.472 40.736 37.22 38.816 40.02C37.104 42.484 35.316 44.944 32.596 44.944C29.876 44.944 29.176 43.364 26.036 43.364C22.976 43.364 21.888 44.996 19.4 44.996C16.912 44.996 15.176 42.716 13.18 39.916C10.868 36.628 9 31.52 9 26.672C9 18.896 14.056 14.772 19.032 14.772C21.676 14.772 23.88 16.508 25.54 16.508C27.12 16.508 29.584 14.668 32.592 14.668C33.732 14.668 37.828 14.772 40.524 18.636ZM31.164 11.376C32.408 9.9 33.288 7.852 33.288 5.804C33.288 5.52 33.264 5.232 33.212 5C31.188 5.076 28.78 6.348 27.328 8.032C26.188 9.328 25.124 11.376 25.124 13.452C25.124 13.764 25.176 14.076 25.2 14.176C25.328 14.2 25.536 14.228 25.744 14.228C27.56 14.228 29.844 13.012 31.164 11.376Z" fill="black"/>
</g>
<defs>
<clipPath id="clip0_5108_19590">
<rect width="32.56" height="40" fill="white" transform="translate(9 5)"/>
</clipPath>
</defs>
</svg>
