<svg width="13" height="14" viewBox="0 0 13 14" fill="none" xmlns="http://www.w3.org/2000/svg">
<path d="M12.339 6.6363L6.9782 11.9971C6.32145 12.6539 5.43072 13.0228 4.50195 13.0228C3.57317 13.0228 2.68244 12.6539 2.0257 11.9971C1.36895 11.3404 1 10.4497 1 9.52088C1 8.59211 1.36895 7.70137 2.0257 7.04463L7.38653 1.6838C7.82436 1.24597 8.41818 1 9.03736 1C9.65655 1 10.2504 1.24597 10.6882 1.6838C11.126 2.12163 11.372 2.71545 11.372 3.33463C11.372 3.95381 11.126 4.54764 10.6882 4.98546L5.32153 10.3463C5.10262 10.5652 4.8057 10.6882 4.49611 10.6882C4.18652 10.6882 3.88961 10.5652 3.6707 10.3463C3.45178 10.1274 3.3288 9.83047 3.3288 9.52088C3.3288 9.21129 3.45178 8.91438 3.6707 8.69546L8.6232 3.7488" stroke="#494949" stroke-linecap="round" stroke-linejoin="round"/>
</svg>
