<svg width="52" height="52" viewBox="0 0 52 52" fill="none" xmlns="http://www.w3.org/2000/svg">
<circle cx="26" cy="26" r="26" fill="white"/>
<path d="M22.6637 46C13.2218 44.3277 6 36.0551 6 26.1119C6 15.05 15 6 26.0008 6C37.0015 6 46 15.05 46 26.1119C46 36.0551 38.7782 44.3245 29.3332 46L28.2224 45.1099H23.7776L22.6637 46Z" fill="url(#paint0_linear_5108_19589)"/>
<path d="M33.9035 32.6528L34.7804 27.1362H29.5161V23.2741C29.5161 21.7293 30.0643 20.515 32.4769 20.515H35V15.4403C33.5734 15.2194 32.0392 15 30.611 15C26.1145 15 22.9326 17.7591 22.9326 22.7242V27.1377H18V32.6543H22.9326V46.669C25.1041 47.1103 27.3415 47.1103 29.513 46.669V32.6574L33.9035 32.6528Z" fill="white"/>
<defs>
<linearGradient id="paint0_linear_5108_19589" x1="26.0241" y1="44.4557" x2="26.0241" y2="5.6232" gradientUnits="userSpaceOnUse">
<stop stop-color="#0062E0"/>
<stop offset="1" stop-color="#19AFFF"/>
</linearGradient>
</defs>
</svg>
