<svg width="52" height="52" viewBox="0 0 52 52" fill="none" xmlns="http://www.w3.org/2000/svg">
<circle cx="26" cy="26" r="26" fill="white"/>
<path d="M45.5758 26.45C45.5758 25.1333 45.4591 23.8833 45.2591 22.6666H26.4258V30.1833H37.2091C36.7258 32.65 35.3091 34.7333 33.2091 36.15V41.15H39.6424C43.4091 37.6666 45.5758 32.5333 45.5758 26.45Z" fill="#4285F4"/>
<path d="M26.4242 46C31.8242 46 36.3409 44.2 39.6409 41.15L33.2076 36.15C31.4076 37.35 29.1242 38.0833 26.4242 38.0833C21.2076 38.0833 16.7909 34.5666 15.2076 29.8167H8.57422V34.9667C11.8576 41.5 18.6076 46 26.4242 46Z" fill="#34A853"/>
<path d="M15.2091 29.8167C14.7924 28.6167 14.5758 27.3333 14.5758 26C14.5758 24.6667 14.8091 23.3833 15.2091 22.1833V17.0333H8.57578C7.20911 19.7333 6.42578 22.7667 6.42578 26C6.42578 29.2333 7.20911 32.2667 8.57578 34.9667L15.2091 29.8167Z" fill="#FBBC05"/>
<path d="M26.4242 13.9167C29.3742 13.9167 32.0076 14.9333 34.0909 16.9167L39.7909 11.2167C36.3409 7.98334 31.8242 6 26.4242 6C18.6076 6 11.8576 10.5 8.57422 17.0333L15.2076 22.1833C16.7909 17.4333 21.2076 13.9167 26.4242 13.9167Z" fill="#EA4335"/>
</svg>
