<svg xmlns="http://www.w3.org/2000/svg" width="16" height="22" viewBox="0 0 16 22">
    <g fill="none" fill-rule="nonzero">
        <path fill="#072448" d="M8 3.48a3.82 3.82 0 1 0 0 7.64 3.82 3.82 0 0 0 0-7.64zm0 6.307A2.487 2.487 0 1 1 10.487 7.3 2.487 2.487 0 0 1 8 9.78v.007z"/>
        <path fill="#072448" d="M8 .333a7.86 7.86 0 0 0-7.853 7.82c0 3.114 1.746 5.72 3.026 7.62l.234.347A66.407 66.407 0 0 0 7.5 21.453l.507.594.506-.594a66.547 66.547 0 0 0 4.094-5.333l.233-.353c1.273-1.9 3.02-4.5 3.02-7.614A7.86 7.86 0 0 0 8 .333zM11.727 15l-.24.353A54.202 54.202 0 0 1 8 19.953c-.787-.953-2.34-2.88-3.487-4.6L4.28 15c-1.18-1.76-2.8-4.167-2.8-6.873a6.52 6.52 0 1 1 13.04 0c0 2.733-1.613 5.14-2.793 6.873z"/>
        <path fill="none" d="M-4-1h24v24H-4z"/>
    </g>
</svg>
