<svg width="21" height="26" viewBox="0 0 21 26" fill="none" xmlns="http://www.w3.org/2000/svg">
<path d="M20.0222 10.5852C20.0222 18.8182 10.0111 25.875 10.0111 25.875C10.0111 25.875 0 18.8182 0 10.5852C3.95643e-08 7.77785 1.05474 5.08546 2.93219 3.10034C4.80963 1.11523 7.356 0 10.0111 0C12.6662 0 15.2126 1.11523 17.09 3.10034C18.9675 5.08546 20.0222 7.77785 20.0222 10.5852Z" fill="#B5B268"/>
<path d="M9.7303 12.9712C11.2382 12.9712 12.4606 11.6345 12.4606 9.98558C12.4606 8.33669 11.2382 7 9.7303 7C8.2224 7 7 8.33669 7 9.98558C7 11.6345 8.2224 12.9712 9.7303 12.9712Z" fill="#EDEBE8"/>
</svg>
