<svg width="117" height="107" viewBox="0 0 117 107" fill="none" xmlns="http://www.w3.org/2000/svg">
<g clip-path="url(#clip0)">
<path d="M20.8147 66.0153C19.3756 66.0153 18.0064 65.3953 17.0571 64.3139L3.63642 49.0256C1.68796 46.806 2.07781 43.3901 4.47631 41.6666L52.5859 7.09657C54.3293 5.8438 56.6778 5.8438 58.4213 7.09657L106.495 41.6411C108.906 43.3737 109.285 46.8136 107.309 49.0296L93.6508 64.3434C92.7021 65.407 91.3446 66.0153 89.9193 66.0153H20.8147Z" fill="#B5B268"/>
<path d="M104.336 43.562H6C3.23858 43.562 1 45.8006 1 48.562V86.0349C1 88.7963 3.23857 91.0349 5.99999 91.0349H104.336C107.097 91.0349 109.336 88.7963 109.336 86.0349V48.562C109.336 45.8006 107.097 43.562 104.336 43.562Z" fill="#C7C58E"/>
<path d="M111.007 102C111.007 104.761 108.769 107 106.007 107H5C2.23858 107 0 104.761 0 102V48.7592C0 44.8629 4.25898 42.4638 7.59119 44.483L52.9124 71.9457C54.505 72.9108 56.5021 72.9108 58.0947 71.9457L103.416 44.483C106.748 42.4638 111.007 44.8629 111.007 48.7592V102Z" fill="#7D7800"/>
<path d="M96.8472 17.3846L85.0743 8.33228L53.8885 49.1161L36.568 35.7981L27.5406 47.6037L50.746 65.42L56.6968 69.8921L96.8472 17.3846Z" fill="#413E38"/>
<path d="M0.467358 24.8351L0.026001 25.0512L0.0767556 24.9607L0.0380218 24.9732L0.0923381 24.9329L6.03256 14.3323L9.06907 16.9286L11.674 19.347L10.9261 19.7132L11.7669 21.2005L0.467358 24.8351Z" fill="url(#paint0_linear)"/>
<path d="M8.76954 17.2058L11.1505 19.4196L0.358521 24.7998L6.10166 17.4185L8.76954 17.2058Z" fill="#B5B268"/>
<path opacity="0.2" d="M8.76954 17.2058L11.1505 19.4196L0.358521 24.7998L6.10166 17.4185L8.76954 17.2058Z" fill="black"/>
<path d="M5.99228 14.8313L0.358521 24.8L8.76954 17.206L5.99228 14.8313Z" fill="#C7C58E"/>
<path d="M11.2199 21.1335L0.369995 24.7275L9.43978 17.9382L11.2199 21.1335Z" fill="#C7C58E"/>
<path d="M101.949 5.76364L99.5718 9.89616L117 12.742L105.775 4.90332L101.949 5.76364Z" fill="#B5B268"/>
<path opacity="0.2" d="M101.949 5.76364L99.5718 9.89616L117 12.742L105.775 4.90332L101.949 5.76364Z" fill="black"/>
<path d="M104.811 1.23413L117 12.7421L101.948 5.7637L104.811 1.23413Z" fill="#C7C58E"/>
<path d="M100.215 12.3252L116.953 12.6459L101.327 7.08008L100.215 12.3252Z" fill="#C7C58E"/>
</g>
<defs>
<linearGradient id="paint0_linear" x1="8.83216" y1="24.6533" x2="2.11445" y2="18.9414" gradientUnits="userSpaceOnUse">
<stop stop-color="#808080" stop-opacity="0.25"/>
<stop offset="0.53514" stop-color="#808080" stop-opacity="0.12"/>
<stop offset="1" stop-color="#808080" stop-opacity="0.1"/>
</linearGradient>
<clipPath id="clip0">
<rect width="117" height="107" fill="white"/>
</clipPath>
</defs>
</svg>
