<svg width="67" height="67" viewBox="0 0 67 67" fill="none" xmlns="http://www.w3.org/2000/svg">
<path d="M61.4167 47.2349V55.6099C61.4199 56.3874 61.2606 57.157 60.9492 57.8694C60.6377 58.5817 60.1809 59.2212 59.608 59.7468C59.0351 60.2724 58.3587 60.6726 57.6222 60.9217C56.8857 61.1708 56.1052 61.2633 55.3309 61.1933C46.7405 60.2599 38.4888 57.3244 31.2388 52.6229C24.4937 48.3367 18.775 42.618 14.4888 35.8729C9.77085 28.59 6.83476 20.2981 5.91841 11.6691C5.84865 10.8971 5.9404 10.1191 6.18781 9.38448C6.43522 8.64989 6.83288 7.97487 7.35547 7.40239C7.87805 6.82991 8.51412 6.37251 9.22316 6.05932C9.93221 5.74613 10.6987 5.58401 11.4738 5.58328H19.8488C21.2036 5.56994 22.5171 6.04971 23.5443 6.93314C24.5716 7.81657 25.2425 9.0434 25.4322 10.3849C25.7857 13.0651 26.4412 15.6967 27.3863 18.2295C27.7619 19.2287 27.8432 20.3147 27.6206 21.3587C27.3979 22.4026 26.8807 23.3609 26.1301 24.1199L22.5847 27.6654C26.5588 34.6544 32.3456 40.4413 39.3347 44.4154L42.8801 40.8699C43.6391 40.1194 44.5974 39.6021 45.6414 39.3795C46.6854 39.1568 47.7713 39.2381 48.7705 39.6137C51.3033 40.5588 53.9349 41.2144 56.6151 41.5679C57.9712 41.7592 59.2097 42.4422 60.095 43.4871C60.9803 44.532 61.4507 45.8658 61.4167 47.2349Z" stroke="#B5B268" stroke-width="5" stroke-linecap="round" stroke-linejoin="round"/>
</svg>
