<svg width="118" height="82" viewBox="0 0 118 82" fill="none" xmlns="http://www.w3.org/2000/svg">
<g clip-path="url(#clip0)">
<path d="M4.61459 48.4803C4.60554 48.7777 4.47918 49.0596 4.26291 49.2648C4.04664 49.4701 3.75791 49.582 3.45936 49.5764H1.13505C0.994262 49.5748 0.855264 49.5448 0.726409 49.4882C0.597553 49.4317 0.481501 49.3497 0.385225 49.2473C0.288948 49.1449 0.214436 49.0242 0.166166 48.8924C0.117895 48.7606 0.0968626 48.6204 0.104332 48.4803L0.0351562 23.2336C0.0387443 22.944 0.155778 22.6672 0.361275 22.4624C0.566773 22.2576 0.844455 22.141 1.13505 22.1374H3.45936C3.7574 22.1336 4.04512 22.2461 4.26099 22.451C4.47687 22.6558 4.60378 22.9367 4.61459 23.2336V48.4803Z" fill="white"/>
<path d="M20.1033 26.5635V48.2596C20.1033 48.9491 20.1033 49.5902 19.0034 49.5902H16.603C15.5377 49.5902 15.5031 48.9422 15.5031 48.2596V26.5635H8.84836C7.6447 26.5635 7.46484 26.3222 7.46484 25.226V23.4749C7.46484 22.7854 7.46484 22.1374 8.56474 22.1374H26.9171C27.9824 22.1374 28.0515 22.7854 28.0515 23.4749V25.226C28.0515 26.3222 27.9132 26.5635 26.7095 26.5635H20.1033Z" fill="white"/>
<path d="M31.6683 31.7755C31.3734 31.7666 31.0937 31.6435 30.8883 31.4324C30.683 31.2214 30.5682 30.9389 30.5684 30.6449V23.0612C30.5702 22.7711 30.6866 22.4933 30.8925 22.2881C31.0984 22.0829 31.3771 21.9669 31.6683 21.965H33.7435C34.0353 21.9668 34.3148 22.0827 34.5218 22.2877C34.7287 22.4927 34.8467 22.7704 34.8503 23.0612V30.6449C34.8487 30.9395 34.7324 31.222 34.526 31.4329C34.3195 31.6438 34.039 31.7666 33.7435 31.7755H31.6683Z" fill="white"/>
<path d="M55.4176 47.9356C53.8681 49.3144 51.6683 49.8867 49.1918 49.8867H46.57C45.1485 49.8946 43.7482 49.5434 42.4998 48.8659C41.2513 48.1883 40.1956 47.2065 39.4311 46.0121C38.9622 45.3426 38.635 44.5849 38.4695 43.7853C38.277 42.8792 38.1957 41.9532 38.2274 41.0276V41.0965C38.2274 40.4071 38.262 39.7521 39.3342 39.7521H41.6724C41.9171 39.7356 42.159 39.8116 42.3501 39.9649C42.5411 40.1182 42.6671 40.3377 42.7031 40.5795C42.8113 40.9342 42.8465 41.307 42.8069 41.6756C42.8069 41.848 42.8068 42.1582 42.876 42.5995C43.0761 43.426 43.5491 44.1614 44.219 44.6878C44.8889 45.2142 45.7169 45.5009 46.57 45.5019H49.1918C51.267 45.5019 53.0449 44.3713 53.3423 42.5581C53.3825 42.3303 53.4056 42.0999 53.4115 41.8687C53.4115 41.4206 53.4807 40.3933 52.8927 39.8762C51.9311 39.0558 49.8282 38.7111 47.3586 38.132C42.9521 37.1323 38.1997 35.7949 38.1997 31.1964V30.7207C38.1569 29.9244 38.2267 29.126 38.4073 28.3491H38.3727C38.7727 26.4817 39.8049 24.8082 41.2962 23.6094C42.7875 22.4106 44.6472 21.7594 46.5631 21.7651H49.1849C51.2158 21.7827 53.181 22.4849 54.7604 23.7575C56.31 24.9916 57.2715 27.3563 57.1677 29.9623C57.1331 30.6518 57.1332 31.2998 56.0678 31.2998H53.7989C53.5094 31.2928 53.2337 31.1751 53.0289 30.971C52.8241 30.7669 52.706 30.4922 52.699 30.2036C52.5952 27.2874 51.3916 26.1912 49.1918 26.1912H46.57C45.6956 26.202 44.8504 26.5057 44.1702 27.0534C43.4901 27.6012 43.0148 28.3611 42.8207 29.2109V29.1764C42.6751 29.6098 42.6497 30.0743 42.7471 30.5208C42.8445 30.9674 43.0611 31.3795 43.3741 31.7135C43.7797 32.1355 44.2906 32.4424 44.8544 32.6028L48.8113 33.7059C50.8866 34.285 52.3531 34.6642 53.2178 34.9744C54.0673 35.2576 54.8765 35.6493 55.6251 36.1396C56.4117 36.6947 57.0448 37.4389 57.4657 38.3031C57.8865 39.1673 58.0815 40.1234 58.0324 41.0827C58.0324 43.6819 56.9671 46.5637 55.4176 47.9356Z" fill="white"/>
<path d="M13.3924 54.5541C14.928 54.5962 16.3885 55.2252 17.4714 56.311C18.5544 57.3967 19.1769 58.856 19.2101 60.3866C19.2101 62.9995 17.8266 64.5231 15.8343 65.8399C16.5261 67.7634 17.2178 69.549 17.9096 71.4656C19.0164 74.4853 20.1509 77.5394 21.3684 80.5936C21.7489 81.5174 21.23 81.9724 20.3031 81.9724H17.6952C17.4447 81.9837 17.1981 81.907 16.9985 81.7559C16.7988 81.6047 16.6585 81.3886 16.6022 81.1451L11.6492 68.0461C9.26955 69.2801 7.17353 70.4453 4.73162 71.7138V80.6625C4.73162 81.3519 4.73162 82 3.62481 82H1.13448C0.992172 81.9982 0.851624 81.9684 0.720929 81.9122C0.590233 81.8561 0.471973 81.7747 0.372957 81.6728C0.273941 81.5709 0.196125 81.4505 0.143989 81.3186C0.0918532 81.1866 0.0664275 81.0456 0.0691758 80.9038L0 55.6571C0.00895372 55.3626 0.132206 55.0831 0.34381 54.8774C0.555413 54.6716 0.838861 54.5557 1.13448 54.5541H13.3924ZM4.6832 59.118V66.5983C7.40181 65.2608 13.5308 62.2411 14.2502 61.0829C14.3844 60.8777 14.4564 60.6384 14.4577 60.3935C14.4523 60.0509 14.3109 59.7245 14.0646 59.4855C13.8184 59.2465 13.4871 59.1144 13.1434 59.118H4.6832Z" fill="white"/>
<path d="M25.2277 82C25.0811 82.008 24.9345 81.9851 24.7975 81.9328C24.6604 81.8806 24.5359 81.8001 24.4322 81.6967C24.3284 81.5932 24.2477 81.4692 24.1952 81.3326C24.1428 81.196 24.1198 81.0499 24.1278 80.9038L24.0586 55.6572C24.0584 55.5069 24.0889 55.3582 24.1484 55.2202C24.2079 55.0822 24.295 54.9577 24.4045 54.8544C24.5139 54.7511 24.6434 54.6712 24.785 54.6195C24.9265 54.5679 25.0772 54.5456 25.2277 54.5541H41.8299C42.9643 54.5541 42.9643 55.2435 42.9643 55.9329V57.8151C42.9643 59.0491 42.7914 59.1525 41.5808 59.1525H28.7072V65.2264H40.1696C40.3179 65.2233 40.4651 65.2508 40.6023 65.307C40.7394 65.3632 40.8634 65.4469 40.9666 65.553C41.0698 65.6591 41.15 65.7852 41.2021 65.9236C41.2542 66.0619 41.2772 66.2094 41.2695 66.357V68.6873C41.2781 68.8354 41.2559 68.9837 41.2043 69.1228C41.1526 69.262 41.0726 69.389 40.9693 69.4958C40.866 69.6027 40.7416 69.6871 40.604 69.7437C40.4664 69.8003 40.3185 69.8279 40.1696 69.8248H28.7072V77.4705H42.0651C43.2687 77.4705 43.4486 77.5739 43.4486 78.808V80.6625C43.4486 81.352 43.4486 82.0414 42.3072 82.0414L25.2277 82Z" fill="white"/>
<path d="M67.0513 82H64.5748C63.883 82 63.7101 81.6277 63.468 81.1107L60.3412 72.0861L51.881 75.8366L49.9856 81.1175C49.7435 81.6622 49.6743 82.0069 48.8511 82.0069H46.4646C46.1696 82.007 45.8861 81.8927 45.6743 81.688C45.4626 81.4834 45.3391 81.2046 45.3301 80.9107C45.3301 80.7728 53.2161 57.6151 54.1085 55.4572C54.3506 54.9401 54.5235 54.561 55.2084 54.561H58.2383C58.93 54.561 59.0684 55.0091 59.3036 55.4572L68.1166 80.4971C68.1299 80.6346 68.1299 80.7732 68.1166 80.9107C68.135 81.0557 68.1204 81.203 68.0738 81.3417C68.0272 81.4803 67.9498 81.6066 67.8474 81.7113C67.745 81.816 67.6203 81.8963 67.4824 81.9463C67.3446 81.9963 67.1972 82.0146 67.0513 82ZM58.6879 67.5221C58.2729 66.4259 57.9962 65.7434 57.8924 65.3642C57.7886 64.985 57.6572 64.6748 57.5534 64.3025C57.3113 63.6131 57.1038 62.9237 56.7233 61.8275L53.9563 69.6318L58.6879 67.5221Z" fill="white"/>
<path d="M81.5106 54.5541C84.4065 54.5595 87.1827 55.7066 89.2331 57.7448C91.2834 59.7831 92.4414 62.547 92.4542 65.4332V71.1278C92.4414 74.0133 91.2832 76.7765 89.2327 78.8137C87.1821 80.8509 84.4059 81.9964 81.5106 82H71.7706C71.6241 82.008 71.4775 81.9851 71.3404 81.9328C71.2034 81.8805 71.0789 81.8001 70.9751 81.6966C70.8714 81.5932 70.7906 81.4692 70.7382 81.3326C70.6857 81.196 70.6627 81.0499 70.6707 80.9038L70.6016 55.6571C70.6175 55.359 70.7477 55.0784 70.9652 54.8731C71.1828 54.6678 71.4711 54.5536 71.7706 54.5541H81.5106ZM75.2087 59.118V77.436H81.5106C83.1893 77.4236 84.7963 76.7563 85.9872 75.5771C87.1781 74.3979 87.8582 72.8007 87.8817 71.1278V65.4332C87.86 63.7591 87.1807 62.1601 85.9896 60.9795C84.7985 59.7988 83.1905 59.1305 81.5106 59.118H75.2087Z" fill="white"/>
<path d="M112.756 55.0022C112.863 54.8586 113.003 54.7429 113.164 54.6649C113.326 54.5869 113.504 54.5489 113.683 54.5541H116.782C116.932 54.535 117.084 54.5503 117.227 54.599C117.37 54.6477 117.5 54.7283 117.607 54.8349C117.714 54.9414 117.795 55.0709 117.844 55.2134C117.893 55.3559 117.908 55.5078 117.889 55.6572C117.851 56.0008 117.706 56.3238 117.474 56.581C117.474 56.6155 117.439 56.6155 117.439 56.6499L108.592 69.2388V80.6625C108.592 81.352 108.592 82 107.457 82H105.112C104.047 82 104.012 81.352 104.012 80.6625V69.2043L94.8672 56.2707C94.7524 56.0751 94.7039 55.8479 94.7288 55.6227C94.7052 55.4776 94.7164 55.3291 94.7615 55.1892C94.8066 55.0493 94.8843 54.922 94.9882 54.8178C95.0921 54.7135 95.2193 54.6353 95.3594 54.5895C95.4995 54.5436 95.6484 54.5315 95.7941 54.5541H98.8586C99.0555 54.546 99.2511 54.5895 99.4259 54.6802C99.6007 54.7709 99.7485 54.9057 99.8548 55.0711L106.295 64.5714C109.871 59.056 112.009 55.8985 112.798 54.9195L112.756 55.0022Z" fill="white"/>
<path d="M86.7197 11.5203C86.8724 11.6711 87.0566 11.7865 87.2592 11.8581C87.4596 11.9352 87.6744 11.9681 87.8887 11.9546H89.5836V15.4017C90.1162 15.4017 90.6489 15.3535 91.1815 15.3535C91.7142 15.3535 92.1569 15.3535 92.648 15.4017V11.9546H94.329C94.5422 11.9647 94.7552 11.9314 94.955 11.8567C95.1548 11.7821 95.3372 11.6676 95.4912 11.5203C95.649 11.3733 95.7739 11.1947 95.8578 10.9963C95.9402 10.7998 95.9825 10.5889 95.9823 10.3758C95.9831 10.1628 95.9407 9.95175 95.8578 9.75536C95.7739 9.55695 95.649 9.37841 95.4912 9.2314C95.3372 9.0841 95.1548 8.96962 94.955 8.89494C94.7552 8.82027 94.5422 8.78696 94.329 8.79707H87.8887C87.6744 8.78356 87.4596 8.81649 87.2592 8.89359C87.0566 8.96521 86.8724 9.08057 86.7197 9.2314C86.5618 9.37841 86.4369 9.55695 86.353 9.75536C86.2701 9.95175 86.2278 10.1628 86.2285 10.3758C86.2283 10.5889 86.2707 10.7998 86.353 10.9963C86.4369 11.1947 86.5618 11.3733 86.7197 11.5203Z" fill="#ABA765"/>
<path d="M101.031 5.99801C101.382 5.9978 101.718 5.85893 101.965 5.61193L105.348 2.24065C105.595 1.99472 105.733 1.66117 105.733 1.31338C105.733 0.965583 105.595 0.632032 105.348 0.386104C105.101 0.140175 104.766 0.00201417 104.418 0.00201416C104.069 0.00201415 103.734 0.140175 103.487 0.386104L100.104 3.75738C99.9225 3.94146 99.799 4.1748 99.7492 4.42833C99.6994 4.68186 99.7256 4.94439 99.8244 5.18323C99.9232 5.42206 100.09 5.62666 100.305 5.77154C100.52 5.91642 100.772 5.99517 101.031 5.99801Z" fill="#ABA765"/>
<path d="M102.594 13.9333C102.596 14.2813 102.736 14.6145 102.983 14.8599C103.231 15.1054 103.566 15.2432 103.915 15.2432H108.695C109.044 15.2432 109.378 15.1052 109.624 14.8595C109.871 14.6138 110.009 14.2807 110.009 13.9333C110.009 13.5858 109.871 13.2527 109.624 13.007C109.378 12.7614 109.044 12.6234 108.695 12.6234H103.915C103.566 12.6233 103.231 12.7611 102.983 13.0066C102.736 13.2521 102.596 13.5852 102.594 13.9333Z" fill="#ABA765"/>
<path d="M73.6023 15.2501H78.3824C78.5635 15.2631 78.7453 15.2389 78.9166 15.1788C79.0878 15.1187 79.2448 15.0241 79.3778 14.9009C79.5107 14.7777 79.6168 14.6284 79.6893 14.4625C79.7618 14.2967 79.7992 14.1176 79.7992 13.9367C79.7992 13.7558 79.7618 13.5768 79.6893 13.4109C79.6168 13.245 79.5107 13.0957 79.3778 12.9725C79.2448 12.8493 79.0878 12.7547 78.9166 12.6946C78.7453 12.6345 78.5635 12.6103 78.3824 12.6234H73.6023C73.4213 12.6103 73.2394 12.6345 73.0682 12.6946C72.8969 12.7547 72.7399 12.8493 72.6069 12.9725C72.474 13.0957 72.368 13.245 72.2955 13.4109C72.223 13.5768 72.1855 13.7558 72.1855 13.9367C72.1855 14.1176 72.223 14.2967 72.2955 14.4625C72.368 14.6284 72.474 14.7777 72.6069 14.9009C72.7399 15.0241 72.8969 15.1187 73.0682 15.1788C73.2394 15.2389 73.4213 15.2631 73.6023 15.2501Z" fill="#ABA765"/>
<path d="M80.2436 5.61193C80.4912 5.85893 80.8271 5.9978 81.1775 5.99801C81.4367 5.99517 81.6893 5.91642 81.9039 5.77154C82.1185 5.62666 82.2857 5.42206 82.3845 5.18323C82.4833 4.94439 82.5094 4.68186 82.4596 4.42833C82.4098 4.1748 82.2863 3.94146 82.1044 3.75738L78.7286 0.386104C78.6065 0.264332 78.4614 0.167738 78.3018 0.101836C78.1421 0.0359336 77.971 0.00201416 77.7982 0.00201416C77.6254 0.00201416 77.4543 0.0359336 77.2947 0.101836C77.135 0.167738 76.99 0.264332 76.8678 0.386104C76.7456 0.507875 76.6487 0.652439 76.5826 0.811541C76.5165 0.970643 76.4824 1.14117 76.4824 1.31338C76.4824 1.48559 76.5165 1.65611 76.5826 1.81522C76.6487 1.97432 76.7456 2.11888 76.8678 2.24065L80.2436 5.61193Z" fill="#ABA765"/>
<path d="M116.693 44.8608H93.3251V41.8273H116.354C116.305 41.0345 116.222 40.2416 116.098 39.4557C115.973 38.6698 115.814 37.8907 115.62 37.1254C115.427 36.3602 115.192 35.5949 114.929 34.8435C114.666 34.092 114.355 33.3612 114.022 32.6373C113.69 31.9134 113.331 31.2171 112.909 30.5346C112.487 29.852 112.065 29.1557 111.601 28.5352C111.138 27.9148 110.64 27.2736 110.114 26.6738C109.588 26.074 109.035 25.5018 108.454 24.9571C107.873 24.4125 107.271 23.8954 106.641 23.4059C106.012 22.9164 105.362 22.4614 104.691 22.0271C104.02 21.5927 103.307 21.1998 102.615 20.8413C101.924 20.4828 101.177 20.1518 100.436 19.8554C99.6962 19.5589 98.9491 19.3039 98.1812 19.0763C97.4134 18.8488 96.6455 18.6696 95.8638 18.5179C95.0821 18.3662 94.2935 18.249 93.498 18.1732C92.7025 18.0974 91.907 18.056 91.1115 18.056C90.3159 18.056 89.5135 18.0905 88.718 18.1663C87.9218 18.2355 87.1299 18.346 86.3452 18.4972C85.5636 18.642 84.7888 18.8282 84.0209 19.0488C83.252 19.2678 82.4947 19.5255 81.752 19.8209C81.0118 20.1105 80.2785 20.4414 79.566 20.7999C78.8546 21.1601 78.162 21.5558 77.4907 21.9857C76.799 22.4132 76.1626 22.8682 75.5262 23.3646C74.8897 23.8609 74.2879 24.3711 73.7068 24.9158C73.1258 25.4604 72.5724 26.0326 72.0397 26.6324C71.507 27.2322 71.0159 27.8527 70.5455 28.5008C69.61 29.8021 68.7972 31.1868 68.1174 32.6373C67.7785 33.3267 67.4741 34.092 67.2043 34.8435C66.9345 35.5949 66.7062 36.3533 66.5126 37.1323C66.3189 37.9114 66.1528 38.6835 66.0283 39.4695C65.9038 40.2554 65.8208 41.0483 65.7793 41.848H88.3029V44.8815H65.5164C65.3441 44.8815 65.1736 44.9154 65.0145 44.9813C64.8554 45.0472 64.711 45.1438 64.5895 45.2655C64.468 45.3873 64.3718 45.5317 64.3065 45.6906C64.2412 45.8495 64.2081 46.0197 64.209 46.1914V48.2596C64.209 48.6052 64.3467 48.9366 64.5919 49.181C64.8371 49.4254 65.1697 49.5626 65.5164 49.5626H116.706C117.055 49.5608 117.388 49.4222 117.634 49.177C117.88 48.9317 118.019 48.5996 118.021 48.2527V46.1914C118.025 46.0162 117.993 45.8421 117.927 45.6794C117.862 45.5167 117.765 45.3689 117.641 45.2446C117.517 45.1204 117.369 45.0224 117.206 44.9565C117.043 44.8905 116.868 44.858 116.693 44.8608ZM81.9941 25.1708C77.9662 27.0238 74.7959 30.3338 73.1258 34.4298C73.041 34.6734 72.8822 34.8846 72.6714 35.0341C72.4607 35.1836 72.2084 35.2639 71.9498 35.264C71.8107 35.2653 71.6725 35.2419 71.5416 35.1951C71.2302 35.0884 70.9738 34.8632 70.8286 34.5686C70.6834 34.274 70.6612 33.934 70.7669 33.6232C72.6584 28.8221 76.3678 24.9544 81.0948 22.8544C81.2617 22.7832 81.4422 22.7492 81.6237 22.7548C81.8052 22.7605 81.9832 22.8056 82.1453 22.8871C82.3075 22.9685 82.4498 23.0843 82.5622 23.2263C82.6747 23.3684 82.7547 23.5332 82.7965 23.7093C82.8551 24.0079 82.8069 24.3176 82.6603 24.5846C82.5137 24.8515 82.278 25.059 81.9941 25.1708Z" fill="#ABA765"/>
</g>
<defs>
<clipPath id="clip0">
<rect width="118" height="82" fill="white"/>
</clipPath>
</defs>
</svg>
