<svg width="28" height="26" viewBox="0 0 28 26" fill="none" xmlns="http://www.w3.org/2000/svg">
<path d="M12.2518 6.23774C12.3301 6.30622 12.4245 6.3586 12.5284 6.39112C12.6311 6.42612 12.7412 6.44107 12.8511 6.43494H13.7199V8C13.9929 8 14.266 7.97809 14.539 7.97809C14.8121 7.97809 15.039 7.97809 15.2908 8V6.43494H16.1525C16.2617 6.43953 16.3709 6.4244 16.4734 6.3905C16.5758 6.35659 16.6693 6.30462 16.7482 6.23774C16.8291 6.17099 16.8932 6.08993 16.9362 5.99985C16.9784 5.91061 17.0001 5.81485 17 5.71814C17.0004 5.6214 16.9787 5.52559 16.9362 5.43643C16.8932 5.34635 16.8291 5.26528 16.7482 5.19854C16.6693 5.13166 16.5758 5.07968 16.4734 5.04578C16.3709 5.01187 16.2617 4.99675 16.1525 5.00134H12.8511C12.7412 4.99521 12.6311 5.01016 12.5284 5.04516C12.4245 5.07768 12.3301 5.13006 12.2518 5.19854C12.1709 5.26528 12.1068 5.34635 12.0638 5.43643C12.0213 5.52559 11.9996 5.6214 12 5.71814C11.9999 5.81485 12.0216 5.91061 12.0638 5.99985C12.1068 6.08993 12.1709 6.17099 12.2518 6.23774Z" fill="#ABA765"/>
<path d="M19.6524 3C19.8273 2.99989 19.9951 2.93041 20.1187 2.80683L21.8076 1.12007C21.9308 0.99702 22 0.830134 22 0.65612C22 0.482106 21.9308 0.315219 21.8076 0.192173C21.6844 0.0691267 21.5173 3.66707e-09 21.3431 0C21.1688 -3.66707e-09 21.0017 0.0691267 20.8785 0.192173L19.1896 1.87894C19.0988 1.97104 19.0371 2.08778 19.0123 2.21463C18.9874 2.34149 19.0005 2.47284 19.0498 2.59234C19.0991 2.71184 19.1826 2.8142 19.2897 2.88669C19.3969 2.95918 19.523 2.99858 19.6524 3Z" fill="#ABA765"/>
<path d="M20 7.5C20.001 7.63285 20.0765 7.76002 20.2101 7.85371C20.3436 7.94741 20.5243 8 20.7127 8H23.291C23.4791 8 23.6594 7.94732 23.7923 7.85355C23.9253 7.75979 24 7.63261 24 7.5C24 7.36739 23.9253 7.24021 23.7923 7.14645C23.6594 7.05268 23.4791 7 23.291 7H20.7127C20.5243 7 20.3436 7.05259 20.2101 7.14629C20.0765 7.23998 20.001 7.36715 20 7.5Z" fill="#ABA765"/>
<path d="M4.74435 7.99869H7.25565C7.35079 8.00366 7.44633 7.99445 7.5363 7.97164C7.62628 7.94883 7.70876 7.91291 7.77861 7.86611C7.84845 7.81932 7.90416 7.76266 7.94225 7.69967C7.98034 7.63668 8 7.56871 8 7.5C8 7.43129 7.98034 7.36332 7.94225 7.30033C7.90416 7.23734 7.84845 7.18068 7.77861 7.13389C7.70876 7.08709 7.62628 7.05117 7.5363 7.02836C7.44633 7.00555 7.35079 6.99634 7.25565 7.00131H4.74435C4.64921 6.99634 4.55367 7.00555 4.4637 7.02836C4.37372 7.05117 4.29124 7.08709 4.22139 7.13389C4.15155 7.18068 4.09584 7.23734 4.05775 7.30033C4.01966 7.36332 4 7.43129 4 7.5C4 7.56871 4.01966 7.63668 4.05775 7.69967C4.09584 7.76266 4.15155 7.81932 4.22139 7.86611C4.29124 7.91291 4.37372 7.94883 4.4637 7.97164C4.55367 7.99445 4.64921 8.00366 4.74435 7.99869Z" fill="#ABA765"/>
<path d="M8.50669 2.80683C8.67172 2.93041 8.8956 2.99989 9.12909 3C9.30183 2.99858 9.47021 2.95918 9.61325 2.88669C9.75629 2.8142 9.86766 2.71184 9.93352 2.59234C9.99937 2.47284 10.0168 2.34149 9.9836 2.21463C9.95041 2.08778 9.86808 1.97104 9.74687 1.87894L7.49703 0.192173C7.4156 0.131247 7.31892 0.0829173 7.21253 0.0499442C7.10613 0.016971 6.9921 1.69848e-09 6.87694 0C6.76178 -1.69848e-09 6.64774 0.016971 6.54135 0.0499442C6.43495 0.0829173 6.33828 0.131247 6.25685 0.192173C6.17542 0.253099 6.11082 0.32543 6.06675 0.405034C6.02268 0.484638 6 0.569957 6 0.65612C6 0.742283 6.02268 0.827602 6.06675 0.907206C6.11082 0.98681 6.17542 1.05914 6.25685 1.12007L8.50669 2.80683Z" fill="#ABA765"/>
<path d="M27.3088 23.463H15.1499V21.8263H27.1324C27.1072 21.3985 27.064 20.9707 26.9992 20.5466C26.9344 20.1225 26.8516 19.7022 26.7508 19.2893C26.6501 18.8764 26.5277 18.4635 26.3909 18.058C26.2541 17.6525 26.0922 17.2582 25.9194 16.8676C25.7466 16.477 25.5594 16.1013 25.3399 15.733C25.1203 15.3648 24.9007 14.9891 24.6596 14.6543C24.4184 14.3195 24.1593 13.9735 23.8857 13.6499C23.6122 13.3263 23.3242 13.0175 23.0219 12.7236C22.7195 12.4298 22.4064 12.1508 22.0788 11.8867C21.7513 11.6225 21.4129 11.377 21.0638 11.1427C20.7146 10.9083 20.3439 10.6963 19.9839 10.5028C19.624 10.3094 19.2353 10.1309 18.8501 9.9709C18.465 9.81094 18.0763 9.6733 17.6767 9.55055C17.2772 9.42779 16.8777 9.33107 16.4709 9.24923C16.0642 9.1674 15.6539 9.10416 15.2399 9.06324C14.826 9.02232 14.4121 9 13.9981 9C13.5842 9 13.1667 9.0186 12.7527 9.05952C12.3385 9.09685 11.9264 9.15645 11.5181 9.23807C11.1114 9.31619 10.7083 9.41663 10.3087 9.53567C9.90864 9.65386 9.5146 9.79291 9.12812 9.9523C8.74298 10.1085 8.36145 10.2871 7.99071 10.4805C7.62056 10.6749 7.26016 10.8884 6.91088 11.1203C6.55094 11.351 6.2198 11.5965 5.88865 11.8643C5.5575 12.1322 5.24436 12.4074 4.94201 12.7013C4.63965 12.9952 4.3517 13.3039 4.07454 13.6276C3.79739 13.9512 3.54183 14.286 3.29707 14.6357C2.8103 15.3378 2.38737 16.085 2.03368 16.8676C1.85731 17.2396 1.69893 17.6525 1.55856 18.058C1.41818 18.4635 1.2994 18.8726 1.19861 19.293C1.09783 19.7133 1.01144 20.13 0.946654 20.554C0.881865 20.9781 0.838672 21.4059 0.817075 21.8374H12.5368V23.4742H0.680298C0.590658 23.4742 0.501902 23.4925 0.41913 23.5281C0.336358 23.5636 0.261202 23.6157 0.197984 23.6814C0.134766 23.7471 0.0847334 23.825 0.0507581 23.9108C0.0167828 23.9965 -0.000464766 24.0883 9.52241e-06 24.181V25.2969C9.52241e-06 25.4834 0.0716818 25.6622 0.199261 25.7941C0.32684 25.9259 0.499875 26 0.680298 26H27.316C27.497 25.999 27.6704 25.9242 27.7985 25.7919C27.9265 25.6596 27.9989 25.4804 27.9998 25.2932V24.181C28.0018 24.0864 27.9853 23.9925 27.9513 23.9047C27.9173 23.8169 27.8665 23.7372 27.802 23.6701C27.7375 23.6031 27.6605 23.5502 27.5758 23.5146C27.491 23.4791 27.4002 23.4615 27.3088 23.463ZM9.2541 12.8389C7.15828 13.8388 5.50869 15.6247 4.63965 17.8348C4.59553 17.9662 4.51291 18.0802 4.40325 18.1608C4.29359 18.2415 4.16235 18.2849 4.02775 18.2849C3.95539 18.2856 3.88349 18.273 3.81539 18.2477C3.65332 18.1902 3.51991 18.0686 3.44436 17.9097C3.36881 17.7507 3.35726 17.5673 3.41225 17.3996C4.39648 14.809 6.32656 12.7222 8.78618 11.5891C8.87302 11.5506 8.96695 11.5323 9.06137 11.5353C9.1558 11.5384 9.24844 11.5627 9.3328 11.6067C9.41716 11.6506 9.4912 11.7131 9.54973 11.7897C9.60826 11.8664 9.64987 11.9553 9.67163 12.0503C9.7021 12.2115 9.67702 12.3786 9.60076 12.5226C9.52449 12.6667 9.40185 12.7786 9.2541 12.8389Z" fill="#ABA765"/>
</svg>
