<svg width="149" height="104" viewBox="0 0 149 104" fill="none" xmlns="http://www.w3.org/2000/svg">
<path d="M5.82645 61.4869C5.81503 61.8649 5.65576 62.2234 5.38293 62.4851C5.1101 62.7467 4.74553 62.8907 4.36772 62.8859H1.4328C1.25462 62.8826 1.07892 62.8435 0.916171 62.7708C0.753426 62.6981 0.606963 62.5934 0.485513 62.4628C0.364062 62.3323 0.27011 62.1786 0.209254 62.0109C0.148398 61.8433 0.121885 61.665 0.131294 61.4869L0.0439453 29.4667C0.046236 29.0987 0.193296 28.7464 0.453261 28.4862C0.713226 28.2259 1.06516 28.0787 1.4328 28.0764H4.36772C4.74472 28.0693 5.1093 28.2113 5.38238 28.4716C5.65546 28.7319 5.81502 29.0894 5.82645 29.4667V61.4869Z" fill="#4A494A"/>
<path d="M25.3835 33.6902V61.2073C25.3835 62.0817 25.3835 62.9561 23.9946 62.9561H20.9636C19.6184 62.9561 19.5748 62.0817 19.5748 61.2073V33.6902H11.1718C9.65191 33.6902 9.4248 33.3842 9.4248 31.9939V29.773C9.4248 28.8986 9.4248 28.0767 10.8137 28.0767H33.9874C35.3325 28.0767 35.4199 28.8986 35.4199 29.773V31.9939C35.4199 33.3842 35.2452 33.6902 33.7253 33.6902H25.3835Z" fill="#4A494A"/>
<path d="M39.9885 40.3005C39.6162 40.2891 39.2629 40.133 39.0036 39.8653C38.7444 39.5976 38.5994 39.2394 38.5996 38.8665V29.2482C38.6019 28.8802 38.749 28.5279 39.0089 28.2676C39.2689 28.0074 39.6208 27.8602 39.9885 27.8579H42.6089C42.9774 27.8602 43.3302 28.0071 43.5916 28.2671C43.853 28.5271 44.0019 28.8794 44.0065 29.2482V38.8665C44.0044 39.2402 43.8576 39.5984 43.5969 39.8659C43.3362 40.1334 42.982 40.2892 42.6089 40.3005H39.9885Z" fill="#4A494A"/>
<path d="M69.9754 60.7964C68.0188 62.5451 65.2411 63.2709 62.114 63.2709H58.8034C57.0085 63.281 55.2403 62.8356 53.6639 61.9762C52.0875 61.1169 50.7544 59.8716 49.789 58.3568C49.1969 57.5077 48.7838 56.5467 48.5749 55.5325C48.3317 54.3834 48.229 53.2089 48.2692 52.035V52.1224C48.2692 51.248 48.3128 50.4173 49.6667 50.4173H52.6191C52.9281 50.3964 53.2337 50.4928 53.4749 50.6872C53.7161 50.8817 53.8752 51.1599 53.9206 51.4666C54.0572 51.9165 54.1018 52.3894 54.0517 52.8569C54.0517 53.0755 54.0517 53.469 54.139 54.0286C54.3917 55.0768 54.9889 56.0096 55.8348 56.6772C56.6807 57.3448 57.7262 57.7085 58.8034 57.7098H62.114C64.7344 57.7098 66.9793 56.2758 67.3549 53.9674C67.4065 53.6786 67.4357 53.3863 67.4423 53.093C67.4423 52.5246 67.5296 51.2218 66.7871 50.566C65.573 49.5255 62.9176 49.0883 59.7992 48.3538C54.2351 47.0859 48.2342 45.3896 48.2342 39.5574V38.9541C48.1801 37.9441 48.2683 36.9315 48.4963 35.9462H48.4526C48.9577 33.5778 50.2611 31.4553 52.1442 29.9349C54.0273 28.4144 56.3754 27.5885 58.7947 27.5958H62.1052C64.6697 27.6181 67.1512 28.5087 69.1456 30.1227C71.1022 31.6879 72.3163 34.6871 72.1853 37.9923C72.1416 38.8666 72.1416 39.6886 70.7965 39.6886H67.9314C67.5659 39.6797 67.2177 39.5304 66.9592 39.2715C66.7006 39.0127 66.5514 38.6642 66.5426 38.2983C66.4115 34.5996 64.8917 33.2093 62.114 33.2093H58.8034C57.6994 33.223 56.632 33.6082 55.7732 34.3029C54.9144 34.9976 54.3142 35.9614 54.0691 37.0392V36.9954C53.8836 37.5463 53.8506 38.1371 53.9736 38.7052C54.0967 39.2734 54.3712 39.7975 54.7679 40.2219C55.2776 40.7602 55.9237 41.1501 56.6372 41.3499L61.6336 42.7489C64.254 43.4834 66.1058 43.9643 67.1977 44.3578C68.2704 44.717 69.2922 45.2137 70.2374 45.8355C71.2307 46.5396 72.0301 47.4835 72.5615 48.5795C73.0929 49.6755 73.3391 50.8882 73.2772 52.1049C73.2772 55.4014 71.932 59.0563 69.9754 60.7964Z" fill="#4A494A"/>
<path d="M16.9108 69.1904C18.8497 69.2439 20.6939 70.0417 22.0614 71.4187C23.4289 72.7958 24.215 74.6465 24.2568 76.5878C24.2568 79.9017 22.5098 81.8341 19.9942 83.5042C20.8677 85.9438 21.7412 88.2084 22.6147 90.648C24.0123 94.4691 25.4448 98.3426 26.9821 102.216C27.4625 103.397 26.8074 103.965 25.6369 103.965H22.3439C22.0276 103.979 21.7163 103.882 21.4641 103.69C21.212 103.499 21.0349 103.225 20.9638 102.916L14.7096 86.3022C11.7048 87.8674 9.0581 89.3451 5.97467 90.954V102.304C5.97467 103.178 5.97467 104 4.57709 104H1.43252C1.25283 103.998 1.07536 103.96 0.910325 103.889C0.745295 103.817 0.595966 103.714 0.470937 103.585C0.345909 103.456 0.247649 103.303 0.181817 103.136C0.115984 102.968 0.0838787 102.789 0.087349 102.61L0 70.5895C0.011306 70.216 0.166938 69.8614 0.434132 69.6005C0.701327 69.3395 1.05924 69.1925 1.43252 69.1904H16.9108ZM5.91353 74.9789V84.466C9.34635 82.7697 17.0855 78.9399 17.9939 77.4709C18.1633 77.2107 18.2543 76.9071 18.256 76.5965C18.249 76.1621 18.0706 75.748 17.7596 75.4449C17.4486 75.1418 17.0304 74.9742 16.5963 74.9789H5.91353Z" fill="#4A494A"/>
<path d="M31.8561 104C31.6714 104.008 31.4869 103.978 31.3144 103.912C31.142 103.845 30.9854 103.743 30.8546 103.612C30.7239 103.481 30.6219 103.324 30.5552 103.152C30.4885 102.979 30.4585 102.794 30.4672 102.609L30.3799 70.5892C30.3796 70.3987 30.4182 70.2101 30.4933 70.035C30.5684 69.8599 30.6784 69.7021 30.8166 69.5711C30.9548 69.4401 31.1183 69.3387 31.2971 69.2732C31.4758 69.2077 31.666 69.1795 31.8561 69.1902H52.8199C54.2524 69.1902 54.2524 70.0646 54.2524 70.939V73.3261C54.2524 74.8912 54.034 75.0224 52.5054 75.0224H36.2497V82.7258H50.7235C50.9107 82.7219 51.0966 82.7567 51.2698 82.828C51.4429 82.8993 51.5995 83.0055 51.7298 83.14C51.8601 83.2746 51.9614 83.4346 52.0272 83.61C52.093 83.7855 52.122 83.9726 52.1123 84.1598V87.124C52.122 87.3111 52.093 87.4983 52.0272 87.6737C51.9614 87.8491 51.8601 88.0091 51.7298 88.1437C51.5995 88.2782 51.4429 88.3845 51.2698 88.4557C51.0966 88.527 50.9107 88.5618 50.7235 88.558H36.2497V98.2549H53.1168C54.6367 98.2549 54.8638 98.3861 54.8638 99.9513V102.303C54.8638 103.178 54.8638 104.052 53.4226 104.052L31.8561 104Z" fill="#4A494A"/>
<path d="M84.6678 104H81.5407C80.6672 104 80.4489 103.519 80.1432 102.872L76.195 91.4263L65.5122 96.1829L63.1188 102.89C62.8131 103.58 62.7258 104.017 61.6863 104.017H58.6728C58.3009 104.015 57.9443 103.87 57.6773 103.611C57.4104 103.352 57.2538 102.999 57.2402 102.627C57.2402 102.452 67.198 73.0816 68.3248 70.3447C68.6306 69.6889 68.8489 69.208 69.7137 69.208H73.5396C74.4131 69.208 74.5878 69.7764 74.8847 70.3447L86.013 102.103C86.0298 102.277 86.0298 102.453 86.013 102.627C86.0332 102.81 86.0125 102.995 85.9524 103.169C85.8923 103.343 85.7944 103.502 85.6656 103.633C85.5369 103.764 85.3806 103.865 85.208 103.929C85.0354 103.992 84.8509 104.017 84.6678 104ZM74.1073 85.6378C73.5832 84.2475 73.2338 83.3819 73.1028 82.901C72.9718 82.42 72.8058 82.0266 72.6748 81.5544C72.3691 80.68 72.107 79.8056 71.6266 78.4153L68.1327 88.3134L74.1073 85.6378Z" fill="#4A494A"/>
<path d="M102.923 69.1904C106.58 69.1973 110.086 70.6521 112.675 73.2372C115.264 75.8224 116.726 79.3278 116.742 82.9883V90.2108C116.726 93.8705 115.263 97.375 112.674 99.9587C110.085 102.542 106.579 103.995 102.923 104H90.6246C90.4396 104.01 90.2545 103.981 90.0814 103.915C89.9084 103.848 89.7512 103.746 89.6201 103.615C89.4891 103.484 89.3872 103.327 89.3209 103.153C89.2547 102.98 89.2257 102.795 89.2358 102.61L89.1484 70.5895C89.1686 70.2113 89.333 69.8554 89.6076 69.5951C89.8823 69.3347 90.2464 69.1899 90.6246 69.1904H102.923ZM94.9659 74.9789V98.2114H102.923C105.043 98.1957 107.072 97.3493 108.576 95.8538C110.08 94.3582 110.939 92.3325 110.968 90.2108V82.9883C110.941 80.8651 110.083 78.8371 108.579 77.3397C107.075 75.8423 105.045 74.9947 102.923 74.9789H94.9659Z" fill="#4A494A"/>
<path d="M142.379 69.7586C142.514 69.5766 142.691 69.4298 142.895 69.3308C143.098 69.2319 143.323 69.1837 143.549 69.1903H147.463C147.652 69.166 147.844 69.1855 148.025 69.2472C148.205 69.309 148.37 69.4113 148.505 69.5464C148.639 69.6815 148.742 69.8457 148.803 70.0265C148.865 70.2073 148.884 70.3998 148.86 70.5893C148.812 71.0251 148.629 71.4348 148.336 71.761C148.336 71.8047 148.292 71.8047 148.292 71.8484L137.121 87.8148V102.303C137.121 103.178 137.121 104 135.688 104H132.727C131.382 104 131.338 103.178 131.338 102.303V87.7711L119.79 71.3675C119.646 71.1194 119.584 70.8312 119.616 70.5456C119.586 70.3616 119.6 70.1732 119.657 69.9958C119.714 69.8183 119.812 69.6569 119.943 69.5247C120.074 69.3925 120.235 69.2933 120.412 69.2352C120.589 69.177 120.777 69.1617 120.961 69.1903H124.831C125.079 69.18 125.326 69.2352 125.547 69.3503C125.767 69.4653 125.954 69.6363 126.088 69.8461L134.221 81.8952C138.736 74.9001 141.436 70.8953 142.431 69.6537L142.379 69.7586Z" fill="#4A494A"/>
<path d="M109.501 14.6109C109.694 14.8022 109.927 14.9485 110.182 15.0394C110.435 15.1371 110.707 15.1789 110.977 15.1618H113.117V19.5337C113.79 19.5337 114.462 19.4725 115.135 19.4725C115.808 19.4725 116.367 19.4725 116.987 19.5337V15.1618H119.109C119.38 15.1775 119.651 15.1358 119.904 15.0394C120.158 14.9444 120.39 14.7986 120.586 14.6109C120.976 14.2285 121.199 13.7064 121.206 13.1594C121.204 12.8886 121.148 12.6209 121.04 12.3725C120.934 12.123 120.78 11.8971 120.586 11.7079C120.39 11.5202 120.158 11.3744 119.904 11.2795C119.651 11.183 119.38 11.1413 119.109 11.1571H110.977C110.707 11.1399 110.435 11.1817 110.182 11.2795C109.927 11.3703 109.694 11.5166 109.501 11.7079C109.305 11.8968 109.147 12.1226 109.038 12.3725C108.933 12.6215 108.88 12.8892 108.881 13.1594C108.881 13.4296 108.934 13.6971 109.038 13.9464C109.147 14.1962 109.305 14.422 109.501 14.6109Z" fill="#ABA765"/>
<path d="M127.573 7.60712C128.015 7.60685 128.439 7.43072 128.752 7.11746L133.023 2.84169C133.335 2.52978 133.51 2.10674 133.51 1.66563C133.51 1.22453 133.335 0.801489 133.023 0.489579C132.712 0.17767 132.289 0.00244142 131.849 0.00244141C131.408 0.0024414 130.985 0.17767 130.674 0.489579L126.402 4.76535C126.173 4.99882 126.017 5.29475 125.954 5.6163C125.891 5.93785 125.924 6.27082 126.049 6.57373C126.174 6.87665 126.385 7.13614 126.656 7.31989C126.927 7.50363 127.246 7.60352 127.573 7.60712Z" fill="#ABA765"/>
<path d="M129.547 17.6711C129.549 18.1125 129.726 18.5351 130.039 18.8464C130.351 19.1577 130.774 19.3325 131.215 19.3325H137.251C137.691 19.3325 138.113 19.1574 138.425 18.8459C138.736 18.5343 138.911 18.1117 138.911 17.6711C138.911 17.2305 138.736 16.8079 138.425 16.4964C138.113 16.1848 137.691 16.0098 137.251 16.0098H131.215C130.774 16.0098 130.351 16.1845 130.039 16.4958C129.726 16.8071 129.549 17.2297 129.547 17.6711Z" fill="#ABA765"/>
<path d="M92.9394 19.3412H98.9752C99.2039 19.3578 99.4335 19.327 99.6497 19.2508C99.866 19.1746 100.064 19.0546 100.232 18.8983C100.4 18.742 100.534 18.5528 100.625 18.3424C100.717 18.132 100.764 17.905 100.764 17.6755C100.764 17.446 100.717 17.2189 100.625 17.0085C100.534 16.7981 100.4 16.6089 100.232 16.4526C100.064 16.2963 99.866 16.1763 99.6497 16.1001C99.4335 16.0239 99.2039 15.9931 98.9752 16.0097H92.9394C92.7107 15.9931 92.4811 16.0239 92.2649 16.1001C92.0486 16.1763 91.8504 16.2963 91.6825 16.4526C91.5146 16.6089 91.3807 16.7981 91.2892 17.0085C91.1976 17.2189 91.1504 17.446 91.1504 17.6755C91.1504 17.905 91.1976 18.132 91.2892 18.3424C91.3807 18.5528 91.5146 18.742 91.6825 18.8983C91.8504 19.0546 92.0486 19.1746 92.2649 19.2508C92.4811 19.327 92.7107 19.3578 92.9394 19.3412Z" fill="#ABA765"/>
<path d="M101.324 7.11746C101.637 7.43072 102.061 7.60685 102.504 7.60712C102.831 7.60352 103.15 7.50363 103.421 7.31989C103.692 7.13614 103.903 6.87665 104.028 6.57373C104.153 6.27082 104.186 5.93785 104.123 5.6163C104.06 5.29475 103.904 4.99882 103.674 4.76535L99.4115 0.489579C99.2572 0.335138 99.0741 0.212628 98.8725 0.129044C98.6709 0.0454612 98.4549 0.00244141 98.2367 0.00244141C98.0185 0.0024414 97.8024 0.0454612 97.6009 0.129044C97.3993 0.212628 97.2161 0.335138 97.0618 0.489579C96.9076 0.644021 96.7852 0.82737 96.7017 1.02916C96.6182 1.23095 96.5752 1.44722 96.5752 1.66563C96.5752 1.88405 96.6182 2.10032 96.7017 2.30211C96.7852 2.5039 96.9076 2.68725 97.0618 2.84169L101.324 7.11746Z" fill="#ABA765"/>
<path d="M147.349 56.8967H117.842V53.0494H146.921C146.86 52.0438 146.755 51.0383 146.598 50.0415C146.44 49.0447 146.24 48.0566 145.995 47.086C145.75 46.1155 145.453 45.1449 145.121 44.1918C144.79 43.2387 144.396 42.3119 143.977 41.3937C143.558 40.4756 143.104 39.5925 142.571 38.7269C142.038 37.8612 141.505 36.9781 140.92 36.1911C140.335 35.4042 139.706 34.591 139.042 33.8303C138.378 33.0695 137.679 32.3438 136.946 31.653C136.212 30.9623 135.452 30.3065 134.657 29.6857C133.862 29.0648 133.041 28.4877 132.194 27.9369C131.347 27.386 130.447 26.8876 129.573 26.4329C128.7 25.9782 127.757 25.5585 126.822 25.1825C125.887 24.8066 124.944 24.483 123.974 24.1945C123.005 23.9059 122.035 23.6786 121.048 23.4862C120.061 23.2939 119.065 23.1452 118.061 23.049C117.056 22.9529 116.052 22.9004 115.047 22.9004C114.043 22.9004 113.029 22.9441 112.025 23.0403C111.02 23.128 110.02 23.2681 109.029 23.46C108.042 23.6436 107.064 23.8797 106.094 24.1595C105.123 24.4373 104.167 24.7642 103.229 25.1388C102.294 25.5061 101.368 25.9258 100.469 26.3805C99.5704 26.8372 98.6958 27.3392 97.8482 27.8844C96.9747 28.4265 96.1711 29.0036 95.3675 29.6332C94.5639 30.2628 93.8039 30.9098 93.0702 31.6006C92.3365 32.2913 91.6377 33.0171 90.9651 33.7778C90.2925 34.5385 89.6723 35.3255 89.0783 36.1474C87.8971 37.7979 86.8707 39.5541 86.0124 41.3937C85.5844 42.2681 85.2 43.2387 84.8594 44.1918C84.5187 45.1449 84.2305 46.1067 83.9859 47.0948C83.7413 48.0828 83.5317 49.0622 83.3744 50.059C83.2172 51.0558 83.1124 52.0613 83.06 53.0756H111.501V56.9229H82.7281C82.5105 56.9229 82.2951 56.966 82.0943 57.0495C81.8934 57.1331 81.711 57.2557 81.5576 57.41C81.4042 57.5644 81.2828 57.7476 81.2003 57.9492C81.1179 58.1507 81.076 58.3665 81.0772 58.5843V61.2074C81.0772 61.6457 81.2511 62.0661 81.5607 62.376C81.8703 62.6859 82.2902 62.86 82.7281 62.86H147.366C147.806 62.8577 148.227 62.682 148.537 62.3709C148.848 62.0598 149.024 61.6386 149.026 61.1987V58.5843C149.031 58.3621 148.991 58.1412 148.908 57.9349C148.826 57.7286 148.702 57.5411 148.546 57.3835C148.389 57.226 148.203 57.1017 147.997 57.018C147.791 56.9344 147.571 56.8931 147.349 56.8967ZM103.535 31.9241C98.4486 34.2742 94.4454 38.4722 92.3365 43.6672C92.2294 43.9761 92.0289 44.2439 91.7628 44.4335C91.4967 44.6231 91.1782 44.7251 90.8515 44.7252C90.6759 44.7268 90.5014 44.6972 90.3362 44.6377C89.9429 44.5025 89.6191 44.2168 89.4358 43.8432C89.2524 43.4695 89.2244 43.0384 89.3579 42.6441C91.7463 36.5549 96.4302 31.6496 102.399 28.9861C102.61 28.8958 102.838 28.8527 103.067 28.8599C103.296 28.867 103.521 28.9243 103.726 29.0276C103.93 29.1309 104.11 29.2777 104.252 29.4579C104.394 29.638 104.495 29.8471 104.548 30.0704C104.622 30.4492 104.561 30.8419 104.376 31.1805C104.191 31.5191 103.893 31.7822 103.535 31.9241Z" fill="#ABA765"/>
</svg>
