<svg width="98" height="69" viewBox="0 0 98 69" fill="none" xmlns="http://www.w3.org/2000/svg">
<path d="M3.83195 40.7942C3.82443 41.045 3.71968 41.2828 3.54023 41.4564C3.36079 41.63 3.12101 41.7255 2.87251 41.7224H0.942158C0.824966 41.7202 0.709406 41.6942 0.602365 41.646C0.495325 41.5978 0.398993 41.5283 0.319113 41.4417C0.239233 41.355 0.177439 41.2531 0.137413 41.1418C0.097387 41.0306 0.0799488 40.9124 0.0861376 40.7942L0.0286865 19.55C0.0301931 19.3058 0.126917 19.0721 0.297901 18.8995C0.468885 18.7268 0.700355 18.6291 0.942158 18.6276H2.87251C3.12047 18.6229 3.36026 18.7171 3.53987 18.8898C3.71948 19.0625 3.82443 19.2997 3.83195 19.55V40.7942Z" fill="white"/>
<path d="M16.6953 22.3518V40.6084C16.6953 41.1885 16.6953 41.7686 15.7818 41.7686H13.7883C12.9035 41.7686 12.8748 41.1885 12.8748 40.6084V22.3518H7.348C6.34835 22.3518 6.19897 22.1488 6.19897 21.2264V19.7529C6.19897 19.1728 6.19897 18.6274 7.11245 18.6274H22.3542C23.239 18.6274 23.2964 19.1728 23.2964 19.7529V21.2264C23.2964 22.1488 23.1815 22.3518 22.1819 22.3518H16.6953Z" fill="white"/>
<path d="M26.3012 26.7376C26.0563 26.73 25.824 26.6265 25.6534 26.4489C25.4829 26.2713 25.3876 26.0336 25.3877 25.7862V19.4048C25.3892 19.1607 25.4859 18.9269 25.6569 18.7543C25.8279 18.5816 26.0594 18.4839 26.3012 18.4824H28.0247C28.267 18.4839 28.4991 18.5814 28.671 18.7539C28.8429 18.9264 28.9409 19.1601 28.9439 19.4048V25.7862C28.9425 26.0341 28.846 26.2718 28.6745 26.4493C28.5031 26.6267 28.2701 26.7301 28.0247 26.7376H26.3012Z" fill="white"/>
<path d="M46.024 40.336C44.7371 41.4963 42.9101 41.9778 40.8534 41.9778H38.676C37.4954 41.9845 36.3324 41.6889 35.2956 41.1188C34.2588 40.5487 33.382 39.7225 32.747 38.7175C32.3576 38.1541 32.0859 37.5165 31.9485 36.8437C31.7885 36.0812 31.721 35.302 31.7474 34.5232V34.5812C31.7474 34.001 31.7761 33.4499 32.6666 33.4499H34.6084C34.8117 33.436 35.0126 33.5 35.1713 33.629C35.3299 33.758 35.4346 33.9426 35.4645 34.1461C35.5543 34.4446 35.5836 34.7583 35.5506 35.0685C35.5506 35.2135 35.5506 35.4746 35.6081 35.8458C35.7743 36.5413 36.1671 37.1602 36.7235 37.6031C37.2798 38.046 37.9675 38.2873 38.676 38.2882H40.8534C42.5769 38.2882 44.0534 37.3368 44.3004 35.811C44.3338 35.6194 44.353 35.4255 44.3579 35.2309C44.3579 34.8538 44.4153 33.9894 43.927 33.5544C43.1284 32.864 41.3819 32.5739 39.3309 32.0866C35.6713 31.2455 31.7244 30.12 31.7244 26.2506V25.8503C31.6888 25.1802 31.7468 24.5084 31.8968 23.8547H31.868C32.2002 22.2833 33.0575 20.8751 34.2961 19.8664C35.5346 18.8576 37.079 18.3097 38.6702 18.3145H40.8476C42.5343 18.3293 44.1664 18.9202 45.4782 19.991C46.7651 21.0295 47.5637 23.0193 47.4775 25.2122C47.4487 25.7923 47.4488 26.3376 46.564 26.3376H44.6796C44.4392 26.3317 44.2102 26.2326 44.0401 26.0609C43.8701 25.8892 43.772 25.658 43.7661 25.4152C43.68 22.9613 42.6803 22.0389 40.8534 22.0389H38.676C37.9498 22.0479 37.2478 22.3035 36.683 22.7644C36.1181 23.2253 35.7233 23.8648 35.5621 24.5798V24.5508C35.4412 24.9155 35.4201 25.3063 35.501 25.6821C35.5819 26.0579 35.7618 26.4046 36.0217 26.6857C36.357 27.0428 36.7819 27.3014 37.2512 27.434L40.5374 28.3622C42.2609 28.8495 43.4789 29.1686 44.197 29.4297C44.9026 29.668 45.5746 29.9975 46.1963 30.4101C46.8496 30.8772 47.3754 31.5034 47.7249 32.2306C48.0744 32.9578 48.2363 33.7623 48.1956 34.5696C48.1956 36.7566 47.3109 39.1816 46.024 40.336Z" fill="white"/>
<path d="M11.1225 45.9053C12.3978 45.9407 13.6107 46.4701 14.5102 47.3837C15.4096 48.2973 15.9266 49.5252 15.9542 50.8131C15.9542 53.0118 14.8051 54.2939 13.1505 55.4077C13.7251 57.0205 14.2996 58.523 14.8741 60.1415C15.7933 62.6767 16.7355 65.2466 17.7466 67.8166C18.0626 68.5997 17.6317 68.9768 16.8619 68.9768H14.696C14.4877 68.9874 14.2824 68.9234 14.1163 68.796C13.9502 68.6687 13.834 68.4861 13.7883 68.2807L9.67476 57.2583C7.69844 58.2967 5.95767 59.2771 3.92965 60.3446V67.8746C3.92965 68.4547 3.92965 69 3.01043 69H0.942197C0.824008 68.9985 0.707281 68.9734 0.598737 68.9262C0.490194 68.8789 0.391978 68.8105 0.309744 68.7247C0.22751 68.639 0.162883 68.5377 0.119584 68.4266C0.0762848 68.3156 0.0551686 68.197 0.0574511 68.0776L0 46.8335C0.00743614 46.5857 0.109798 46.3504 0.285537 46.1773C0.461275 46.0042 0.696681 45.9067 0.942197 45.9053H11.1225ZM3.88944 49.7457V56.04C6.14726 54.9146 11.2374 52.3737 11.8349 51.3991C11.9463 51.2264 12.0062 51.025 12.0073 50.8189C12.0027 50.5307 11.8854 50.256 11.6808 50.0549C11.4763 49.8538 11.2012 49.7426 10.9157 49.7457H3.88944Z" fill="white"/>
<path d="M20.9524 69C20.8307 69.0067 20.7089 68.9875 20.5951 68.9435C20.4813 68.8995 20.3779 68.8318 20.2917 68.7448C20.2055 68.6577 20.1385 68.5533 20.0949 68.4384C20.0513 68.3235 20.0323 68.2005 20.0389 68.0776L19.9814 46.8335C19.9812 46.7071 20.0066 46.5819 20.056 46.4658C20.1054 46.3496 20.1778 46.2449 20.2687 46.158C20.3596 46.0711 20.4671 46.0038 20.5847 45.9604C20.7023 45.9169 20.8274 45.8982 20.9524 45.9053H34.7406C35.6828 45.9053 35.6828 46.4854 35.6828 47.0655V48.6493C35.6828 49.6877 35.5392 49.7747 34.5338 49.7747H23.8422V54.8856H33.3618C33.4849 54.8831 33.6072 54.9061 33.7211 54.9534C33.835 55.0007 33.938 55.0712 34.0237 55.1605C34.1094 55.2497 34.176 55.3559 34.2193 55.4723C34.2625 55.5887 34.2816 55.7128 34.2753 55.837V57.8036C34.2816 57.9278 34.2625 58.052 34.2193 58.1684C34.176 58.2848 34.1094 58.3909 34.0237 58.4802C33.938 58.5695 33.835 58.6399 33.7211 58.6872C33.6072 58.7345 33.4849 58.7576 33.3618 58.755H23.8422V65.1886H34.936C35.9356 65.1886 36.085 65.2756 36.085 66.3141V67.8746C36.085 68.4547 36.085 69.0348 35.137 69.0348L20.9524 69Z" fill="white"/>
<path d="M55.6873 68.9997H53.6306C53.0561 68.9997 52.9124 68.6806 52.7114 68.2513L50.1146 60.6575L43.0883 63.8133L41.5142 68.2629C41.3131 68.7212 41.2556 69.0113 40.572 69.0113H38.5899C38.3449 69.0114 38.1095 68.9151 37.9336 68.7429C37.7577 68.5707 37.6552 68.3361 37.6477 68.0889C37.6477 67.9728 44.1971 48.4865 44.9382 46.6707C45.1393 46.2356 45.2829 45.9165 45.8517 45.9165H48.3681C48.9426 45.9165 49.0575 46.2936 49.2528 46.6707L56.5721 67.7408C56.5832 67.8565 56.5832 67.9731 56.5721 68.0889C56.5854 68.2102 56.5717 68.3331 56.5322 68.4485C56.4927 68.5639 56.4283 68.669 56.3436 68.7561C56.2589 68.8433 56.1561 68.9104 56.0426 68.9525C55.9291 68.9946 55.8078 69.0107 55.6873 68.9997ZM48.7415 56.817C48.3968 55.8946 48.167 55.3203 48.0808 55.0013C47.9946 54.6822 47.8855 54.4211 47.7993 54.1079C47.5982 53.5277 47.4259 52.9476 47.1099 52.0252L44.8119 58.5922L48.7415 56.817Z" fill="white"/>
<path d="M67.6946 45.9053C70.0997 45.9098 72.4053 46.8751 74.1082 48.5902C75.811 50.3053 76.7727 52.631 76.7833 55.0596V59.8515C76.7727 62.2795 75.8108 64.6047 74.1078 66.3189C72.4048 68.0331 70.0991 68.997 67.6946 69H59.6054C59.4837 69.0067 59.362 68.9875 59.2482 68.9435C59.1343 68.8995 59.031 68.8318 58.9448 68.7448C58.8586 68.6577 58.7915 68.5533 58.748 68.4384C58.7044 68.3235 58.6853 68.2005 58.692 68.0776L58.6345 46.8335C58.6478 46.5826 58.7559 46.3465 58.9366 46.1737C59.1172 46.001 59.3567 45.9049 59.6054 45.9053H67.6946ZM62.4608 49.7457V65.1596H67.6946C69.0887 65.1491 70.4234 64.5876 71.4124 63.5954C72.4015 62.6031 72.9663 61.2592 72.9858 59.8515V55.0596C72.9678 53.6509 72.4036 52.3055 71.4144 51.312C70.4252 50.3185 69.0897 49.7562 67.6946 49.7457H62.4608Z" fill="white"/>
<path d="M93.6452 46.2819C93.734 46.1611 93.8503 46.0637 93.9843 45.9981C94.1184 45.9324 94.2661 45.9004 94.415 45.9048H96.9888C97.1134 45.8887 97.2398 45.9016 97.3586 45.9426C97.4774 45.9835 97.5853 46.0514 97.6741 46.1411C97.7628 46.2307 97.8301 46.3397 97.8706 46.4596C97.9112 46.5795 97.924 46.7073 97.9081 46.833C97.8764 47.1221 97.7559 47.394 97.5634 47.6104C97.5634 47.6394 97.5346 47.6394 97.5346 47.6684L90.1866 58.2615V67.8741C90.1866 68.4542 90.1866 68.9996 89.2444 68.9996H87.2968C86.4121 68.9996 86.3834 68.4542 86.3834 67.8741V58.2324L78.7883 47.3493C78.693 47.1847 78.6527 46.9935 78.6734 46.804C78.6539 46.6819 78.6632 46.5569 78.7006 46.4392C78.738 46.3215 78.8025 46.2144 78.8888 46.1267C78.9751 46.039 79.0808 45.9731 79.1971 45.9346C79.3135 45.896 79.4372 45.8858 79.5582 45.9048H82.1033C82.2668 45.898 82.4292 45.9346 82.5744 46.0109C82.7195 46.0873 82.8424 46.2007 82.9306 46.3399L88.2793 54.334C91.2495 49.693 93.0247 47.0361 93.6797 46.2123L93.6452 46.2819Z" fill="white"/>
<path d="M72.0207 9.69388C72.1475 9.8208 72.3005 9.91787 72.4688 9.97814C72.6352 10.043 72.8136 10.0707 72.9916 10.0594H74.3992V12.96C74.8416 12.96 75.2839 12.9194 75.7263 12.9194C76.1687 12.9194 76.5364 12.9194 76.9443 12.96V10.0594H78.3403C78.5183 10.0698 78.6965 10.0421 78.8631 9.97814C79.0301 9.91516 79.1826 9.81843 79.3112 9.69388C79.5682 9.44016 79.715 9.09378 79.7191 8.73087C79.7179 8.55119 79.6808 8.3736 79.61 8.20876C79.5403 8.04327 79.4388 7.8934 79.3112 7.76787C79.1826 7.64331 79.0301 7.54659 78.8631 7.4836C78.6965 7.4196 78.5183 7.39192 78.3403 7.40239H72.9916C72.8136 7.39102 72.6352 7.41873 72.4688 7.4836C72.3005 7.54388 72.1475 7.64094 72.0207 7.76787C71.8915 7.89317 71.788 8.043 71.7162 8.20876C71.6474 8.37401 71.6122 8.55159 71.6128 8.73087C71.6126 8.91011 71.6478 9.08759 71.7162 9.25298C71.788 9.41875 71.8915 9.56857 72.0207 9.69388Z" fill="#4A494A"/>
<path d="M83.9073 5.04688C84.1983 5.0467 84.4772 4.92984 84.6829 4.72201L87.4922 1.8852C87.6972 1.67826 87.8123 1.39759 87.8123 1.10493C87.8123 0.812272 87.6972 0.531602 87.4922 0.324662C87.2873 0.117722 87.0094 0.00146485 86.7195 0.00146484C86.4297 0.00146484 86.1518 0.117722 85.9468 0.324662L83.1375 3.16147C82.9864 3.31637 82.8838 3.51271 82.8425 3.72604C82.8011 3.93938 82.8228 4.16029 82.9049 4.36126C82.9869 4.56224 83.1257 4.7344 83.304 4.85631C83.4822 4.97822 83.692 5.04449 83.9073 5.04688Z" fill="#4A494A"/>
<path d="M85.2056 11.7243C85.2071 12.0172 85.3234 12.2975 85.529 12.5041C85.7346 12.7106 86.0129 12.8265 86.3029 12.8265H90.2728C90.5623 12.8265 90.8399 12.7104 91.0446 12.5037C91.2493 12.297 91.3643 12.0166 91.3643 11.7243C91.3643 11.432 91.2493 11.1516 91.0446 10.9449C90.8399 10.7382 90.5623 10.6221 90.2728 10.6221H86.3029C86.0129 10.6221 85.7346 10.738 85.529 10.9446C85.3234 11.1511 85.2071 11.4314 85.2056 11.7243Z" fill="#4A494A"/>
<path d="M61.128 12.8323H65.0978C65.2482 12.8433 65.3992 12.8229 65.5415 12.7724C65.6837 12.7218 65.8141 12.6422 65.9245 12.5385C66.0349 12.4348 66.123 12.3093 66.1832 12.1697C66.2434 12.0301 66.2745 11.8794 66.2745 11.7272C66.2745 11.5749 66.2434 11.4243 66.1832 11.2847C66.123 11.1451 66.0349 11.0195 65.9245 10.9158C65.8141 10.8121 65.6837 10.7325 65.5415 10.682C65.3992 10.6314 65.2482 10.611 65.0978 10.622H61.128C60.9776 10.611 60.8265 10.6314 60.6843 10.682C60.5421 10.7325 60.4117 10.8121 60.3013 10.9158C60.1909 11.0195 60.1028 11.1451 60.0426 11.2847C59.9824 11.4243 59.9513 11.5749 59.9513 11.7272C59.9513 11.8794 59.9824 12.0301 60.0426 12.1697C60.1028 12.3093 60.1909 12.4348 60.3013 12.5385C60.4117 12.6422 60.5421 12.7218 60.6843 12.7724C60.8265 12.8229 60.9776 12.8433 61.128 12.8323Z" fill="#4A494A"/>
<path d="M66.6432 4.722C66.8489 4.92984 67.1278 5.0467 67.4188 5.04687C67.6341 5.04449 67.8439 4.97822 68.0221 4.85631C68.2004 4.7344 68.3392 4.56224 68.4212 4.36126C68.5033 4.16029 68.525 3.93938 68.4836 3.72604C68.4423 3.51271 68.3397 3.31637 68.1886 3.16147L65.385 0.324662C65.2836 0.222196 65.1631 0.140915 65.0305 0.0854611C64.8979 0.0300068 64.7558 0.00146485 64.6123 0.00146484C64.4688 0.00146484 64.3267 0.0300068 64.1941 0.0854611C64.0615 0.140915 63.9411 0.222196 63.8396 0.324662C63.7381 0.427128 63.6576 0.548773 63.6027 0.682652C63.5478 0.81653 63.5195 0.96002 63.5195 1.10493C63.5195 1.24984 63.5478 1.39333 63.6027 1.52721C63.6576 1.66109 63.7381 1.78273 63.8396 1.8852L66.6432 4.722Z" fill="#4A494A"/>
<path d="M96.9142 37.7486H77.5072V35.196H96.6327C96.5924 34.5289 96.5235 33.8618 96.4201 33.2004C96.3167 32.5391 96.1845 31.8835 96.0237 31.2396C95.8628 30.5957 95.6675 29.9517 95.4492 29.3194C95.2309 28.6871 94.9723 28.0721 94.6966 27.463C94.4208 26.8539 94.122 26.2679 93.7716 25.6936C93.4211 25.1193 93.0707 24.5334 92.6858 24.0112C92.3008 23.4891 91.8872 22.9496 91.4506 22.4449C91.0139 21.9402 90.5543 21.4587 90.0718 21.0004C89.5892 20.5421 89.0893 20.107 88.5665 19.6951C88.0437 19.2832 87.5037 18.9004 86.9464 18.5349C86.3891 18.1694 85.7974 17.8387 85.2229 17.5371C84.6484 17.2354 84.0279 16.9569 83.4132 16.7075C82.7985 16.458 82.178 16.2434 81.5403 16.0519C80.9026 15.8605 80.2649 15.7097 79.6157 15.582C78.9665 15.4544 78.3115 15.3558 77.6508 15.292C76.9902 15.2282 76.3295 15.1934 75.6688 15.1934C75.0081 15.1934 74.3417 15.2224 73.681 15.2862C73.0198 15.3444 72.362 15.4373 71.7104 15.5646C71.0612 15.6865 70.4177 15.8431 69.78 16.0287C69.1415 16.2131 68.5125 16.4299 67.8956 16.6785C67.2809 16.9221 66.6719 17.2006 66.0802 17.5023C65.4894 17.8053 64.9141 18.1383 64.3567 18.5001C63.7822 18.8597 63.2536 19.2426 62.7251 19.6603C62.1965 20.078 61.6967 20.5073 61.2141 20.9656C60.7315 21.4239 60.2719 21.9054 59.8295 22.4101C59.3871 22.9148 58.9792 23.4369 58.5886 23.9822C57.8116 25.0773 57.1366 26.2425 56.572 27.463C56.2905 28.0431 56.0378 28.6871 55.8137 29.3194C55.5896 29.9517 55.4 30.5899 55.2392 31.2454C55.0783 31.9009 54.9404 32.5507 54.837 33.212C54.7336 33.8734 54.6647 34.5405 54.6302 35.2135H73.3363V37.766H54.4119C54.2688 37.766 54.1271 37.7945 53.995 37.85C53.8629 37.9055 53.743 37.9868 53.6421 38.0892C53.5412 38.1916 53.4613 38.3132 53.4071 38.4469C53.3528 38.5806 53.3253 38.7238 53.3261 38.8682V40.6086C53.3261 40.8994 53.4405 41.1783 53.6441 41.3839C53.8477 41.5895 54.1239 41.705 54.4119 41.705H96.9257C97.2147 41.7035 97.4915 41.5869 97.6958 41.3805C97.9002 41.1741 98.0157 40.8947 98.0172 40.6028V38.8682C98.0203 38.7208 97.994 38.5743 97.9397 38.4374C97.8855 38.3006 97.8044 38.1761 97.7014 38.0716C97.5985 37.9671 97.4757 37.8846 97.3404 37.8291C97.2051 37.7736 97.0602 37.7462 96.9142 37.7486ZM68.0967 21.1802C64.7515 22.7395 62.1186 25.5247 60.7315 28.9713C60.6611 29.1763 60.5292 29.354 60.3542 29.4798C60.1792 29.6056 59.9697 29.6732 59.7548 29.6733C59.6393 29.6743 59.5246 29.6547 59.4159 29.6153C59.1572 29.5255 58.9443 29.336 58.8237 29.0881C58.7031 28.8402 58.6847 28.5541 58.7724 28.2926C60.3434 24.2526 63.424 20.9981 67.3499 19.231C67.4885 19.1711 67.6384 19.1425 67.7891 19.1473C67.9398 19.152 68.0877 19.19 68.2223 19.2585C68.357 19.327 68.4752 19.4245 68.5686 19.544C68.662 19.6635 68.7284 19.8022 68.7632 19.9504C68.8118 20.2017 68.7718 20.4623 68.65 20.6869C68.5283 20.9116 68.3326 21.0861 68.0967 21.1802Z" fill="#4A494A"/>
</svg>
