<svg width="82" height="57" viewBox="0 0 82 57" fill="none" xmlns="http://www.w3.org/2000/svg">
<g clip-path="url(#clip0)">
<path d="M3.20625 33.6997C3.19996 33.9065 3.11214 34.1025 2.96186 34.2451C2.81157 34.3878 2.61093 34.4656 2.40345 34.4617H0.788259C0.690423 34.4606 0.593831 34.4397 0.504288 34.4004C0.414744 34.3611 0.334097 34.3041 0.267194 34.233C0.20029 34.1618 0.14851 34.0779 0.114966 33.9862C0.0814223 33.8946 0.0668065 33.7972 0.0719971 33.6997L0.0239258 16.1502C0.0264191 15.9489 0.107747 15.7565 0.250551 15.6142C0.393354 15.4718 0.58632 15.3907 0.788259 15.3882H2.40345C2.61057 15.3856 2.81051 15.4638 2.96052 15.6062C3.11054 15.7486 3.19873 15.9439 3.20625 16.1502V33.6997Z" fill="white"/>
<path d="M13.9696 18.4649V33.5463C13.9696 34.0256 13.9696 34.4712 13.2053 34.4712H11.5372C10.7969 34.4712 10.7729 34.0208 10.7729 33.5463V18.4649H6.14844C5.312 18.4649 5.18701 18.2971 5.18701 17.5351V16.3179C5.18701 15.8387 5.18701 15.3882 5.95135 15.3882H18.7047C19.445 15.3882 19.493 15.8387 19.493 16.3179V17.5351C19.493 18.2971 19.3969 18.4649 18.5604 18.4649H13.9696Z" fill="white"/>
<path d="M22.007 22.088C21.8021 22.0818 21.6077 21.9963 21.465 21.8495C21.3223 21.7028 21.2426 21.5065 21.2427 21.3021V16.0305C21.2439 15.8288 21.3249 15.6357 21.4679 15.4931C21.611 15.3505 21.8047 15.2698 22.007 15.2686H23.4492C23.6519 15.2698 23.8461 15.3503 23.99 15.4928C24.1338 15.6353 24.2158 15.8284 24.2183 16.0305V21.3021C24.2171 21.5069 24.1363 21.7033 23.9929 21.8499C23.8494 21.9965 23.6545 22.0818 23.4492 22.088H22.007Z" fill="white"/>
<path d="M38.5101 33.3211C37.4333 34.2796 35.9046 34.6773 34.1837 34.6773H32.3618C31.3739 34.6829 30.4008 34.4388 29.5333 33.9678C28.6657 33.4968 27.9321 32.8143 27.4008 31.9841C27.0749 31.5187 26.8476 30.992 26.7326 30.4361C26.5988 29.8063 26.5423 29.1626 26.5644 28.5192V28.5671C26.5644 28.0879 26.5884 27.6326 27.3335 27.6326H28.9583C29.1284 27.6211 29.2965 27.6739 29.4292 27.7805C29.562 27.8871 29.6496 28.0396 29.6746 28.2077C29.7497 28.4543 29.7743 28.7134 29.7467 28.9697C29.7467 29.0895 29.7467 29.3051 29.7947 29.6118C29.9338 30.1864 30.2625 30.6976 30.728 31.0635C31.1936 31.4294 31.7689 31.6287 32.3618 31.6294H34.1837C35.6258 31.6294 36.8612 30.8435 37.0679 29.5831C37.0958 29.4248 37.1119 29.2646 37.116 29.1039C37.116 28.7924 37.1641 28.0783 36.7555 27.7189C36.0873 27.1486 34.6259 26.909 32.9098 26.5064C29.8476 25.8115 26.5451 24.8818 26.5451 21.6853V21.3547C26.5153 20.8011 26.5639 20.2461 26.6893 19.7061H26.6653C26.9433 18.408 27.6606 17.2447 28.6969 16.4114C29.7333 15.5781 31.0255 15.1255 32.3569 15.1294H34.1789C35.5902 15.1417 36.9558 15.6298 38.0534 16.5144C39.1302 17.3722 39.7984 19.016 39.7263 20.8275C39.7022 21.3067 39.7022 21.7572 38.9619 21.7572H37.3852C37.184 21.7524 36.9924 21.6705 36.8501 21.5287C36.7078 21.3868 36.6258 21.1958 36.6209 20.9952C36.5488 18.9681 35.7123 18.2061 34.1837 18.2061H32.3618C31.7541 18.2136 31.1667 18.4247 30.6941 18.8055C30.2215 19.1862 29.8912 19.7145 29.7563 20.3051V20.2812C29.6551 20.5824 29.6375 20.9053 29.7051 21.2157C29.7728 21.5261 29.9234 21.8126 30.1409 22.0448C30.4227 22.3381 30.7778 22.5515 31.1696 22.663L33.9193 23.4297C35.3614 23.8323 36.3805 24.0959 36.9814 24.3115C37.5718 24.5084 38.1341 24.7806 38.6543 25.1214C39.2009 25.5073 39.6409 26.0246 39.9333 26.6253C40.2258 27.226 40.3613 27.8907 40.3272 28.5575C40.3272 30.3642 39.5869 32.3674 38.5101 33.3211Z" fill="white"/>
<path d="M9.3066 37.9219C10.3737 37.9512 11.3886 38.3884 12.1412 39.1432C12.8938 39.8979 13.3264 40.9122 13.3494 41.9762C13.3494 43.7925 12.388 44.8516 11.0035 45.7669C11.4842 47.104 11.9649 48.3452 12.4457 49.6775C13.2148 51.7765 14.0032 53.8995 14.8492 56.0225C15.1136 56.6647 14.7531 56.981 14.1089 56.981H12.2966C12.1226 56.9888 11.9512 56.9355 11.8125 56.8305C11.6737 56.7254 11.5763 56.5752 11.5371 56.4059L8.09521 47.3005C6.44155 48.1583 4.98499 48.9682 3.28808 49.85V56.0704C3.28808 56.5497 3.28808 57.0001 2.51894 57.0001H0.788369C0.689476 56.9989 0.591806 56.9782 0.500984 56.9391C0.410162 56.9001 0.327981 56.8436 0.259174 56.7727C0.190366 56.7019 0.13629 56.6182 0.10006 56.5265C0.0638302 56.4347 0.0461615 56.3367 0.0480713 56.2382L0 38.6887C0.00622208 38.4839 0.0918718 38.2896 0.238918 38.1466C0.385965 38.0036 0.582937 37.923 0.788369 37.9219H9.3066ZM3.25443 41.0944V46.2941C5.14363 45.3644 9.40274 43.2653 9.90269 42.4602C9.99591 42.3176 10.046 42.1512 10.0469 41.981C10.0431 41.7429 9.94489 41.5159 9.77374 41.3498C9.60258 41.1837 9.37241 41.0918 9.13354 41.0944H3.25443Z" fill="white"/>
<path d="M17.5316 56.9999C17.4298 57.0054 17.328 56.9895 17.2327 56.9532C17.1375 56.9168 17.051 56.8609 16.9788 56.789C16.9067 56.7171 16.8506 56.6309 16.8142 56.5359C16.7777 56.441 16.7618 56.3394 16.7673 56.2379L16.7192 38.6884C16.7191 38.584 16.7403 38.4806 16.7816 38.3847C16.823 38.2887 16.8835 38.2022 16.9596 38.1304C17.0357 38.0586 17.1256 38.003 17.224 37.9671C17.3224 37.9312 17.4271 37.9158 17.5316 37.9216H29.0688C29.8571 37.9216 29.8571 38.4009 29.8571 38.8801V40.1884C29.8571 41.0462 29.7369 41.1181 28.8957 41.1181H19.9496V45.3402H27.915C28.0181 45.338 28.1204 45.3571 28.2157 45.3962C28.311 45.4352 28.3972 45.4935 28.4689 45.5672C28.5406 45.641 28.5963 45.7286 28.6325 45.8248C28.6687 45.921 28.6847 46.0235 28.6794 46.1261V47.7459C28.6854 47.8489 28.6699 47.952 28.634 48.0487C28.5981 48.1454 28.5425 48.2337 28.4707 48.308C28.3989 48.3822 28.3125 48.4409 28.2169 48.4802C28.1212 48.5196 28.0185 48.5388 27.915 48.5366H19.9496V53.8513H29.2322C30.0686 53.8513 30.1936 53.9232 30.1936 54.781V56.0702C30.1936 56.5494 30.1936 57.0286 29.4004 57.0286L17.5316 56.9999Z" fill="white"/>
<path d="M46.5958 57.0002H44.8749C44.3942 57.0002 44.274 56.7415 44.1058 56.382L41.9329 50.1089L36.0538 52.7159L34.7367 56.3868C34.5684 56.7654 34.5203 57.005 33.9483 57.005H32.2898C32.0848 57.0051 31.8879 56.9256 31.7407 56.7834C31.5935 56.6411 31.5077 56.4473 31.5015 56.2431C31.5015 56.1472 36.9816 40.0498 37.6017 38.5498C37.77 38.1903 37.8901 37.9268 38.366 37.9268H40.4716C40.9523 37.9268 41.0484 38.2383 41.2119 38.5498L47.3361 55.9555C47.3454 56.0511 47.3454 56.1474 47.3361 56.2431C47.3489 56.3439 47.3388 56.4463 47.3064 56.5426C47.274 56.639 47.2202 56.7268 47.1491 56.7996C47.0779 56.8723 46.9913 56.9282 46.8955 56.9629C46.7997 56.9977 46.6973 57.0104 46.5958 57.0002ZM40.784 46.9363C40.4956 46.1744 40.3033 45.6999 40.2312 45.4363C40.1591 45.1728 40.0678 44.9571 39.9957 44.6983C39.8274 44.2191 39.6832 43.7399 39.4188 42.9779L37.496 48.4028L40.784 46.9363Z" fill="white"/>
<path d="M56.6424 37.9219C58.6548 37.9257 60.584 38.723 62.0089 40.1398C63.4337 41.5567 64.2384 43.4779 64.2472 45.4842V49.4426C64.2384 51.4484 63.4335 53.3692 62.0086 54.7853C60.5836 56.2014 58.6544 56.9976 56.6424 57.0002H49.8739C49.7721 57.0057 49.6702 56.9898 49.575 56.9534C49.4797 56.9171 49.3932 56.8612 49.3211 56.7893C49.249 56.7174 49.1929 56.6311 49.1565 56.5362C49.12 56.4412 49.104 56.3397 49.1096 56.2382L49.0615 38.6887C49.0726 38.4814 49.1631 38.2863 49.3142 38.1436C49.4654 38.001 49.6658 37.9216 49.8739 37.9219H56.6424ZM52.2631 41.0944V53.8276H56.6424C57.8089 53.819 58.9257 53.3551 59.7532 52.5354C60.5808 51.7158 61.0534 50.6055 61.0697 49.4426V45.4842C61.0547 44.3205 60.5826 43.209 59.7549 42.3883C58.9272 41.5676 57.8097 41.1031 56.6424 41.0944H52.2631Z" fill="white"/>
<path d="M78.3561 38.2332C78.4303 38.1334 78.5277 38.053 78.6398 37.9988C78.752 37.9445 78.8756 37.9181 79.0002 37.9217H81.1538C81.258 37.9084 81.3638 37.9191 81.4632 37.953C81.5626 37.9868 81.6529 38.0429 81.7272 38.1169C81.8014 38.191 81.8577 38.281 81.8916 38.3801C81.9256 38.4791 81.9363 38.5847 81.9229 38.6885C81.8964 38.9274 81.7956 39.1519 81.6345 39.3307C81.6345 39.3547 81.6105 39.3547 81.6105 39.3786L75.4622 48.1294V56.0703C75.4622 56.5495 75.4622 57 74.6738 57H73.0442C72.3039 57 72.2798 56.5495 72.2798 56.0703V48.1054L65.9248 39.115C65.8451 38.9791 65.8114 38.8211 65.8287 38.6646C65.8123 38.5637 65.8201 38.4605 65.8514 38.3632C65.8827 38.266 65.9367 38.1775 66.0089 38.105C66.0811 38.0326 66.1695 37.9782 66.2669 37.9463C66.3642 37.9145 66.4677 37.9061 66.569 37.9217H68.6985C68.8354 37.9161 68.9713 37.9464 69.0927 38.0094C69.2142 38.0725 69.3169 38.1662 69.3908 38.2812L73.8662 44.885C76.3515 41.0511 77.8369 38.8563 78.3849 38.1757L78.3561 38.2332Z" fill="white"/>
<path d="M60.2622 8.00782C60.3683 8.11267 60.4964 8.19285 60.6372 8.24264C60.7764 8.29623 60.9257 8.31912 61.0746 8.30973H62.2524V10.7059C62.6225 10.7059 62.9927 10.6724 63.3628 10.6724C63.733 10.6724 64.0406 10.6724 64.3819 10.7059V8.30973H65.5501C65.6982 8.31676 65.8462 8.29361 65.9851 8.2417C66.1239 8.18979 66.2507 8.11021 66.3577 8.00782C66.4673 7.90563 66.5542 7.78152 66.6124 7.6436C66.6697 7.50697 66.6991 7.36036 66.699 7.21229C66.6995 7.06418 66.6701 6.91749 66.6124 6.78098C66.5542 6.64306 66.4673 6.51895 66.3577 6.41676C66.2507 6.31437 66.1239 6.23479 65.9851 6.18288C65.8462 6.13097 65.6982 6.10782 65.5501 6.11485H61.0746C60.9257 6.10546 60.7764 6.12835 60.6372 6.18194C60.4964 6.23173 60.3683 6.31191 60.2622 6.41676C60.1525 6.51895 60.0657 6.64306 60.0074 6.78098C59.9498 6.91749 59.9204 7.06418 59.9209 7.21229C59.9208 7.36036 59.9502 7.50697 60.0074 7.6436C60.0657 7.78152 60.1525 7.90563 60.2622 8.00782Z" fill="#ABA765"/>
<path d="M70.2079 4.16941C70.4513 4.16927 70.6848 4.07273 70.8568 3.90104L73.2075 1.55759C73.379 1.38664 73.4753 1.15478 73.4753 0.913023C73.4753 0.671262 73.379 0.439404 73.2075 0.268454C73.0361 0.0975037 72.8035 0.00146485 72.561 0.00146484C72.3185 0.00146484 72.0859 0.0975037 71.9144 0.268454L69.5637 2.6119C69.4374 2.73986 69.3515 2.90206 69.3169 3.07829C69.2823 3.25453 69.3005 3.43702 69.3691 3.60304C69.4378 3.76906 69.5539 3.91128 69.7031 4.01199C69.8522 4.1127 70.0278 4.16744 70.2079 4.16941Z" fill="#ABA765"/>
<path d="M71.2944 9.68545C71.2957 9.92738 71.393 10.159 71.5651 10.3296C71.7371 10.5002 71.9699 10.596 72.2126 10.596H75.5343C75.7766 10.596 76.0089 10.5001 76.1802 10.3293C76.3515 10.1585 76.4477 9.92694 76.4477 9.68545C76.4477 9.44395 76.3515 9.21235 76.1802 9.04159C76.0089 8.87083 75.7766 8.7749 75.5343 8.7749H72.2126C71.9699 8.7749 71.7371 8.87068 71.5651 9.0413C71.393 9.21193 71.2957 9.44351 71.2944 9.68545Z" fill="#ABA765"/>
<path d="M51.1476 10.6007H54.4694C54.5952 10.6098 54.7216 10.593 54.8406 10.5512C54.9596 10.5095 55.0687 10.4437 55.1611 10.358C55.2535 10.2724 55.3272 10.1686 55.3775 10.0533C55.4279 9.93801 55.4539 9.81358 55.4539 9.6878C55.4539 9.56202 55.4279 9.43759 55.3775 9.32227C55.3272 9.20695 55.2535 9.10323 55.1611 9.01756C55.0687 8.9319 54.9596 8.86614 54.8406 8.82438C54.7216 8.78262 54.5952 8.76576 54.4694 8.77486H51.1476C51.0218 8.76576 50.8954 8.78262 50.7764 8.82438C50.6574 8.86614 50.5483 8.9319 50.4559 9.01756C50.3635 9.10323 50.2899 9.20695 50.2395 9.32227C50.1891 9.43759 50.1631 9.56202 50.1631 9.6878C50.1631 9.81358 50.1891 9.93801 50.2395 10.0533C50.2899 10.1686 50.3635 10.2724 50.4559 10.358C50.5483 10.4437 50.6574 10.5095 50.7764 10.5512C50.8954 10.593 51.0218 10.6098 51.1476 10.6007Z" fill="#ABA765"/>
<path d="M55.7626 3.90104C55.9347 4.07273 56.1681 4.16927 56.4116 4.16941C56.5917 4.16744 56.7673 4.11269 56.9164 4.01199C57.0656 3.91128 57.1817 3.76906 57.2504 3.60304C57.319 3.43702 57.3372 3.25453 57.3026 3.07829C57.268 2.90206 57.1821 2.73986 57.0557 2.6119L54.7099 0.268454C54.625 0.183808 54.5242 0.116663 54.4132 0.0708531C54.3023 0.025043 54.1834 0.00146485 54.0633 0.00146484C53.9432 0.00146484 53.8243 0.025043 53.7134 0.070853C53.6024 0.116663 53.5016 0.183808 53.4167 0.268454C53.3318 0.3531 53.2645 0.453589 53.2185 0.564185C53.1726 0.67478 53.1489 0.793315 53.1489 0.913023C53.1489 1.03273 53.1726 1.15127 53.2185 1.26186C53.2645 1.37246 53.3318 1.47295 53.4167 1.55759L55.7626 3.90104Z" fill="#ABA765"/>
<path d="M81.0913 31.1839H64.8529V29.0752H80.8558C80.8221 28.5241 80.7645 27.973 80.6779 27.4267C80.5914 26.8803 80.4808 26.3388 80.3462 25.8069C80.2116 25.2749 80.0482 24.743 79.8655 24.2206C79.6828 23.6982 79.4665 23.1902 79.2358 22.6871C79.005 22.1839 78.7551 21.6998 78.4618 21.2254C78.1686 20.7509 77.8754 20.2669 77.5533 19.8356C77.2312 19.4043 76.8851 18.9586 76.5198 18.5417C76.1544 18.1248 75.7698 17.727 75.366 17.3484C74.9622 16.9698 74.544 16.6104 74.1066 16.2701C73.6691 15.9299 73.2173 15.6136 72.751 15.3117C72.2847 15.0097 71.7895 14.7366 71.3088 14.4874C70.8281 14.2382 70.3089 14.0081 69.7946 13.8021C69.2802 13.596 68.761 13.4187 68.2275 13.2605C67.6939 13.1024 67.1603 12.9778 66.6171 12.8724C66.0739 12.7669 65.5259 12.6855 64.973 12.6327C64.4202 12.58 63.8674 12.5513 63.3146 12.5513C62.7618 12.5513 62.2041 12.5752 61.6513 12.6279C61.0981 12.676 60.5477 12.7528 60.0025 12.858C59.4593 12.9586 58.9209 13.088 58.3873 13.2414C57.8529 13.3936 57.3267 13.5728 56.8105 13.7781C56.2962 13.9794 55.7866 14.2094 55.2915 14.4586C54.7971 14.709 54.3158 14.9841 53.8493 15.2829C53.3686 15.58 52.9264 15.8963 52.4841 16.2414C52.0419 16.5864 51.6236 16.941 51.2198 17.3196C50.816 17.6982 50.4315 18.096 50.0613 18.5129C49.6912 18.9299 49.3499 19.3612 49.023 19.8117C48.3729 20.7162 47.808 21.6788 47.3357 22.6871C47.1001 23.1663 46.8886 23.6982 46.7011 24.2206C46.5137 24.743 46.355 25.2701 46.2204 25.8117C46.0858 26.3532 45.9704 26.8899 45.8839 27.4363C45.7974 27.9826 45.7397 28.5337 45.7109 29.0896H61.3629V31.1982H45.5282C45.4085 31.1982 45.2899 31.2218 45.1794 31.2676C45.0688 31.3135 44.9685 31.3806 44.884 31.4652C44.7996 31.5498 44.7328 31.6502 44.6874 31.7607C44.642 31.8711 44.619 31.9894 44.6196 32.1088V33.5465C44.6196 33.7867 44.7154 34.0171 44.8857 34.1869C45.0561 34.3568 45.2872 34.4522 45.5282 34.4522H81.101C81.3428 34.451 81.5744 34.3546 81.7454 34.1841C81.9164 34.0137 82.013 33.7828 82.0143 33.5417V32.1088C82.0169 31.987 81.9948 31.866 81.9494 31.7529C81.904 31.6398 81.8362 31.537 81.7501 31.4507C81.6639 31.3643 81.5612 31.2962 81.448 31.2504C81.3348 31.2045 81.2135 31.1819 81.0913 31.1839ZM56.9788 17.497C54.1797 18.785 51.9767 21.0858 50.816 23.9331C50.7571 24.1024 50.6468 24.2492 50.5003 24.3531C50.3539 24.457 50.1786 24.5129 49.9988 24.5129C49.9022 24.5138 49.8062 24.4976 49.7152 24.465C49.4988 24.3909 49.3206 24.2343 49.2197 24.0295C49.1188 23.8247 49.1034 23.5884 49.1768 23.3724C50.4913 20.035 53.069 17.3465 56.3538 15.8867C56.4698 15.8372 56.5953 15.8136 56.7214 15.8175C56.8475 15.8215 56.9712 15.8528 57.0839 15.9094C57.1965 15.9661 57.2954 16.0465 57.3736 16.1453C57.4518 16.244 57.5073 16.3586 57.5364 16.481C57.5771 16.6886 57.5436 16.9039 57.4417 17.0894C57.3399 17.275 57.1761 17.4192 56.9788 17.497Z" fill="#ABA765"/>
</g>
<defs>
<clipPath id="clip0">
<rect width="82" height="57" fill="white"/>
</clipPath>
</defs>
</svg>
