<svg width="31" height="30" viewBox="0 0 31 30" fill="none" xmlns="http://www.w3.org/2000/svg">
<g clip-path="url(#clip0)">
<path d="M29.5909 19.0911H1.40911C0.634107 19.0911 0 18.4774 0 17.7274V2.72742C0 1.97742 0.634107 1.36377 1.40911 1.36377H29.591C30.366 1.36377 31.0001 1.97742 31.0001 2.72742V17.7274C31 18.4774 30.3659 19.0911 29.5909 19.0911Z" fill="#0E9347"/>
<path d="M26.0675 13.6362C24.447 13.6362 22.9675 14.3862 22.122 15.6135C21.4175 15.2726 20.6425 14.9999 19.7266 14.9999C17.2607 14.9999 15.2175 16.7726 14.8652 19.0908H29.5902C30.2948 19.0908 30.8584 18.6135 30.9994 17.9317C30.7175 15.5453 28.6039 13.6362 26.0675 13.6362Z" fill="#0D8944"/>
<path d="M26.7718 17.7275H4.22636C4.22636 16.2275 2.9582 15.0002 1.4082 15.0002V5.45478C2.9582 5.45478 4.22636 4.22754 4.22636 2.72754H26.7718C26.7718 4.22754 28.04 5.45478 29.59 5.45478V15.0002C28.04 15.0002 26.7718 16.2275 26.7718 17.7275Z" fill="#3BB54A"/>
<path d="M26.0686 13.6362C24.4481 13.6362 22.9686 14.3862 22.1231 15.6135C21.4186 15.2726 20.6436 14.9999 19.7277 14.9999C17.755 14.9999 16.0641 16.0908 15.2891 17.7271H26.7732C26.7732 16.2271 27.9709 15.068 29.5209 14.9999C28.605 14.1817 27.4073 13.6362 26.0686 13.6362Z" fill="#0E9347"/>
<path d="M15.4997 16.3635C18.6125 16.3635 21.136 13.6162 21.136 10.2272C21.136 6.83816 18.6125 4.09082 15.4997 4.09082C12.3868 4.09082 9.86328 6.83816 9.86328 10.2272C9.86328 13.6162 12.3868 16.3635 15.4997 16.3635Z" fill="#0E9347"/>
<path d="M7.04583 11.5906C7.82405 11.5906 8.45493 10.9801 8.45493 10.2269C8.45493 9.47381 7.82405 8.86328 7.04583 8.86328C6.2676 8.86328 5.63672 9.47381 5.63672 10.2269C5.63672 10.9801 6.2676 11.5906 7.04583 11.5906Z" fill="#0E9347"/>
<path d="M23.954 11.5906C24.7323 11.5906 25.3631 10.9801 25.3631 10.2269C25.3631 9.47381 24.7323 8.86328 23.954 8.86328C23.1758 8.86328 22.5449 9.47381 22.5449 10.2269C22.5449 10.9801 23.1758 11.5906 23.954 11.5906Z" fill="#0E9347"/>
<path d="M16.2043 9.54521H14.7952C14.3725 9.54521 14.0907 9.27246 14.0907 8.86342C14.0907 8.45432 14.3725 8.18162 14.7952 8.18162H16.9088C17.3316 8.18162 17.6134 7.90887 17.6134 7.49982C17.6134 7.09072 17.3315 6.81803 16.9088 6.81803H16.2043C16.2043 6.40893 15.9225 6.13623 15.4998 6.13623C15.0771 6.13623 14.7953 6.40898 14.7953 6.81803C13.5975 6.81803 12.6816 7.70438 12.6816 8.86348C12.6816 10.0226 13.5975 10.9089 14.7953 10.9089H16.2044C16.6271 10.9089 16.9089 11.1817 16.9089 11.5907C16.9089 11.9998 16.6271 12.2725 16.2044 12.2725H14.0907C13.668 12.2725 13.3862 12.5453 13.3862 12.9543C13.3862 13.3634 13.6681 13.6361 14.0907 13.6361H14.7953C14.7953 14.0452 15.0771 14.3179 15.4998 14.3179C15.9225 14.3179 16.2043 14.0452 16.2043 13.6361C17.4021 13.6361 18.318 12.7498 18.318 11.5907C18.318 10.4316 17.4021 9.54521 16.2043 9.54521Z" fill="#89C763"/>
<path d="M18.3186 24.5455C21.0423 24.5455 23.2504 22.4087 23.2504 19.7728C23.2504 17.1368 21.0423 15 18.3186 15C15.5948 15 13.3867 17.1368 13.3867 19.7728C13.3867 22.4087 15.5948 24.5455 18.3186 24.5455Z" fill="#FFCA5D"/>
<path d="M24.6584 23.1818C27.3822 23.1818 29.5903 21.0449 29.5903 18.409C29.5903 15.7731 27.3822 13.6362 24.6584 13.6362C21.9346 13.6362 19.7266 15.7731 19.7266 18.409C19.7266 21.0449 21.9346 23.1818 24.6584 23.1818Z" fill="#F6B545"/>
<path d="M24.6584 13.6362C21.9107 13.6362 19.7266 15.7499 19.7266 18.409C19.7266 21.0681 21.9107 23.1818 24.6584 23.1818C27.4061 23.1818 29.5903 21.0681 29.5903 18.409C29.5903 15.7499 27.4061 13.6362 24.6584 13.6362ZM24.6584 21.8181C22.6857 21.8181 21.1357 20.3181 21.1357 18.409C21.1357 16.4999 22.6857 14.9999 24.6584 14.9999C26.6311 14.9999 28.1811 16.4999 28.1811 18.409C28.1811 20.3181 26.6311 21.8181 24.6584 21.8181Z" fill="#FFCB5B"/>
<path d="M24.6582 23.1137C27.4059 23.1819 29.59 21.0001 29.59 18.4092H29.5196C29.1673 18.4092 28.8855 18.6819 28.8151 19.0228C28.6742 19.9774 28.1809 20.8637 27.4764 21.4774C26.9128 22.0228 26.1378 22.3637 25.2923 22.5001C24.94 22.5001 24.6582 22.7728 24.6582 23.1137Z" fill="#F6B545"/>
<path d="M24.6584 13.7047C21.9107 13.6365 19.7266 15.8183 19.7266 18.4092H19.797C20.1493 18.4092 20.4311 18.1365 20.5016 17.7956C20.6425 16.841 21.1357 15.9547 21.8402 15.341C22.4038 14.7956 23.1788 14.4547 24.0243 14.3183C24.3766 14.3183 24.6584 14.0456 24.6584 13.7047Z" fill="#FFE27A"/>
<path d="M21.6299 18.8863C21.6299 16.9772 23.1799 15.4772 25.1526 15.4772C25.9981 15.4772 26.7731 15.75 27.4071 16.2954C26.7026 15.4772 25.7867 15 24.6595 15C22.6867 15 21.1367 16.5 21.1367 18.4091C21.1367 19.5 21.6299 20.3863 22.4049 21C21.9117 20.4546 21.6299 19.7046 21.6299 18.8863Z" fill="#F19920"/>
<path d="M26.7721 20.5224C26.7016 20.5224 26.6312 20.5224 26.5607 20.4542C26.4199 20.3179 26.4199 20.1133 26.5607 19.977C26.9835 19.5679 27.1949 18.9542 27.1949 18.4088C27.1949 18.2042 27.3358 18.0679 27.5471 18.0679C27.7585 18.0679 27.8994 18.2042 27.8994 18.4088C27.8994 19.1588 27.6175 19.9088 27.1244 20.4542C26.9835 20.5224 26.8425 20.5224 26.7721 20.5224Z" fill="#FFCB5B"/>
<path d="M24.6576 20.4546C24.2349 20.4546 23.9531 20.1819 23.9531 19.7728V17.0456C23.9531 16.6365 24.235 16.3638 24.6576 16.3638C25.0803 16.3638 25.3622 16.6365 25.3622 17.0456V19.7728C25.3622 20.1819 25.0804 20.4546 24.6576 20.4546Z" fill="#F19920"/>
<path d="M27.2651 22.4318C26.7719 20.7272 25.5037 19.3636 23.8832 18.75C23.6014 17.1818 22.5446 15.8182 21.206 15C20.3605 15.8863 19.7969 17.0454 19.7969 18.3409C19.7969 21 21.981 23.1137 24.7287 23.1137C25.6447 23.1818 26.4901 22.9091 27.2651 22.4318Z" fill="#F19920"/>
<path d="M22.4049 20.9998C21.9118 20.3862 21.5595 19.6362 21.5595 18.818C21.5595 17.8635 21.9822 16.9771 22.6867 16.3635C22.5458 16.1589 22.4049 16.0226 22.264 15.8862C21.5595 16.4999 21.1367 17.3862 21.1367 18.409C21.1368 19.4998 21.6299 20.3862 22.4049 20.9998Z" fill="#E78825"/>
<path d="M23.9551 18.8179V19.7724C23.9551 20.1815 24.2369 20.4542 24.6596 20.4542C25.0823 20.4542 25.3641 20.1815 25.3641 19.7724V19.6361C24.9414 19.2951 24.4483 19.0224 23.9551 18.8179Z" fill="#E78825"/>
<path d="M27.2652 22.4316C27.1243 21.9543 26.9833 21.5452 26.7016 21.1361C26.1379 21.5452 25.4334 21.8179 24.6584 21.8179C22.6857 21.8179 21.1357 20.3179 21.1357 18.4088C21.1357 17.3861 21.5584 16.4997 22.2629 15.8861C21.9107 15.5452 21.5584 15.2724 21.1357 15.0679C20.2902 15.9542 19.7266 17.1133 19.7266 18.4088C19.7266 21.0679 21.9107 23.1815 24.6584 23.1815C25.6448 23.1816 26.4902 22.9089 27.2652 22.4316Z" fill="#F6B545"/>
<path d="M27.0537 21.8179C26.5605 22.1588 25.9264 22.3633 25.2923 22.4997C24.94 22.5679 24.6582 22.8406 24.6582 23.1815C25.6446 23.1815 26.49 22.9087 27.265 22.4315C27.1946 22.2269 27.1242 22.0224 27.0537 21.8179Z" fill="#F19920"/>
<path d="M21.1357 15.0684C20.2902 15.9547 19.7266 17.1138 19.7266 18.4093H19.797C20.1493 18.4093 20.4311 18.1365 20.5016 17.7956C20.6425 16.8411 21.1357 16.0229 21.7697 15.4093C21.5584 15.3411 21.347 15.2047 21.1357 15.0684Z" fill="#FFCB5B"/>
<path d="M18.3186 24.5455C21.0423 24.5455 23.2504 22.4087 23.2504 19.7728C23.2504 17.1368 21.0423 15 18.3186 15C15.5948 15 13.3867 17.1368 13.3867 19.7728C13.3867 22.4087 15.5948 24.5455 18.3186 24.5455Z" fill="#F6B545"/>
<path d="M17.6133 23.1814C17.6133 23.6587 17.6838 24.0678 17.8247 24.5451C17.9655 24.5451 18.1769 24.5451 18.3178 24.5451C21.0655 24.5451 23.2497 22.4314 23.2497 19.7723C23.2497 19.2951 23.1792 18.886 23.0383 18.4087C22.8974 18.4087 22.686 18.4087 22.5451 18.4087C19.7974 18.4088 17.6133 20.5224 17.6133 23.1814Z" fill="#F19920"/>
<path d="M18.3186 15C15.5708 15 13.3867 17.1137 13.3867 19.7728C13.3867 22.4319 15.5708 24.5455 18.3186 24.5455C21.0663 24.5455 23.2504 22.4318 23.2504 19.7728C23.2504 17.1137 21.0663 15 18.3186 15ZM18.3186 23.1818C16.3458 23.1818 14.7958 21.6818 14.7958 19.7727C14.7958 17.8636 16.3458 16.3636 18.3186 16.3636C20.2913 16.3636 21.8413 17.8636 21.8413 19.7727C21.8413 21.6818 20.2913 23.1818 18.3186 23.1818Z" fill="#FFCB5B"/>
<path d="M18.3184 24.4769C21.0661 24.5452 23.2502 22.3634 23.2502 19.7725H23.1797C22.8275 19.7725 22.5456 20.0452 22.4752 20.3861C22.3343 21.3407 21.8411 22.227 21.1366 22.8407C20.5729 23.3861 19.7979 23.727 18.9525 23.8634C18.6002 23.8634 18.3184 24.136 18.3184 24.4769Z" fill="#F6B545"/>
<path d="M18.3186 15.0685C15.5708 15.0002 13.3867 17.1821 13.3867 19.773H13.4572C13.8095 19.773 14.0913 19.5002 14.1617 19.1593C14.3026 18.2048 14.7958 17.3184 15.5003 16.7048C16.064 16.1593 16.839 15.8184 17.6845 15.682C18.0368 15.682 18.3186 15.4093 18.3186 15.0685Z" fill="#FFE27A"/>
<path d="M15.2881 20.2501C15.2881 18.341 16.8381 16.841 18.8109 16.841C19.6564 16.841 20.4314 17.1138 21.0654 17.6592C20.3609 16.841 19.4449 16.3638 18.3177 16.3638C16.3449 16.3638 14.7949 17.8638 14.7949 19.7729C14.7949 20.8638 15.2881 21.7501 16.0631 22.3638C15.57 21.8183 15.2881 21.0683 15.2881 20.2501Z" fill="#F19920"/>
<path d="M20.4323 21.8867C20.3618 21.8867 20.2914 21.8867 20.2209 21.8185C20.08 21.6821 20.08 21.4776 20.2209 21.3412C20.6436 20.9321 20.855 20.3185 20.855 19.773C20.855 19.5685 20.9959 19.4321 21.2073 19.4321C21.4187 19.4321 21.5595 19.5685 21.5595 19.773C21.5595 20.523 21.2777 21.273 20.7845 21.8185C20.6436 21.8867 20.5027 21.8867 20.4323 21.8867Z" fill="#FFCB5B"/>
<path d="M18.3178 21.8184C17.8951 21.8184 17.6133 21.5456 17.6133 21.1366V18.4093C17.6133 18.0002 17.8951 17.7275 18.3178 17.7275C18.7405 17.7275 19.0223 18.0003 19.0223 18.4093V21.1366C19.0224 21.5456 18.7405 21.8184 18.3178 21.8184Z" fill="#F19920"/>
<path d="M21.5587 18.4769C21.6996 18.886 21.8405 19.2951 21.8405 19.7723C21.8405 21.6814 20.2905 23.1814 18.3178 23.1814C18.1064 23.1814 17.8247 23.1814 17.6133 23.1132V23.1814C17.6133 23.6587 17.6838 24.0678 17.8247 24.5451C17.9655 24.5451 18.1769 24.5451 18.3178 24.5451C21.0655 24.5451 23.2497 22.4314 23.2497 19.7723C23.2497 19.2951 23.1792 18.886 23.0383 18.4087C22.8974 18.4087 22.686 18.4087 22.5451 18.4087C22.1927 18.4088 21.911 18.4088 21.5587 18.4769Z" fill="#F6B545"/>
<path d="M21.84 28.6358C24.5638 28.6358 26.7719 26.499 26.7719 23.8631C26.7719 21.2272 24.5638 19.0903 21.84 19.0903C19.1163 19.0903 16.9082 21.2272 16.9082 23.8631C16.9082 26.499 19.1163 28.6358 21.84 28.6358Z" fill="#F6B545"/>
<path d="M21.84 19.0908C19.0923 19.0908 16.9082 21.2045 16.9082 23.8636C16.9082 26.5227 19.0923 28.6363 21.84 28.6363C24.5878 28.6363 26.7719 26.5227 26.7719 23.8636C26.7719 21.2045 24.5878 19.0908 21.84 19.0908ZM21.84 27.2727C19.8673 27.2727 18.3173 25.7727 18.3173 23.8636C18.3173 21.9545 19.8673 20.4545 21.84 20.4545C23.8128 20.4545 25.3628 21.9545 25.3628 23.8636C25.3628 25.7727 23.8128 27.2727 21.84 27.2727Z" fill="#FFCB5B"/>
<path d="M21.8418 28.5683C24.5895 28.6365 26.7736 26.4547 26.7736 23.8638H26.7032C26.3509 23.8638 26.0691 24.1365 25.9986 24.4774C25.8577 25.432 25.3645 26.3183 24.66 26.932C24.0964 27.4774 23.3214 27.8183 22.4759 27.9547C22.1236 27.9547 21.8418 28.2274 21.8418 28.5683Z" fill="#F6B545"/>
<path d="M21.84 19.1588C19.0923 19.0906 16.9082 21.2724 16.9082 23.8633H16.9787C17.3309 23.8633 17.6128 23.5906 17.6832 23.2497C17.8241 22.2951 18.3173 21.4088 19.0218 20.7951C19.5855 20.2497 20.3605 19.9088 21.2059 19.7724C21.5583 19.7724 21.84 19.4997 21.84 19.1588Z" fill="#FFE27A"/>
<path d="M18.8116 24.3409C18.8116 22.4318 20.3616 20.9318 22.3343 20.9318C23.1798 20.9318 23.9548 21.2046 24.5888 21.75C23.8843 20.9318 22.9684 20.4546 21.8411 20.4546C19.8684 20.4546 18.3184 21.9546 18.3184 23.8637C18.3184 24.9546 18.8115 25.8409 19.5865 26.4546C19.0934 25.9091 18.8116 25.1591 18.8116 24.3409Z" fill="#F19920"/>
<path d="M23.9538 25.977C23.8833 25.977 23.8129 25.977 23.7424 25.9088C23.6015 25.7725 23.6015 25.5679 23.7424 25.4316C24.1651 25.0225 24.3765 24.4088 24.3765 23.8634C24.3765 23.6588 24.5174 23.5225 24.7288 23.5225C24.9401 23.5225 25.081 23.6588 25.081 23.8634C25.081 24.6134 24.7992 25.3634 24.306 25.9088C24.1651 25.977 24.0242 25.977 23.9538 25.977Z" fill="#FFCB5B"/>
<path d="M21.8412 25.9088C21.4185 25.9088 21.1367 25.636 21.1367 25.227V22.4997C21.1367 22.0906 21.4186 21.8179 21.8412 21.8179C22.264 21.8179 22.5458 22.0906 22.5458 22.4997V25.2269C22.5458 25.636 22.264 25.9088 21.8412 25.9088Z" fill="#F19920"/>
</g>
<defs>
<clipPath id="clip0">
<rect width="31" height="30" fill="white"/>
</clipPath>
</defs>
</svg>
