<svg width="25" height="21" viewBox="0 0 25 21" fill="none" xmlns="http://www.w3.org/2000/svg">
<path d="M18.8889 20V18.4167C18.8889 17.5768 18.4177 16.7714 17.579 16.1775C16.7403 15.5836 15.6028 15.25 14.4167 15.25H5.47222C4.28612 15.25 3.14859 15.5836 2.30988 16.1775C1.47118 16.7714 1 17.5768 1 18.4167V20" stroke="#4D4D4D" stroke-width="2" stroke-linecap="round" stroke-linejoin="round"/>
<path d="M9.94466 8.125C12.0618 8.125 13.778 6.53001 13.778 4.5625C13.778 2.59499 12.0618 1 9.94466 1C7.82757 1 6.11133 2.59499 6.11133 4.5625C6.11133 6.53001 7.82757 8.125 9.94466 8.125Z" stroke="#4D4D4D" stroke-width="2" stroke-linecap="round" stroke-linejoin="round"/>
<path d="M23.9999 20V18.3816C23.9993 17.6644 23.748 16.9677 23.2855 16.4009C22.8229 15.8341 22.1753 15.4293 21.4443 15.25" stroke="#4D4D4D" stroke-width="2" stroke-linecap="round" stroke-linejoin="round"/>
<path d="M16.3335 1C17.0645 1.20253 17.7125 1.66258 18.1752 2.30761C18.6379 2.95264 18.8891 3.74596 18.8891 4.5625C18.8891 5.37904 18.6379 6.17236 18.1752 6.81739C17.7125 7.46242 17.0645 7.92247 16.3335 8.125" stroke="#4D4D4D" stroke-width="2" stroke-linecap="round" stroke-linejoin="round"/>
</svg>
