<svg width="1070" height="753" viewBox="0 0 1070 753" fill="none" xmlns="http://www.w3.org/2000/svg">
<path d="M1026.43 442.079L1030.73 444.64L1026.43 442.079ZM333.932 748.079L391.522 752.163L366.264 700.246L333.932 748.079ZM511.181 137.829L512.406 142.676L511.181 137.829ZM1022.14 439.518C968.662 529.195 898.339 557.45 794.813 584.643C691.185 611.862 554.872 637.853 372.288 723.858L376.549 732.905C558.086 647.393 693.263 621.656 797.353 594.315C901.545 566.947 975.168 537.81 1030.73 444.64L1022.14 439.518ZM5.50009 0.500088C0.501411 0.612574 0.501526 0.618242 0.50164 0.624911C0.501758 0.628476 0.501871 0.636168 0.502106 0.643296C0.502455 0.657562 0.503042 0.67584 0.503625 0.698092C0.505036 0.742596 0.507036 0.802997 0.509873 0.878982C0.515545 1.03095 0.524803 1.24527 0.53948 1.51945C0.568835 2.06777 0.619868 2.85572 0.707618 3.8632C0.882997 5.87781 1.20561 8.7725 1.79662 12.3861C2.97792 19.6104 5.23477 29.727 9.54288 41.4378C18.1658 64.8776 35.0135 94.7121 67.8505 120.444C133.593 171.96 261.916 205.957 512.406 142.676L509.957 132.981C260.696 195.951 136.179 161.283 74.0185 112.572C42.9039 88.1906 27.0344 60.0211 18.928 37.9853C14.8715 26.9583 12.7606 17.4692 11.6654 10.7722C11.1182 7.42514 10.8253 4.7803 10.6699 2.99554C10.5921 2.10334 10.5489 1.42665 10.5253 0.985245C10.5134 0.764563 10.5066 0.60276 10.5028 0.502309C10.5009 0.452087 10.4997 0.417209 10.4991 0.397985C10.4989 0.388374 10.4988 0.382677 10.4987 0.380933C10.4987 0.380056 10.4987 0.381734 10.4987 0.381288C10.4988 0.383944 10.4988 0.387601 5.50009 0.500088ZM512.406 142.676C761.788 79.6762 916.772 108.803 995.356 175.363C1073.44 241.502 1077.77 346.227 1022.14 439.518L1030.73 444.64C1088.1 348.43 1084.67 237.906 1001.82 167.732C919.466 97.9801 760.325 69.7315 509.957 132.981L512.406 142.676Z" fill="#8E8E8E" fill-opacity="0.09"/>
</svg>
