<svg width="21" height="12" viewBox="0 0 21 12" fill="none" xmlns="http://www.w3.org/2000/svg">
<g clip-path="url(#clip0)">
<path d="M9.4156 4.98942L8.68371 3.86905C8.56213 3.68315 8.34712 3.58887 8.04422 3.58887C7.16304 3.58887 5.42268 4.40303 3.61052 5.66297C2.5055 6.43137 1.53136 7.25807 0.867762 7.99106C0.0937143 8.84605 -0.158933 9.45105 0.0955551 9.84062L0.827449 10.961C0.950137 11.1487 1.16173 11.2425 1.46675 11.2425C1.79469 11.2425 2.23067 11.1339 2.77923 10.9165C3.68682 10.5569 4.79488 9.93575 5.90036 9.16745C7.00584 8.39914 7.97952 7.57235 8.64312 6.83927C9.41744 5.98399 9.67009 5.37899 9.4156 4.98942ZM7.91215 6.83699L7.47607 6.16951C7.5554 6.09185 7.6318 6.01488 7.70524 5.9386L8.13985 6.60389C8.06751 6.68061 7.99102 6.75847 7.91215 6.83699ZM6.33773 7.17329L6.7774 7.84617C6.63333 7.96251 6.48484 8.07876 6.33193 8.19491L5.8918 7.52079C6.04422 7.40572 6.19332 7.2895 6.33773 7.17329ZM6.74574 6.83499C6.86299 6.73486 6.97651 6.6351 7.08628 6.53572L7.52429 7.20633C7.41532 7.30596 7.30211 7.40619 7.18467 7.50702L6.74574 6.83499ZM8.07183 5.5366C8.12092 5.47875 8.16761 5.42203 8.21192 5.36645L8.63787 6.01836C8.59692 6.07343 8.55154 6.13229 8.5011 6.19401L8.07183 5.5366ZM8.93976 5.51761L8.53838 4.90331C8.57096 4.84874 8.60026 4.79564 8.62628 4.74399L8.98302 5.29012C8.99526 5.30873 8.99554 5.38136 8.93948 5.51723L8.93976 5.51761ZM1.24917 8.35822C1.88682 7.6541 2.82902 6.85503 3.90247 6.10913C5.86115 4.74721 7.42259 4.12683 8.04422 4.12683C8.1925 4.12683 8.24505 4.16092 8.25094 4.17003C8.27993 4.21437 8.24284 4.56425 7.52991 5.35155C6.89263 6.05567 5.95034 6.85446 4.87698 7.60074C2.91811 8.96284 1.35667 9.58303 0.734766 9.58303C0.586583 9.58303 0.534029 9.54904 0.528138 9.53992C0.499054 9.49558 0.536238 9.14561 1.24917 8.35822ZM3.48829 9.10098L3.92677 9.77207C3.79221 9.84638 3.65967 9.91702 3.52916 9.98399L3.09142 9.31414C3.22138 9.24692 3.35367 9.17587 3.48829 9.10098ZM3.94508 8.83741C4.10327 8.74316 4.26332 8.64455 4.42525 8.54156L4.8652 9.21492C4.70364 9.3174 4.54346 9.4158 4.38466 9.51011L3.94508 8.83741ZM1.82359 9.88106L2.25295 10.5383C2.1783 10.5633 2.10872 10.5847 2.04384 10.6031L1.6177 9.95094C1.6847 9.92961 1.75333 9.90632 1.82359 9.88106ZM1.26003 10.6596L0.902 10.1123C0.958052 10.1068 1.01696 10.0985 1.07807 10.088L1.48028 10.7035C1.33725 10.7061 1.27218 10.6786 1.26003 10.6599V10.6596ZM2.75686 10.3463L2.32299 9.68168C2.41859 9.64028 2.51633 9.59597 2.61623 9.54875L3.05166 10.2161C2.95152 10.2624 2.85323 10.3062 2.75686 10.3467V10.3463ZM5.60878 8.72091C5.50778 8.79117 5.40685 8.85995 5.30597 8.92723L4.86584 8.25311C4.96647 8.18564 5.06738 8.11677 5.16856 8.04651C5.26974 7.97625 5.36942 7.90555 5.46759 7.8344L5.90791 8.50852C5.8093 8.57973 5.70959 8.65053 5.60878 8.72091Z" fill="#B5B268"/>
<path d="M10.6527 3.87676C11.6001 4.10188 12.8556 4.22588 14.1882 4.22588C15.5208 4.22588 16.7763 4.10188 17.7237 3.87676C18.8289 3.61414 19.3661 3.25809 19.3661 2.78829V1.43749C19.3661 0.967695 18.8289 0.611455 17.7237 0.349118C16.7763 0.124 15.5207 0 14.1882 0C12.8557 0 11.6001 0.124 10.6527 0.349118C9.54755 0.61174 9.01074 0.967695 9.01074 1.43749V2.78829C9.01074 3.25809 9.54755 3.61414 10.6527 3.87676ZM9.53182 2.78829V2.12927C9.58124 2.15709 9.63452 2.18415 9.69103 2.21073V2.95132C9.57093 2.87118 9.53182 2.81042 9.53182 2.78829ZM13.3038 2.85618V3.66854C13.1143 3.66038 12.9282 3.64958 12.7453 3.63617V2.82466C12.9281 2.83776 13.1146 2.84839 13.3038 2.85618ZM12.2238 3.58955C12.0719 3.57347 11.9238 3.55562 11.7794 3.536V2.72762C11.924 2.74661 12.0722 2.76386 12.2238 2.77937V3.58955ZM11.2575 3.45358C11.1495 3.43393 11.044 3.41342 10.9425 3.39158V2.58929C11.0447 2.61017 11.1497 2.62995 11.2575 2.64863V3.45358ZM10.4209 3.25999C10.3455 3.23758 10.2761 3.21527 10.2123 3.19353V2.40708C10.279 2.42759 10.3486 2.44763 10.4209 2.46718V3.25999ZM13.8253 3.68392V2.87118C13.9456 2.87327 14.0666 2.87441 14.1882 2.8746C14.3098 2.87479 14.4307 2.87365 14.551 2.87118V3.68392C14.4309 3.68601 14.31 3.68744 14.1882 3.68744C14.0663 3.68744 13.9455 3.68639 13.8253 3.68392ZM17.9552 2.4668C18.0276 2.44725 18.0971 2.42721 18.1638 2.4067V3.19277C18.1 3.21486 18.0305 3.23701 17.9552 3.25923V2.4668ZM17.4336 3.3912C17.3324 3.41304 17.2265 3.43364 17.1186 3.4532V2.64901C17.2265 2.6304 17.3315 2.61062 17.4336 2.58967V3.3912ZM16.5971 3.53562C16.4527 3.55537 16.3045 3.57322 16.1526 3.58917V2.77937C16.304 2.76392 16.4522 2.74668 16.5971 2.72762V3.53562ZM15.6307 3.63579C15.4482 3.64914 15.262 3.65993 15.0723 3.66816V2.85618C15.2614 2.84811 15.448 2.83776 15.6307 2.82466V3.63579ZM18.685 2.95113V2.21054C18.7417 2.18396 18.7947 2.1568 18.8443 2.12908V2.7881C18.8445 2.81042 18.8054 2.87118 18.6853 2.95151L18.685 2.95113ZM10.7698 0.873508C11.6796 0.657125 12.8944 0.538062 14.1882 0.538062C15.4819 0.538062 16.6965 0.657125 17.6064 0.873508C18.624 1.11534 18.8443 1.38403 18.8443 1.43758C18.8443 1.49113 18.624 1.75983 17.6063 2.00166C16.6963 2.21795 15.4822 2.33701 14.1879 2.33701C12.8936 2.33701 11.6796 2.21785 10.7698 2.00157C9.75214 1.75974 9.53182 1.49104 9.53182 1.43749C9.53182 1.38394 9.75214 1.11524 10.7698 0.873508Z" fill="#B5B268"/>
<path d="M19.9339 3.13686C19.8685 3.11568 19.7976 3.12192 19.7366 3.15424C19.6757 3.18656 19.6295 3.24236 19.608 3.30956C19.5866 3.37675 19.5917 3.44994 19.6222 3.51329C19.6527 3.57664 19.7062 3.62505 19.771 3.64805C20.353 3.84544 20.479 4.02784 20.479 4.06221C20.479 4.11566 20.2586 4.38446 19.2409 4.62628C18.3308 4.84257 17.1167 4.96163 15.8223 4.96163C14.2987 4.96163 13.2379 4.85662 12.383 4.62135C12.3811 4.62078 12.3792 4.62049 12.3772 4.62002C12.3723 4.61878 12.3672 4.61764 12.3622 4.61669C12.3573 4.61574 12.3538 4.61527 12.3495 4.6147C12.3453 4.61413 12.3415 4.61366 12.3375 4.61337C12.3334 4.61309 12.3269 4.61261 12.3215 4.61252C12.3196 4.61252 12.3178 4.61252 12.3158 4.61252H12.3119C12.3063 4.61252 12.3007 4.61252 12.2951 4.61337L12.2854 4.61432C12.2804 4.61489 12.2754 4.61574 12.2706 4.6166C12.2657 4.61745 12.2629 4.61802 12.2591 4.61888C12.2554 4.61973 12.251 4.62097 12.247 4.62211C12.2429 4.62325 12.2383 4.62457 12.2339 4.62609C12.2296 4.62761 12.2274 4.62847 12.2242 4.6298C12.2194 4.6316 12.215 4.6335 12.2101 4.63559C12.2071 4.63692 12.2044 4.63834 12.2015 4.63977C12.1968 4.64214 12.1923 4.64451 12.1876 4.64717C12.1848 4.64888 12.182 4.65069 12.1793 4.65249C12.175 4.65515 12.1708 4.65781 12.1667 4.66075L12.1575 4.66768C12.154 4.67053 12.1504 4.67328 12.147 4.67623C12.1436 4.67917 12.1406 4.68211 12.1378 4.68515C12.1349 4.68819 12.1319 4.69066 12.1291 4.6936C12.1263 4.69654 12.1228 4.70053 12.1199 4.70414C12.117 4.70775 12.1149 4.70993 12.1125 4.71288C12.1101 4.71582 12.1069 4.72047 12.1043 4.72427C12.1016 4.72807 12.0996 4.73082 12.0975 4.73376C12.0954 4.73671 12.0931 4.74126 12.0909 4.74506C12.0887 4.74886 12.0865 4.75294 12.0845 4.75693C12.0824 4.76092 12.0812 4.76386 12.0796 4.76737C12.078 4.77089 12.0754 4.77687 12.0735 4.78171C12.0723 4.78484 12.0712 4.78807 12.0701 4.79121C12.0683 4.79652 12.0665 4.80193 12.065 4.80744C12.065 4.80887 12.0641 4.8101 12.0638 4.81152C12.0634 4.81295 12.063 4.81551 12.0626 4.81751C12.0613 4.82273 12.0602 4.82786 12.0592 4.83317C12.0583 4.83849 12.058 4.84172 12.0574 4.84599C12.0569 4.85026 12.0564 4.85444 12.056 4.85871C12.0557 4.86299 12.0554 4.86944 12.0552 4.87476C12.0552 4.87685 12.0552 4.87884 12.0552 4.88093V5.88461C11.9798 5.86227 11.9103 5.84011 11.8466 5.81815V4.78437C11.8473 4.74862 11.841 4.71308 11.8282 4.67986C11.8154 4.64663 11.7963 4.61637 11.772 4.59084C11.7477 4.56532 11.7188 4.54505 11.6868 4.53121C11.6548 4.51737 11.6205 4.51024 11.5859 4.51024C11.5512 4.51024 11.5169 4.51737 11.4849 4.53121C11.453 4.54505 11.424 4.56532 11.3997 4.59084C11.3754 4.61637 11.3563 4.64663 11.3435 4.67986C11.3307 4.71308 11.3244 4.74862 11.3251 4.78437V5.57622C11.2049 5.4959 11.1659 5.43542 11.1659 5.41301V4.64024C11.1646 4.56976 11.1365 4.50262 11.0878 4.45325C11.039 4.40388 10.9734 4.37622 10.9051 4.37622C10.8367 4.37622 10.7711 4.40388 10.7224 4.45325C10.6736 4.50262 10.6456 4.56976 10.6443 4.64024V5.41301C10.6443 5.88281 11.1815 6.23904 12.2868 6.50138C13.071 6.68776 14.0665 6.80455 15.142 6.83939C15.1606 6.8437 15.1797 6.8459 15.1988 6.84594C15.2126 6.84582 15.2265 6.84458 15.2402 6.84224C15.4322 6.84743 15.6263 6.85018 15.8225 6.8505C16.0119 6.8505 16.1994 6.84794 16.3851 6.84281C16.4304 6.85428 16.4778 6.8529 16.5224 6.83882C17.59 6.80322 18.5787 6.68691 19.3581 6.50138C20.4634 6.23876 21.0007 5.88281 21.0007 5.41301V4.06221C21.0005 3.68299 20.6516 3.38021 19.9339 3.13686ZM17.7867 5.40409C17.9383 5.38858 18.0865 5.37133 18.2313 5.35234V6.16062C18.0869 6.18037 17.9388 6.19822 17.7867 6.21417V5.40409ZM17.2652 6.26079C17.0827 6.27427 16.8962 6.285 16.7068 6.29326V5.4808C16.8958 5.47283 17.0825 5.46248 17.2652 5.44937V6.26079ZM18.7528 5.27334C18.8608 5.25435 18.9656 5.2348 19.068 5.21391V6.01621C18.9667 6.03814 18.8609 6.05865 18.7528 6.07821V5.27334ZM19.5895 5.09181C19.662 5.07225 19.7315 5.05221 19.7982 5.03171V5.81777C19.7344 5.83989 19.665 5.8623 19.5895 5.88423V5.09181ZM13.4133 5.37047C13.5561 5.38946 13.7043 5.40614 13.8578 5.42051V6.21417C13.706 6.19822 13.5578 6.18037 13.4133 6.16062V5.37047ZM12.8917 6.07821C12.7838 6.05865 12.6782 6.03814 12.5766 6.01621V5.22331C12.6788 5.24647 12.7838 5.26812 12.8917 5.28825V6.07821ZM14.3794 5.46105C14.5579 5.47188 14.7441 5.48039 14.9378 5.48659V6.29364C14.7483 6.28538 14.5619 6.27465 14.3794 6.26117V5.46105ZM15.4594 6.3093V5.49751C15.5776 5.49894 15.6987 5.4997 15.8223 5.4997C15.9441 5.4997 16.0649 5.49827 16.1852 5.49628V6.30893C16.0649 6.31114 15.9439 6.31231 15.8223 6.31244C15.7007 6.31256 15.5797 6.31139 15.4594 6.30893V6.3093ZM20.3197 5.57651V4.83593C20.3762 4.80944 20.4295 4.78228 20.479 4.75446V5.41301C20.479 5.43542 20.4398 5.4959 20.3197 5.57613V5.57651Z" fill="#B5B268"/>
<path d="M19.7293 6.93375C19.6601 6.93377 19.5938 6.96213 19.5449 7.01259C19.496 7.06305 19.4686 7.13148 19.4686 7.20283V7.94721C19.4686 7.96961 19.4294 8.03 19.3093 8.11032V7.31838C19.31 7.28262 19.3037 7.24709 19.2909 7.21386C19.2781 7.18063 19.259 7.15037 19.2347 7.12485C19.2104 7.09933 19.1815 7.07905 19.1495 7.06521C19.1175 7.05137 19.0832 7.04424 19.0485 7.04424C19.0139 7.04424 18.9796 7.05137 18.9476 7.06521C18.9156 7.07905 18.8867 7.09933 18.8624 7.12485C18.8381 7.15037 18.819 7.18063 18.8062 7.21386C18.7934 7.24709 18.7871 7.28262 18.7878 7.31838V8.35177C18.724 8.3739 18.6546 8.39621 18.5791 8.41824V7.53419C18.5791 7.51415 18.5769 7.49418 18.5725 7.47466C18.5824 7.4298 18.581 7.38306 18.5684 7.33892C18.5558 7.29479 18.5324 7.25473 18.5005 7.22258C18.4686 7.19044 18.4292 7.16729 18.3861 7.15535C18.3431 7.14341 18.2977 7.14309 18.2545 7.1544C17.3857 7.38085 16.2275 7.49564 14.8119 7.49564C13.5175 7.49564 12.3035 7.37648 11.3933 7.1602C10.3756 6.91837 10.1553 6.64967 10.1553 6.59612C10.1553 6.58473 10.1818 6.52386 10.3117 6.43547C10.3695 6.39617 10.4097 6.33483 10.4236 6.26493C10.4375 6.19504 10.4239 6.12231 10.3858 6.06276C10.3477 6.0032 10.2882 5.9617 10.2205 5.94737C10.1527 5.93305 10.0822 5.94708 10.0245 5.98637C9.76522 6.16288 9.63379 6.36806 9.63379 6.59612V7.94721C9.63379 8.41691 10.1711 8.77324 11.2763 9.03558C12.0605 9.22196 13.0561 9.33874 14.1315 9.37359C14.1637 9.38123 14.1971 9.3822 14.2297 9.37644C14.4218 9.38163 14.6159 9.38438 14.812 9.3847C15.0014 9.3847 15.1889 9.38213 15.3746 9.37701C15.3946 9.38204 15.4151 9.38462 15.4357 9.3847C15.4616 9.38473 15.4872 9.38076 15.5119 9.37292C16.5795 9.33741 17.5682 9.22101 18.3476 9.03558C19.4529 8.77324 19.9903 8.41672 19.9903 7.94721V7.20283C19.9903 7.16747 19.9836 7.13247 19.9704 7.09981C19.9573 7.06715 19.9381 7.03748 19.9138 7.01249C19.8896 6.9875 19.8608 6.96769 19.8292 6.95418C19.7975 6.94066 19.7636 6.93372 19.7293 6.93375ZM16.7764 7.94787C16.9291 7.93287 17.0773 7.91591 17.2209 7.89698V8.69453C17.0765 8.71428 16.9284 8.73213 16.7764 8.74808V7.94787ZM16.2548 8.79479C16.0722 8.80828 15.8858 8.81901 15.6964 8.82727V8.01804C15.8884 8.01107 16.0745 8.00158 16.2548 7.98955V8.79479ZM17.7425 7.81552C17.8502 7.79596 17.9552 7.77516 18.0576 7.75314V8.55069C17.9563 8.57252 17.8505 8.59313 17.7425 8.61269V7.81552ZM10.8361 7.56571C10.9028 7.58622 10.9723 7.60625 11.0446 7.62581V8.41862C10.9674 8.39564 10.8963 8.37282 10.8314 8.35016C10.8344 8.33376 10.836 8.31711 10.8361 8.30041V7.56571ZM11.5663 7.74782C11.6685 7.76871 11.7735 7.78852 11.8813 7.80726V8.61183C11.7733 8.59227 11.6678 8.57167 11.5663 8.54983V7.74782ZM12.403 7.88616C12.5476 7.90515 12.6958 7.92243 12.8474 7.938V8.74808C12.6955 8.73213 12.5474 8.71428 12.403 8.69453V7.88616ZM13.3693 7.98319C13.5521 7.99639 13.7387 8.00664 13.9278 8.01471V8.82717C13.7383 8.81888 13.5522 8.80805 13.3693 8.7947V7.98319ZM10.1553 7.94721V7.2879C10.2047 7.31575 10.2577 7.3429 10.3145 7.36936V8.10995C10.1944 8.02981 10.1553 7.96942 10.1553 7.94721ZM14.449 8.84312V8.03029C14.5693 8.03228 14.6901 8.0337 14.8119 8.0337C14.9352 8.0337 15.0557 8.03256 15.1748 8.03095V8.84293C15.0545 8.84512 14.9338 8.84645 14.8119 8.84645C14.6901 8.84645 14.5694 8.84512 14.449 8.84293V8.84312Z" fill="#B5B268"/>
<path d="M18.4824 9.58232C18.4132 9.58232 18.3469 9.61067 18.298 9.66114C18.2491 9.7116 18.2216 9.78005 18.2216 9.85142V10.5624C18.2216 10.5849 18.1826 10.6453 18.0624 10.7257V9.93375C18.0624 9.86238 18.035 9.79393 17.9861 9.74346C17.9371 9.693 17.8708 9.66465 17.8016 9.66465C17.7324 9.66465 17.6661 9.693 17.6172 9.74346C17.5683 9.79393 17.5408 9.86238 17.5408 9.93375V10.9673C17.477 10.9894 17.4077 11.0118 17.3322 11.0338V10.0308C17.2959 9.94758 17.2338 9.87922 17.1557 9.83649C17.0775 9.79377 16.9878 9.77911 16.9007 9.79483C16.0004 9.99879 14.8157 10.111 13.5649 10.111C12.2706 10.111 11.0565 9.99195 10.1464 9.77565C9.12862 9.5338 8.90838 9.26508 8.90838 9.21152C8.90838 9.18779 8.98578 9.05827 9.3438 8.90178C9.37533 8.88801 9.40393 8.86795 9.42795 8.84277C9.45197 8.81759 9.47095 8.78778 9.4838 8.75503C9.49666 8.72228 9.50313 8.68724 9.50286 8.65192C9.50259 8.61659 9.49558 8.58166 9.48222 8.54912C9.46887 8.51659 9.44943 8.48709 9.42502 8.46231C9.40062 8.43752 9.37172 8.41794 9.33998 8.40468C9.30824 8.39142 9.27428 8.38474 9.24003 8.38502C9.20579 8.3853 9.17193 8.39253 9.1404 8.40631C8.65519 8.61835 8.40283 8.87975 8.38819 9.18351C8.38722 9.19298 8.38673 9.20248 8.38672 9.212V10.5629C8.38672 11.0327 8.92402 11.389 10.0293 11.6515C10.8135 11.8378 11.8091 11.9547 12.8845 11.9894C12.9032 11.9937 12.9222 11.9959 12.9413 11.996C12.9551 11.9958 12.969 11.9946 12.9826 11.9923C13.1747 11.9976 13.3688 12.0003 13.5649 12.0005C13.7543 12.0005 13.9419 11.998 14.1276 11.9928C14.1729 12.0043 14.2204 12.0029 14.265 11.9888C15.3326 11.9532 16.3211 11.8369 17.1007 11.6515C18.2059 11.3888 18.7432 11.0327 18.7432 10.5629V9.85189C18.7433 9.81652 18.7366 9.78147 18.7235 9.74877C18.7104 9.71607 18.6912 9.68634 18.667 9.66131C18.6428 9.63627 18.614 9.6164 18.5823 9.60285C18.5507 9.5893 18.5167 9.58232 18.4824 9.58232ZM15.5294 10.5532C15.6809 10.5377 15.8291 10.5205 15.974 10.5015V11.3102C15.8295 11.3298 15.6814 11.3477 15.5294 11.3638V10.5532ZM15.0079 11.4104C14.8254 11.4238 14.6389 11.4345 14.4495 11.4428V10.6302C14.6385 10.6222 14.8247 10.6116 15.0079 10.5985V11.4104ZM16.4955 10.4229C16.6033 10.4042 16.7084 10.3846 16.8106 10.3638V11.1657C16.7093 11.1876 16.6035 11.2081 16.4955 11.2278V10.4229ZM9.58907 10.1813C9.65583 10.2019 9.72538 10.222 9.79772 10.2414V11.0343C9.72041 11.0114 9.64954 10.9885 9.58447 10.9659C9.5875 10.9495 9.58904 10.9328 9.58907 10.916V10.1813ZM10.3193 10.3636C10.4215 10.3844 10.5266 10.4042 10.6344 10.4229V11.228C10.5265 11.2083 10.4209 11.1878 10.3193 11.1659V10.3636ZM11.156 10.5019C11.3007 10.5208 11.4488 10.5381 11.6005 10.5537V11.3639C11.4487 11.3479 11.3005 11.3301 11.156 11.3104V10.5019ZM12.1224 10.599C12.3051 10.6121 12.4918 10.6224 12.6808 10.6304V11.4429C12.4913 11.4347 12.3051 11.4239 12.1224 11.4106V10.599ZM8.90875 10.5626V9.90345C8.95817 9.93128 9.01137 9.95843 9.06788 9.98493V10.7256C8.9474 10.6453 8.90838 10.5849 8.90838 10.5624L8.90875 10.5626ZM13.2024 11.4587V10.6459C13.3227 10.648 13.4437 10.6491 13.5653 10.6493C13.6869 10.6495 13.8079 10.6484 13.9283 10.6459V11.4587C13.808 11.4607 13.6872 11.4621 13.5653 11.4621C13.4434 11.4621 13.3223 11.4605 13.202 11.4585L13.2024 11.4587Z" fill="#B5B268"/>
</g>
<defs>
<clipPath id="clip0">
<rect width="21" height="12" fill="white"/>
</clipPath>
</defs>
</svg>
