<svg width="22" height="18" viewBox="0 0 22 18" fill="none" xmlns="http://www.w3.org/2000/svg">
<path d="M5.80034 13.9348C5.80034 15.0409 4.92755 15.9407 3.85423 15.9407C2.78091 15.9407 1.90806 15.0409 1.90806 13.9348C1.90835 13.6443 1.97033 13.3574 2.08963 13.0942H0.995251C0.919283 13.3676 0.880699 13.6505 0.880615 13.9348C0.880615 15.625 2.21453 17 3.85423 17C5.49392 17 6.8279 15.625 6.8279 13.9348C6.82781 13.6505 6.78923 13.3676 6.71326 13.0942H5.61882C5.73808 13.3574 5.80004 13.6443 5.80034 13.9348Z" fill="#B5B268"/>
<path d="M19.0253 15.5271C19.8787 15.5271 20.5705 14.814 20.5705 13.9343C20.5705 13.0547 19.8787 12.3416 19.0253 12.3416C18.1718 12.3416 17.48 13.0547 17.48 13.9343C17.48 14.814 18.1718 15.5271 19.0253 15.5271Z" fill="#B5B268"/>
<path d="M2.30859 13.9348C2.30859 14.8132 3.0018 15.5277 3.85393 15.5277C4.70607 15.5277 5.39921 14.8132 5.39921 13.9348C5.39907 13.6374 5.31755 13.3461 5.16402 13.0942H2.54379C2.39025 13.3461 2.30874 13.6374 2.30859 13.9348Z" fill="#B5B268"/>
<path d="M19.0253 10.8701C17.3855 10.8701 16.0515 12.2451 16.0515 13.9353C16.0515 15.6254 17.3855 17.0003 19.0253 17.0003C20.6651 17.0003 21.999 15.6254 21.999 13.9353C21.999 12.2451 20.665 10.8701 19.0253 10.8701ZM19.0253 15.9413C17.9522 15.9413 17.079 15.0413 17.079 13.9353C17.079 12.8292 17.9522 11.9293 19.0253 11.9293C20.0984 11.9293 20.9715 12.8292 20.9715 13.9353C20.9715 15.0413 20.0984 15.9411 19.0253 15.9411V15.9413Z" fill="#B5B268"/>
<path d="M16.33 1.42019L17.2555 2.29802C17.3188 2.34228 17.353 2.34591 17.3623 2.34591C17.3878 2.34591 17.4341 2.29257 17.4751 2.17562C17.5782 1.88178 17.6305 1.58358 17.6305 1.28956C17.6305 0.982722 17.566 0.672192 17.438 0.366499C17.3911 0.254322 17.3478 0.213623 17.3302 0.213623C17.3214 0.213623 17.2891 0.217191 17.2259 0.261518L16.2878 1.1772L16.33 1.42019Z" fill="#B5B268"/>
<path d="M14.3261 12.6812C14.9028 12.6812 15.3695 12.4375 15.6545 11.9971H7.50149L7.20581 12.6812H14.3261Z" fill="#B5B268"/>
<path d="M0.710938 12.6813H6.76745L7.18721 11.7099L7.49022 11.0087C7.70019 10.5128 7.63513 9.76245 7.34755 9.37147C6.89622 8.75807 6.05412 8.62823 4.84471 8.98655C2.38499 9.71455 1.09872 11.9052 0.710938 12.6813ZM1.78254 12.4551C1.75665 12.4601 1.73006 12.4597 1.7043 12.454C1.67855 12.4483 1.65414 12.4374 1.63248 12.422C1.61081 12.4065 1.59233 12.3868 1.57808 12.364C1.56383 12.3412 1.55411 12.3157 1.54946 12.2889L1.46774 11.8271C1.46276 11.8003 1.46298 11.7728 1.46838 11.7461C1.47379 11.7194 1.48427 11.694 1.49923 11.6715C1.51419 11.649 1.53333 11.6298 1.55554 11.6149C1.57775 11.6001 1.60259 11.5899 1.62863 11.585C1.65467 11.5801 1.68139 11.5806 1.70725 11.5864C1.73311 11.5922 1.7576 11.6033 1.7793 11.6189C1.80101 11.6345 1.81949 11.6544 1.83369 11.6774C1.84789 11.7005 1.85752 11.7262 1.86204 11.7531L1.94376 12.2148C1.94848 12.2415 1.94806 12.2689 1.94252 12.2954C1.93697 12.322 1.92641 12.3471 1.91144 12.3694C1.89647 12.3917 1.87738 12.4108 1.85526 12.4255C1.83315 12.4402 1.80844 12.4503 1.78254 12.4551ZM2.17614 12.062L2.05294 11.3652C2.04371 11.3115 2.0555 11.2561 2.08574 11.2113C2.11598 11.1665 2.16221 11.1358 2.21431 11.126C2.26642 11.1162 2.32017 11.1281 2.36382 11.159C2.40746 11.1899 2.43746 11.2374 2.44724 11.2911L2.57044 11.9879C2.57996 12.0418 2.56833 12.0974 2.5381 12.1425C2.50787 12.1876 2.46151 12.2184 2.40922 12.2282C2.39727 12.2304 2.38516 12.2316 2.37302 12.2316C2.32614 12.2316 2.28074 12.2147 2.24473 12.1837C2.20871 12.1528 2.18436 12.1098 2.1759 12.0623L2.17614 12.062ZM3.02381 10.7952L3.22328 11.9235C3.23282 11.9774 3.2212 12.033 3.19097 12.078C3.16075 12.1231 3.1144 12.1539 3.06212 12.1637C3.00984 12.1736 2.95592 12.1616 2.9122 12.1304C2.86849 12.0993 2.83858 12.0515 2.82904 11.9976L2.62957 10.8693C2.62459 10.8425 2.62481 10.815 2.63022 10.7883C2.63562 10.7616 2.64611 10.7362 2.66107 10.7137C2.67603 10.6912 2.69516 10.672 2.71737 10.6571C2.73958 10.6423 2.76442 10.6321 2.79046 10.6272C2.8165 10.6223 2.84323 10.6228 2.86909 10.6286C2.89495 10.6344 2.91944 10.6455 2.94114 10.6611C2.96284 10.6767 2.98132 10.6966 2.99552 10.7196C3.00972 10.7427 3.01936 10.7684 3.02387 10.7952H3.02381Z" fill="#B5B268"/>
<path d="M10.4841 6.1764C10.5226 6.1764 10.5606 6.1686 10.5961 6.15343C10.6317 6.13827 10.6639 6.11605 10.6911 6.08803C10.7183 6.06002 10.7398 6.02676 10.7545 5.99015C10.7693 5.95355 10.7768 5.91432 10.7768 5.8747C10.7768 5.83508 10.7693 5.79585 10.7545 5.75924C10.7398 5.72264 10.7183 5.68938 10.6911 5.66136C10.6639 5.63335 10.6317 5.61113 10.5961 5.59596C10.5606 5.5808 10.5226 5.573 10.4841 5.573H3.31906C3.28062 5.573 3.24256 5.5808 3.20705 5.59596C3.17154 5.61113 3.13927 5.63335 3.11209 5.66136C3.08491 5.68938 3.06336 5.72264 3.04865 5.75924C3.03394 5.79585 3.02637 5.83508 3.02637 5.8747C3.02637 5.91432 3.03394 5.95355 3.04865 5.99015C3.06336 6.02676 3.08491 6.06002 3.11209 6.08803C3.13927 6.11605 3.17154 6.13827 3.20705 6.15343C3.24256 6.1686 3.28062 6.1764 3.31906 6.1764H10.4841Z" fill="#B5B268"/>
<path d="M16.116 1.49582C16.1125 1.48721 16.1096 1.47836 16.1073 1.46934C16.0815 1.36914 16.0246 1.28037 15.9454 1.21653C15.8662 1.15268 15.7689 1.11725 15.6683 1.11563L15.59 0.879784C15.5693 0.818862 15.5449 0.75934 15.517 0.701569C15.3681 0.390374 15.086 0.0415039 14.7306 0.0415039H14.3449C14.3842 0.123067 14.4048 0.212791 14.4053 0.303837C14.4047 0.35481 14.3978 0.405492 14.3847 0.454657H14.7308C14.8324 0.454657 14.9537 0.562723 15.0535 0.705863C15.1193 0.800141 15.176 0.909174 15.2109 1.01428L15.2444 1.11527H15.1095C14.9976 1.11527 14.9746 1.13988 14.9746 1.14018C14.9401 1.17907 14.9566 1.38105 14.9687 1.51373L16.3611 6.60557C16.3627 6.61162 16.364 6.61718 16.3651 6.62299C16.4516 7.09232 16.0091 8.19287 15.0497 9.89405C14.953 10.0651 14.8145 10.2072 14.6481 10.3061C14.4816 10.4049 14.293 10.4572 14.1009 10.4577H10.8077C10.3933 10.4577 10.0421 10.292 9.81883 9.99123C9.59554 9.69043 9.53236 9.29778 9.64072 8.8856C9.8406 8.12533 10.3506 6.90498 10.4103 6.76298C10.4261 6.70643 10.4347 6.64801 10.4359 6.58918H4.33561C3.60081 7.00923 2.88431 7.5908 2.1254 8.36812C0.258628 10.2802 -0.155617 12.0906 0.0449645 12.5922C0.0804578 12.681 0.114778 12.681 0.129444 12.681H0.262618C0.532484 12.0789 1.859 9.44044 4.73401 8.58922C6.4584 8.07852 7.28079 8.59671 7.66688 9.12138C8.03765 9.62549 8.12295 10.5467 7.85684 11.1749L7.68043 11.5832H15.9212C15.9528 11.5383 15.9839 11.4925 16.0171 11.4492C16.0401 11.419 16.0648 11.391 16.0884 11.3617C16.123 11.319 16.1571 11.2757 16.1932 11.2347C16.2241 11.1995 16.2567 11.1663 16.2886 11.1319C16.3196 11.0989 16.3499 11.0654 16.3819 11.0333C16.4191 10.9961 16.4581 10.9607 16.4966 10.9252C16.5252 10.8988 16.5531 10.8717 16.5823 10.846C16.6249 10.8088 16.6691 10.7734 16.7131 10.7381C16.7401 10.7164 16.7665 10.6939 16.794 10.6728C16.8409 10.6365 16.8896 10.6029 16.9381 10.5689C16.9642 10.5507 16.9897 10.5318 17.0161 10.5144C17.0669 10.4806 17.1188 10.4489 17.1709 10.4177C17.1968 10.402 17.2222 10.3859 17.2484 10.3708C17.3016 10.3402 17.356 10.3115 17.4105 10.2833C17.437 10.2695 17.4633 10.2553 17.4901 10.2421C17.5451 10.2151 17.6009 10.1901 17.657 10.1655C17.6849 10.1534 17.7125 10.1408 17.7406 10.1292C17.7964 10.1062 17.8528 10.0851 17.9096 10.0646C17.9395 10.0538 17.9694 10.0428 17.9996 10.0326C18.0552 10.0139 18.1111 9.99697 18.1677 9.98064C18.2005 9.97115 18.2331 9.96166 18.2661 9.95301C18.3207 9.93862 18.3758 9.9258 18.4312 9.91364C18.4673 9.90572 18.5034 9.89798 18.5397 9.89102C18.5925 9.88092 18.6459 9.8721 18.6994 9.86399C18.7393 9.85794 18.7793 9.85244 18.8194 9.84748C18.8703 9.84135 18.9211 9.83622 18.9719 9.83206C19.016 9.82839 19.0601 9.82541 19.1044 9.82311C19.1524 9.82069 19.2005 9.81908 19.2487 9.81827C19.2711 9.81791 19.2933 9.81598 19.3158 9.81598C19.3481 9.81598 19.3803 9.81791 19.4122 9.8187C19.4311 9.81912 19.4497 9.81809 19.4685 9.8187L16.116 1.49582Z" fill="#B5B268"/>
<path d="M14.0855 0H13.0626C12.9954 0 12.931 0.0275048 12.8835 0.0764636C12.836 0.125422 12.8093 0.191825 12.8093 0.261063C12.8093 0.330301 12.836 0.396704 12.8835 0.445662C12.931 0.494621 12.9954 0.522126 13.0626 0.522126H14.0855C14.1527 0.522126 14.2171 0.494621 14.2646 0.445662C14.3121 0.396704 14.3388 0.330301 14.3388 0.261063C14.3388 0.191825 14.3121 0.125422 14.2646 0.0764636C14.2171 0.0275048 14.1527 0 14.0855 0V0Z" fill="#B5B268"/>
</svg>
