<svg width="103" height="97" viewBox="0 0 103 97" fill="none" xmlns="http://www.w3.org/2000/svg">
<g clip-path="url(#clip0)">
<path d="M44.8407 21.5028C45.1245 21.7843 45.467 21.9996 45.8436 22.1333C46.2161 22.2773 46.6153 22.3387 47.0137 22.3135H50.164V28.7479C51.1541 28.7479 52.1442 28.6579 53.1343 28.6579C54.1244 28.6579 54.9473 28.6579 55.8602 28.7479V22.3135H58.9848C59.381 22.3324 59.7769 22.2702 60.1484 22.1308C60.5198 21.9914 60.8589 21.7777 61.145 21.5028C61.4384 21.2284 61.6706 20.8951 61.8265 20.5247C61.9796 20.1578 62.0583 19.7641 62.0579 19.3665C62.0593 18.9688 61.9806 18.5749 61.8265 18.2083C61.6706 17.838 61.4384 17.5047 61.145 17.2303C60.8589 16.9554 60.5198 16.7417 60.1484 16.6023C59.7769 16.4629 59.381 16.4007 58.9848 16.4196H47.0137C46.6153 16.3944 46.2161 16.4558 45.8436 16.5997C45.467 16.7334 45.1245 16.9488 44.8407 17.2303C44.5473 17.5047 44.3151 17.838 44.1592 18.2083C44.0051 18.5749 43.9264 18.9688 43.9278 19.3665C43.9274 19.7641 44.0061 20.1578 44.1592 20.5247C44.3151 20.8951 44.5473 21.2284 44.8407 21.5028Z" fill="#ABA765"/>
<path d="M71.4446 11.1946C72.0958 11.1942 72.7202 10.935 73.1805 10.474L79.4681 4.18111C79.9268 3.72206 80.1845 3.09945 80.1845 2.45025C80.1845 1.80105 79.9268 1.17844 79.4681 0.719387C79.0095 0.260335 78.3874 0.00244142 77.7387 0.00244141C77.0901 0.00244139 76.468 0.260334 76.0093 0.719387L69.7216 7.01225C69.3835 7.35586 69.1539 7.7914 69.0614 8.26465C68.9688 8.73789 69.0174 9.22793 69.201 9.67375C69.3847 10.1196 69.6953 10.5015 70.0943 10.7719C70.4932 11.0423 70.9628 11.1893 71.4446 11.1946Z" fill="#ABA765"/>
<path d="M74.3501 26.0066C74.3535 26.6563 74.6138 27.2781 75.074 27.7363C75.5342 28.1945 76.1569 28.4517 76.806 28.4517H85.6911C86.3391 28.4517 86.9605 28.1941 87.4186 27.7355C87.8768 27.277 88.1342 26.6551 88.1342 26.0066C88.1342 25.3581 87.8768 24.7362 87.4186 24.2777C86.9605 23.8191 86.3391 23.5615 85.6911 23.5615H76.806C76.1569 23.5615 75.5342 23.8187 75.074 24.2769C74.6138 24.7351 74.3535 25.3569 74.3501 26.0066Z" fill="#ABA765"/>
<path d="M20.4607 28.4651H29.3457C29.6823 28.4896 30.0203 28.4443 30.3387 28.3321C30.657 28.22 30.9488 28.0434 31.196 27.8134C31.4431 27.5834 31.6402 27.3048 31.7749 26.9952C31.9097 26.6855 31.9792 26.3514 31.9792 26.0136C31.9792 25.6759 31.9097 25.3417 31.7749 25.0321C31.6402 24.7224 31.4431 24.4439 31.196 24.2138C30.9488 23.9838 30.657 23.8072 30.3387 23.6951C30.0203 23.5829 29.6823 23.5377 29.3457 23.5621H20.4607C20.1241 23.5377 19.7861 23.5829 19.4677 23.6951C19.1494 23.8072 18.8575 23.9838 18.6104 24.2138C18.3633 24.4439 18.1662 24.7224 18.0315 25.0321C17.8967 25.3417 17.8271 25.6759 17.8271 26.0136C17.8271 26.3514 17.8967 26.6855 18.0315 26.9952C18.1662 27.3048 18.3633 27.5834 18.6104 27.8134C18.8575 28.0434 19.1494 28.22 19.4677 28.3321C19.7861 28.4443 20.1241 28.4896 20.4607 28.4651Z" fill="#ABA765"/>
<path d="M32.8047 10.474C33.2649 10.935 33.8893 11.1942 34.5405 11.1946C35.0223 11.1893 35.4919 11.0423 35.8909 10.7719C36.2898 10.5015 36.6004 10.1196 36.7841 9.67375C36.9678 9.22793 37.0164 8.73789 36.9238 8.26465C36.8312 7.7914 36.6016 7.35586 36.2636 7.01225L29.9887 0.719387C29.7616 0.492087 29.492 0.311783 29.1952 0.18877C28.8985 0.0657558 28.5805 0.00244141 28.2593 0.00244141C27.9381 0.0024414 27.62 0.0657558 27.3233 0.18877C27.0266 0.311783 26.757 0.492087 26.5298 0.719387C26.3027 0.946687 26.1226 1.21653 25.9997 1.51351C25.8767 1.81049 25.8135 2.1288 25.8135 2.45025C25.8135 2.7717 25.8767 3.09 25.9997 3.38698C26.1226 3.68396 26.3027 3.95381 26.5298 4.18111L32.8047 10.474Z" fill="#ABA765"/>
<path d="M100.556 83.7363H57.1205V78.074H99.9257C99.8357 76.594 99.6814 75.1141 99.4499 73.6471C99.2185 72.18 98.9228 70.7258 98.5627 69.2974C98.2027 67.869 97.7655 66.4405 97.2769 65.0378C96.7883 63.6351 96.2097 62.271 95.5925 60.9198C94.9753 59.5685 94.3066 58.2688 93.5223 56.9948C92.7379 55.7208 91.9536 54.421 91.0921 53.2628C90.2306 52.1046 89.3048 50.9078 88.3275 49.7882C87.3503 48.6686 86.3216 47.6005 85.2416 46.5839C84.1615 45.5672 83.0428 44.6021 81.8727 43.6884C80.7026 42.7747 79.4939 41.9253 78.2467 41.1146C76.9994 40.3039 75.675 39.5703 74.3892 38.9012C73.1033 38.232 71.7147 37.6143 70.3388 37.0609C68.963 36.5076 67.5743 36.0314 66.147 35.6067C64.7197 35.1821 63.2925 34.8475 61.8395 34.5644C60.3865 34.2812 58.9207 34.0625 57.442 33.9209C55.9633 33.7794 54.4846 33.7021 53.0059 33.7021C51.5272 33.7021 50.0356 33.7665 48.5569 33.908C47.0771 34.0372 45.6049 34.2434 44.1465 34.5258C42.6935 34.796 41.2534 35.1435 39.8261 35.5553C38.3969 35.9641 36.9892 36.4452 35.6086 36.9966C34.2328 37.5371 32.8698 38.1548 31.5454 38.824C30.2231 39.4962 28.9356 40.235 27.6879 41.0374C26.4021 41.8353 25.2191 42.6846 24.0362 43.6112C22.8532 44.5377 21.7345 45.49 20.6544 46.5067C19.5744 47.5233 18.5457 48.5914 17.5556 49.711C16.5655 50.8306 15.6526 51.9888 14.7782 53.1985C13.0393 55.6276 11.5284 58.2123 10.265 60.9198C9.6349 62.2067 9.06914 63.6351 8.56767 65.0378C8.0662 66.4405 7.64187 67.8561 7.28184 69.3103C6.92181 70.7645 6.61321 72.2058 6.38176 73.6728C6.15031 75.1399 5.99601 76.6198 5.91886 78.1126H47.7854V83.7749H5.43025C5.11002 83.7749 4.79296 83.8382 4.49727 83.9612C4.20158 84.0843 3.9331 84.2646 3.70726 84.4918C3.48143 84.719 3.3027 84.9886 3.18132 85.2852C3.05995 85.5818 2.99834 85.8995 3.00003 86.2199V90.0806C3.00003 90.7257 3.25607 91.3443 3.71182 91.8004C4.16758 92.2566 4.78571 92.5128 5.43025 92.5128H100.581C101.228 92.5094 101.848 92.2507 102.305 91.7929C102.763 91.3351 103.021 90.7152 103.025 90.0677V86.2199C103.032 85.893 102.973 85.5679 102.851 85.2643C102.73 84.9607 102.548 84.6847 102.318 84.4528C102.087 84.2209 101.812 84.038 101.51 83.9148C101.207 83.7917 100.883 83.731 100.556 83.7363ZM36.0587 46.9828C28.5717 50.4416 22.6788 56.62 19.5743 64.2657C19.4167 64.7203 19.1216 65.1145 18.7298 65.3936C18.3381 65.6726 17.8693 65.8227 17.3884 65.8228C17.13 65.8251 16.8731 65.7816 16.6298 65.6941C16.0509 65.4951 15.5743 65.0746 15.3044 64.5247C15.0345 63.9748 14.9932 63.3403 15.1897 62.76C18.7057 53.7982 25.6005 46.5788 34.3871 42.6589C34.6973 42.5259 35.0329 42.4625 35.3702 42.473C35.7075 42.4836 36.0384 42.5678 36.3398 42.7198C36.6411 42.8719 36.9056 43.088 37.1147 43.3531C37.3238 43.6183 37.4725 43.9259 37.5502 44.2546C37.659 44.8121 37.5695 45.3901 37.297 45.8885C37.0246 46.3868 36.5865 46.7739 36.0587 46.9828Z" fill="#ABA765"/>
</g>
<defs>
<clipPath id="clip0">
<rect width="103" height="97" fill="white"/>
</clipPath>
</defs>
</svg>
