<svg width="31" height="49" viewBox="0 0 31 49" fill="none" xmlns="http://www.w3.org/2000/svg">
<path fill-rule="evenodd" clip-rule="evenodd" d="M28.3053 24.2362C30.0056 21.7487 31 18.7405 31 15.5C31 6.93959 24.0604 0 15.5 0C6.93959 0 0 6.93959 0 15.5C0 18.5496 0.880713 21.3935 2.40167 23.7913L15.5005 48.2009L28.3053 24.2362Z" fill="#B5B268"/>
<circle cx="15.5" cy="15.5" r="12.5" fill="white"/>
<path d="M10.4512 20V11.4336H11.8516V18.7988H15.4785V20H10.4512ZM20.3945 20H19.0176V14.4688C19.0176 13.8086 19.0332 13.2852 19.0645 12.8984C18.9746 12.9922 18.8633 13.0957 18.7305 13.209C18.6016 13.3223 18.1641 13.6816 17.418 14.2871L16.7266 13.4141L19.2461 11.4336H20.3945V20Z" fill="#B5B268"/>
</svg>
