<svg width="31" height="49" viewBox="0 0 31 49" fill="none" xmlns="http://www.w3.org/2000/svg">
<path fill-rule="evenodd" clip-rule="evenodd" d="M28.3053 24.2362C30.0056 21.7487 31 18.7405 31 15.5C31 6.93959 24.0604 0 15.5 0C6.93959 0 0 6.93959 0 15.5C0 18.5496 0.880713 21.3935 2.40167 23.7913L15.5005 48.2009L28.3053 24.2362Z" fill="#B5B268"/>
<circle cx="15.5" cy="15.5" r="12.5" fill="white"/>
<path d="M10.4512 20V11.4336H11.8516V18.7988H15.4785V20H10.4512ZM21.8359 13.4023C21.8359 13.9453 21.6777 14.3984 21.3613 14.7617C21.0449 15.1211 20.5996 15.3633 20.0254 15.4883V15.5352C20.7129 15.6211 21.2285 15.8359 21.5723 16.1797C21.916 16.5195 22.0879 16.9727 22.0879 17.5391C22.0879 18.3633 21.7969 19 21.2148 19.4492C20.6328 19.8945 19.8047 20.1172 18.7305 20.1172C17.7812 20.1172 16.9805 19.9629 16.3281 19.6543V18.4297C16.6914 18.6094 17.0762 18.748 17.4824 18.8457C17.8887 18.9434 18.2793 18.9922 18.6543 18.9922C19.3184 18.9922 19.8145 18.8691 20.1426 18.623C20.4707 18.377 20.6348 17.9961 20.6348 17.4805C20.6348 17.0234 20.4531 16.6875 20.0898 16.4727C19.7266 16.2578 19.1562 16.1504 18.3789 16.1504H17.6348V15.0312H18.3906C19.7578 15.0312 20.4414 14.5586 20.4414 13.6133C20.4414 13.2461 20.3223 12.9629 20.084 12.7637C19.8457 12.5645 19.4941 12.4648 19.0293 12.4648C18.7051 12.4648 18.3926 12.5117 18.0918 12.6055C17.791 12.6953 17.4355 12.873 17.0254 13.1387L16.3516 12.1777C17.1367 11.5996 18.0488 11.3105 19.0879 11.3105C19.9512 11.3105 20.625 11.4961 21.1094 11.8672C21.5938 12.2383 21.8359 12.75 21.8359 13.4023Z" fill="#B5B268"/>
</svg>
