<svg width="31" height="49" viewBox="0 0 31 49" fill="none" xmlns="http://www.w3.org/2000/svg">
<path fill-rule="evenodd" clip-rule="evenodd" d="M28.3053 24.2362C30.0056 21.7487 31 18.7405 31 15.5C31 6.93959 24.0604 0 15.5 0C6.93959 0 0 6.93959 0 15.5C0 18.5496 0.880713 21.3935 2.40167 23.7913L15.5005 48.2009L28.3053 24.2362Z" fill="#B5B268"/>
<circle cx="15.5" cy="15.5" r="12.5" fill="white"/>
<path d="M10.4512 20V11.4336H11.8516V18.7988H15.4785V20H10.4512ZM22.1582 20H16.3516V18.957L18.5605 16.7363C19.2129 16.0684 19.6445 15.5957 19.8555 15.3184C20.0703 15.0371 20.2266 14.7734 20.3242 14.5273C20.4219 14.2812 20.4707 14.0176 20.4707 13.7363C20.4707 13.3496 20.3535 13.0449 20.1191 12.8223C19.8887 12.5996 19.5684 12.4883 19.1582 12.4883C18.8301 12.4883 18.5117 12.5488 18.2031 12.6699C17.8984 12.791 17.5449 13.0098 17.1426 13.3262L16.3984 12.418C16.875 12.0156 17.3379 11.7305 17.7871 11.5625C18.2363 11.3945 18.7148 11.3105 19.2227 11.3105C20.0195 11.3105 20.6582 11.5195 21.1387 11.9375C21.6191 12.3516 21.8594 12.9102 21.8594 13.6133C21.8594 14 21.7891 14.3672 21.6484 14.7148C21.5117 15.0625 21.2988 15.4219 21.0098 15.793C20.7246 16.1602 20.248 16.6582 19.5801 17.2871L18.0918 18.7285V18.7871H22.1582V20Z" fill="#B5B268"/>
</svg>
