<svg width="31" height="49" viewBox="0 0 31 49" fill="none" xmlns="http://www.w3.org/2000/svg">
<path fill-rule="evenodd" clip-rule="evenodd" d="M28.3053 24.2362C30.0056 21.7487 31 18.7405 31 15.5C31 6.93959 24.0604 0 15.5 0C6.93959 0 0 6.93959 0 15.5C0 18.5496 0.880713 21.3935 2.40167 23.7913L15.5005 48.2009L28.3053 24.2362Z" fill="#B5B268"/>
<circle cx="15.5" cy="15.5" r="12.5" fill="white"/>
<path d="M10.4512 20V11.4336H11.8516V18.7988H15.4785V20H10.4512ZM19.2578 14.6504C20.1211 14.6504 20.8047 14.8789 21.3086 15.3359C21.8125 15.793 22.0645 16.416 22.0645 17.2051C22.0645 18.1191 21.7773 18.834 21.2031 19.3496C20.6328 19.8613 19.8203 20.1172 18.7656 20.1172C17.8086 20.1172 17.0566 19.9629 16.5098 19.6543V18.4062C16.8262 18.5859 17.1895 18.7246 17.5996 18.8223C18.0098 18.9199 18.3906 18.9688 18.7422 18.9688C19.3633 18.9688 19.8359 18.8301 20.1602 18.5527C20.4844 18.2754 20.6465 17.8691 20.6465 17.334C20.6465 16.3105 19.9941 15.7988 18.6895 15.7988C18.5059 15.7988 18.2793 15.8184 18.0098 15.8574C17.7402 15.8926 17.5039 15.9336 17.3008 15.9805L16.6855 15.6172L17.0137 11.4336H21.4668V12.6582H18.2266L18.0332 14.7793C18.1699 14.7559 18.3359 14.7285 18.5312 14.6973C18.7305 14.666 18.9727 14.6504 19.2578 14.6504Z" fill="#B5B268"/>
</svg>
