<svg width="31" height="49" viewBox="0 0 31 49" fill="none" xmlns="http://www.w3.org/2000/svg">
<path fill-rule="evenodd" clip-rule="evenodd" d="M28.3053 24.2362C30.0056 21.7487 31 18.7405 31 15.5C31 6.93959 24.0604 0 15.5 0C6.93959 0 0 6.93959 0 15.5C0 18.5496 0.880713 21.3935 2.40167 23.7913L15.5005 48.2009L28.3053 24.2362Z" fill="#B5B268"/>
<circle cx="15.5" cy="15.5" r="12.5" fill="white"/>
<path d="M10.4512 20V11.4336H11.8516V18.7988H15.4785V20H10.4512ZM22.4629 18.1309H21.3086V20H19.9668V18.1309H16.0527V17.0703L19.9668 11.4102H21.3086V16.9883H22.4629V18.1309ZM19.9668 16.9883V14.8379C19.9668 14.0723 19.9863 13.4453 20.0254 12.957H19.9785C19.8691 13.2148 19.6973 13.5273 19.4629 13.8945L17.3359 16.9883H19.9668Z" fill="#B5B268"/>
</svg>
