<svg width="367" height="507" viewBox="0 0 367 507" fill="none" xmlns="http://www.w3.org/2000/svg">
<g clip-path="url(#clip0)">
<path d="M253.872 442.256L286.874 507.007L319.874 442.084" fill="white"/>
<path d="M19.5497 250.642L19.146 249.229C19.146 248.96 19.2806 248.741 19.5497 248.573C19.8187 248.371 20.1551 247.984 20.5587 247.413C20.996 246.841 21.2987 246.471 21.4669 246.303C21.6687 246.134 21.9378 245.899 22.2742 245.596C22.6442 245.26 22.9469 244.991 23.1824 244.789C23.8551 244.217 24.326 243.898 24.5951 243.83C24.8642 243.729 25.3351 243.578 26.0078 243.376C28.0933 242.703 29.8592 242.233 31.3055 241.964C39.8828 227.634 46.7614 216.434 51.9414 208.361C57.155 200.255 60.115 195.781 60.8213 194.94C61.5613 194.065 62.8563 193.292 64.7063 192.619C66.5563 191.946 67.9018 191.627 68.7427 191.66C69.6172 191.66 70.0545 192.03 70.0545 192.77C70.0545 193.073 69.9368 193.477 69.7013 193.981C69.4995 194.486 67.6663 197.463 64.2018 202.912C51.3864 222.993 43.1791 236.01 39.5801 241.964L40.8414 242.418C48.645 240.971 52.6982 240.248 53.0009 240.248C53.3373 240.248 54.1446 240.484 55.4227 240.954C56.7345 241.392 57.5923 241.644 57.9959 241.711C58.7695 241.846 59.1564 242.485 59.1564 243.628C59.1564 244.738 58.8032 245.361 58.0968 245.495C57.525 245.596 56.1459 245.933 53.9596 246.504C51.8068 247.043 50.0746 247.463 48.7628 247.766C50.5455 249.885 51.4368 252.138 51.4368 254.527C51.4368 256.915 50.3773 260.077 48.2582 264.012C46.1391 267.914 43.4314 271.782 40.1351 275.617C36.8387 279.451 33.3742 283.067 29.7414 286.464C26.1424 289.862 22.6778 292.603 19.3478 294.688C16.0179 296.807 13.5624 297.867 11.9815 297.867C10.367 297.867 8.93742 297.43 7.69288 296.555C6.4147 295.714 5.77561 294.453 5.77561 292.771C5.77561 291.089 6.12879 289.122 6.83515 286.868C7.50788 284.648 8.24788 282.596 9.05515 280.712C9.86242 278.862 11.2415 276.188 13.1924 272.69C15.2779 268.923 19.0451 262.482 24.4942 253.366C23.5524 253.534 22.8292 253.618 22.3247 253.618C21.8201 253.618 21.3492 253.501 20.9119 253.265C20.4747 253.03 20.1719 252.727 20.0037 252.357C19.701 251.684 19.5497 251.113 19.5497 250.642ZM33.7273 272.387C36.2501 269.461 38.3691 266.4 40.0846 263.205C41.8 259.976 42.6578 257.352 42.6578 255.334C42.6578 253.282 41.6655 251.483 39.681 249.935L34.0805 251.197C33.5087 252.138 32.6173 253.635 31.4064 255.687C30.2292 257.705 29.2537 259.353 28.4801 260.632C27.7401 261.91 26.7815 263.558 25.6042 265.576C24.4269 267.594 23.4346 269.293 22.6274 270.672C21.8537 272.051 20.9792 273.598 20.0037 275.314C19.0619 277.063 18.2883 278.543 17.6828 279.754C17.0438 280.998 16.4383 282.226 15.8665 283.437C14.7565 285.792 14.2015 287.322 14.2015 288.028C14.2015 288.735 14.3865 289.088 14.7565 289.088C15.4292 289.088 16.8251 288.314 18.9442 286.767C21.0297 285.253 23.3842 283.202 26.0078 280.612C28.6651 278.055 31.2383 275.314 33.7273 272.387ZM98.1071 228.543C100.664 228.543 101.942 229.417 101.942 231.166C101.942 232.108 101.723 232.798 101.286 233.235C100.848 233.672 99.9067 235.135 98.4603 237.624C97.0476 240.08 95.4667 243.242 93.7176 247.11C92.0022 250.944 90.8922 254.224 90.3876 256.948C90.2867 257.285 90.2363 257.756 90.2363 258.361C90.2363 260.211 90.7408 261.136 91.7499 261.136C92.759 261.136 93.9531 260.665 95.3322 259.723C96.7112 258.748 97.939 257.722 99.0153 256.646C100.092 255.536 101.134 254.409 102.143 253.265C103.186 252.122 103.808 251.466 104.01 251.298C104.212 251.129 104.515 251.045 104.918 251.045C105.558 251.045 105.944 251.533 106.079 252.508C106.213 253.484 106.281 254.493 106.281 255.536C106.281 256.578 106.18 257.302 105.978 257.705C105.003 259.623 102.85 261.927 99.5199 264.618C96.2235 267.308 93.2131 268.654 90.4885 268.654C87.7976 268.654 85.8131 267.83 84.5349 266.182C83.2567 264.533 82.6176 262.717 82.6176 260.733C82.6176 258.714 82.954 256.948 83.6267 255.435C80.8349 259.068 77.6227 262.145 73.9899 264.668C70.3909 267.191 67.4477 268.452 65.1604 268.452C62.8732 268.452 61.0064 267.763 59.56 266.383C57.71 264.668 56.785 262.297 56.785 259.269C56.785 256.208 57.4577 253.148 58.8032 250.087C60.1823 246.992 61.9818 244.183 64.2018 241.661C66.4218 239.104 68.8604 236.784 71.5177 234.698C77.1013 230.325 82.2476 228.139 86.9567 228.139C88.7731 228.139 90.2531 228.442 91.3967 229.047C92.5403 229.653 93.2635 230.409 93.5662 231.318C94.3735 230.107 95.0462 229.35 95.5844 229.047C96.1562 228.711 96.9971 228.543 98.1071 228.543ZM91.3967 234.143C85.6449 234.143 79.6913 237.339 73.5359 243.729C71.3495 246.017 69.3313 248.758 67.4813 251.953C65.665 255.149 64.7568 257.335 64.7568 258.513C64.7568 259.69 65.0932 260.278 65.7659 260.278C66.7077 260.278 69.3313 258.428 73.6368 254.728C77.9422 250.995 80.8013 248.253 82.214 246.504C83.7613 244.553 86.8222 240.433 91.3967 234.143ZM143.768 228.038C143.768 230.359 142.473 233.756 139.883 238.23C137.293 242.67 133.963 247.177 129.893 251.752C125.857 256.326 121.568 260.295 117.028 263.659C112.487 266.989 108.938 268.654 106.382 268.654C105.003 268.654 103.741 268.149 102.598 267.14C101.454 266.131 100.882 264.533 100.882 262.347C100.882 260.127 101.925 256.646 104.01 251.903C106.096 247.16 108.148 243.158 110.166 239.895C108.383 241.207 107.29 241.863 106.886 241.863C106.516 241.863 106.028 241.425 105.423 240.551C104.851 239.676 104.565 239.004 104.565 238.533C104.565 238.028 104.649 237.658 104.818 237.423C111.444 230.056 116.119 226.373 118.844 226.373C119.988 226.373 120.946 226.709 121.72 227.382C122.493 228.055 122.88 228.862 122.88 229.804C122.88 230.746 121.737 233.454 119.449 237.927C117.162 242.401 114.875 246.925 112.588 251.499C110.3 256.04 109.157 258.899 109.157 260.077C109.157 260.278 109.258 260.379 109.459 260.379C110.334 260.379 112.688 258.647 116.523 255.183C120.391 251.684 123.519 248.438 125.908 245.445C128.296 242.451 130.381 239.441 132.164 236.414C133.98 233.386 134.888 231.402 134.888 230.46C134.888 229.518 134.687 228.744 134.283 228.139C133.913 227.5 133.728 226.827 133.728 226.121C133.728 225.381 134.216 224.574 135.191 223.699C136.2 222.791 137.478 222.337 139.026 222.337C142.187 222.337 143.768 224.237 143.768 228.038ZM173.587 228.442C174.596 228.442 175.622 228.896 176.665 229.804C177.741 230.712 178.279 232.108 178.279 233.992C178.279 235.842 177.623 238.264 176.311 241.257C175 244.217 173.2 247.244 170.913 250.339C168.626 253.4 166.103 256.293 163.345 259.017C160.62 261.708 157.66 263.928 154.465 265.677C151.303 267.393 148.427 268.25 145.837 268.25C143.247 268.25 141.162 267.443 139.581 265.828C138.033 264.18 137.26 261.91 137.26 259.017C137.26 256.091 137.966 252.862 139.379 249.33C140.825 245.798 142.675 242.687 144.929 239.996C147.182 237.271 149.621 234.833 152.245 232.68C157.727 228.274 162.537 226.07 166.675 226.07C168.525 226.07 169.921 226.524 170.862 227.433C171.199 227.735 171.367 228.004 171.367 228.24V228.543C171.838 228.475 172.578 228.442 173.587 228.442ZM168.491 235.152H168.138C166.961 235.152 166.372 234.294 166.372 232.579C163.916 233.386 161.343 234.799 158.652 236.817C155.962 238.835 153.557 241.224 151.437 243.982C147.132 249.498 144.946 254.157 144.878 257.958C144.878 259.841 145.568 260.783 146.947 260.783C148.326 260.783 150.378 259.875 153.102 258.058C155.827 256.242 158.518 253.652 161.175 250.288C163.866 246.925 165.867 244.015 167.179 241.56C168.525 239.071 169.197 237.389 169.197 236.514C169.197 235.606 168.962 235.152 168.491 235.152ZM193.668 239.39C201.606 230.376 208.367 225.869 213.95 225.869C215.33 225.869 216.456 226.289 217.331 227.13C218.239 227.937 218.693 228.997 218.693 230.309C218.693 231.62 217.751 233.824 215.868 236.918C214.018 239.979 212.302 242.569 210.721 244.688C209.88 245.764 208.922 246.303 207.845 246.303C206.803 246.303 205.979 245.916 205.373 245.142C204.801 244.368 204.515 243.46 204.515 242.418C204.515 240.097 205.76 237.473 208.249 234.547L208.148 234.446C207.038 234.547 204.28 236.733 199.874 241.005C195.501 245.277 191.767 249.111 188.673 252.508C185.612 255.872 182.282 259.976 178.683 264.819C177.64 266.266 176.749 266.989 176.009 266.989C175.302 266.989 174.361 266.77 173.183 266.333C171.972 265.862 171.249 265.526 171.014 265.324C170.745 265.122 170.61 264.786 170.61 264.315C170.61 263.844 170.745 263.306 171.014 262.7C171.283 262.061 171.787 261.17 172.527 260.026C173.234 258.883 174.31 257.033 175.756 254.476C177.236 251.92 179.524 248.052 182.618 242.872C185.713 237.692 187.563 234.564 188.168 233.487C189.446 231.267 190.489 229.653 191.296 228.644C192.81 226.726 195.366 225.768 198.965 225.768C199.773 225.768 200.176 226.272 200.176 227.281C200.176 228.862 198.713 231.839 195.787 236.212L193.668 239.39ZM246.14 211.489C246.14 213.406 245.249 215.34 243.466 217.291C241.684 219.209 239.817 220.167 237.866 220.167C235.949 220.167 234.99 219.158 234.99 217.14C234.99 215.122 235.831 213.204 237.513 211.388C239.228 209.538 241.112 208.613 243.164 208.613C244.072 208.613 244.795 208.865 245.333 209.37C245.871 209.875 246.14 210.581 246.14 211.489ZM237.967 255.536C237.967 256.545 237.866 257.268 237.664 257.705C236.016 261.069 233.392 263.793 229.793 265.879C226.194 267.931 223.066 268.957 220.409 268.957C217.751 268.957 215.464 268.065 213.547 266.283C211.63 264.5 210.671 262.683 210.671 260.833C210.671 258.983 211.596 256.293 213.446 252.761C215.296 249.229 217.146 245.966 218.996 242.973C220.846 239.979 221.771 238.364 221.771 238.129C221.771 237.86 221.418 237.355 220.711 236.615C220.039 235.875 219.702 235.337 219.702 235.001C219.702 234.631 220.392 233.706 221.771 232.226C223.184 230.712 224.882 229.232 226.867 227.786C228.885 226.306 230.415 225.566 231.458 225.566C232.534 225.566 233.493 226.037 234.334 226.979C235.175 227.92 235.595 228.778 235.595 229.552C235.595 230.325 231.593 237.608 223.587 251.398C223.486 251.6 223.2 252.054 222.729 252.761C222.292 253.433 221.939 254.005 221.67 254.476C221.434 254.913 221.149 255.452 220.812 256.091C220.139 257.436 219.803 258.563 219.803 259.471C219.803 260.615 220.577 261.187 222.124 261.187C223.671 261.187 225.269 260.665 226.917 259.623C228.599 258.546 230.045 257.369 231.256 256.091C234.418 252.693 236.218 250.995 236.655 250.995C237.529 250.995 237.967 252.508 237.967 255.536ZM268.996 229.148C268.996 231.368 268.088 233.319 266.272 235.001C264.489 236.683 262.454 237.524 260.167 237.524C259.427 237.524 258.939 237.355 258.703 237.019C258.468 236.649 258.35 236.178 258.35 235.606C258.35 235.034 258.418 234.479 258.552 233.941C257.341 234.345 255.996 234.967 254.516 235.808C253.036 236.649 251.219 237.894 249.067 239.542C246.914 241.19 245.838 242.418 245.838 243.225C245.838 243.494 246.224 243.628 246.998 243.628C247.805 243.628 249.033 243.359 250.681 242.821C252.329 242.249 253.473 241.964 254.112 241.964C254.785 241.964 255.222 241.997 255.424 242.064C255.861 242.3 256.332 242.821 256.837 243.628C257.341 244.402 257.593 245.024 257.593 245.495C257.593 245.933 257.156 246.521 256.282 247.261C255.407 248.001 254.415 248.573 253.305 248.977C252.195 249.347 251.455 249.633 251.085 249.834C243.988 253.803 240.439 256.528 240.439 258.008C240.439 260.632 242.676 261.943 247.149 261.943C250.008 261.943 252.884 261.035 255.777 259.219C258.233 257.672 260.436 256.108 262.387 254.527C264.371 252.912 265.616 251.92 266.12 251.55C266.658 251.18 267.062 250.995 267.331 250.995C268.206 250.995 268.643 251.97 268.643 253.921C268.643 255.872 268.525 257.167 268.29 257.806C268.054 258.412 267.382 259.168 266.272 260.077C259.073 265.929 252.262 268.856 245.838 268.856C242.407 268.856 239.665 268.385 237.614 267.443C233.846 265.728 231.963 263.104 231.963 259.572C231.963 254.93 235.175 251.415 241.599 249.027C240.321 248.455 239.497 247.732 239.127 246.858C238.757 245.949 238.572 244.52 238.572 242.569C238.572 240.584 239.48 238.499 241.297 236.313C243.147 234.093 245.4 232.276 248.058 230.864C253.978 227.668 259.258 226.07 263.9 226.07C265.01 226.07 266.137 226.339 267.281 226.878C268.424 227.416 268.996 228.173 268.996 229.148ZM301.792 201.903L303.86 202.407C304.163 202.407 304.432 202.559 304.667 202.861C304.903 203.164 305.021 203.45 305.021 203.719C305.021 203.988 304.667 204.711 303.961 205.889C303.255 207.066 302.414 208.411 301.438 209.925C300.497 211.405 299.992 212.212 299.925 212.347C302.548 212.145 304.398 212.044 305.475 212.044C306.585 212.044 307.342 212.128 307.745 212.296C308.149 212.431 308.603 212.851 309.107 213.558C309.646 214.23 310.133 214.752 310.571 215.122C311.008 215.458 311.226 215.979 311.226 216.686C311.226 217.392 310.789 217.998 309.915 218.502C309.074 218.973 308.166 219.259 307.19 219.36C299.387 220.134 295.081 220.537 294.274 220.571C291.549 224.742 287.732 231.25 282.821 240.097C277.943 248.909 275.353 254.426 275.051 256.646C274.916 257.655 274.849 258.479 274.849 259.118C274.849 260.43 275.538 261.086 276.918 261.086C278.297 261.086 279.827 260.564 281.509 259.522C283.191 258.445 284.738 257.285 286.151 256.04C289.918 252.677 291.936 250.995 292.205 250.995C293.08 250.995 293.517 252.508 293.517 255.536C293.517 257.184 292.76 258.664 291.247 259.976C287.849 262.902 284.99 265.105 282.669 266.585C280.348 268.065 278.028 268.805 275.707 268.805C275.202 268.805 274.731 268.755 274.294 268.654C271.603 268.149 269.618 267.174 268.34 265.728C267.096 264.248 266.473 262.263 266.473 259.774C266.507 257.285 267.247 254.274 268.693 250.743C270.173 247.177 272.023 243.393 274.243 239.39C277.876 232.865 281.509 226.743 285.142 221.025L283.224 221.277C279.322 221.714 277.052 221.933 276.413 221.933H275.959C274.983 221.933 274.042 221.748 273.133 221.378C272.225 220.974 271.771 220.487 271.771 219.915C271.771 219.343 272.007 218.788 272.478 218.25C272.982 217.712 273.285 217.291 273.386 216.989C273.621 216.249 274.496 215.424 276.009 214.516C277.557 213.608 278.717 213.137 279.491 213.104C280.264 213.036 281.004 212.986 281.711 212.952C282.451 212.919 283.258 212.885 284.132 212.851C285.041 212.818 285.73 212.784 286.201 212.75L290.742 212.549C293.567 208.31 295.502 205.586 296.544 204.375C297.621 203.164 298.243 202.508 298.411 202.407C298.579 202.273 298.916 202.205 299.42 202.205L301.792 201.903Z" fill="white"/>
<path d="M253.872 442.256L286.874 507.007L319.874 442.084" fill="#F46F1B"/>
<path d="M32.8549 171.256V19.3227H356.648V442.084H32.8549V306.409" stroke="#231F20" stroke-width="6.66667" stroke-miterlimit="10"/>
<path d="M87.8306 77.052V152.389H97.3272C102.688 152.389 105.905 149.677 105.905 142.144V87.2987C105.905 79.764 102.688 77.052 97.3272 77.052H87.8306ZM70.9792 61.984H97.6335C114.482 61.984 122.754 71.176 122.754 88.0507V141.391C122.754 158.265 114.482 167.457 97.6335 167.457H70.9792V61.984" fill="#050606"/>
<path d="M150.322 106.433H173.452V121.501H150.322V152.389H179.427V167.457H133.473V61.984H179.427V77.052H150.322V106.433" fill="#050606"/>
<path d="M87.752 341.961H109.504V357.029H87.752V400.575H70.9024V295.101H115.477V310.169H87.752V341.961" fill="#050606"/>
<path d="M140.443 310.169V342.564H147.029C153.309 342.564 157.138 339.852 157.138 331.415V321.019C157.138 313.484 154.536 310.169 148.559 310.169H140.443ZM158.825 400.575C157.906 397.863 157.292 396.204 157.292 387.616V371.041C157.292 361.248 153.922 357.632 146.262 357.632H140.443V400.575H123.593V295.101H149.02C166.483 295.101 173.988 303.088 173.988 319.361V327.647C173.988 338.496 170.466 345.579 162.959 349.043C171.383 352.509 174.142 360.495 174.142 371.493V387.767C174.142 392.889 174.295 396.656 175.98 400.575H158.825" fill="#050606"/>
<path d="M185.166 295.101H202.016V400.575H185.166V295.101Z" fill="#050606"/>
<path d="M231.116 339.551H254.246V354.619H231.116V385.507H260.22V400.575H214.267V295.101H260.22V310.169H231.116V339.551" fill="#050606"/>
<path d="M265.731 295.101H317.812V310.169H300.196V400.575H283.347V310.169H265.731V295.101Z" fill="#050606"/>
<path d="M19.5497 250.642L19.146 249.229C19.146 248.96 19.2806 248.741 19.5497 248.573C19.8187 248.371 20.1551 247.984 20.5587 247.413C20.996 246.841 21.2987 246.471 21.4669 246.303C21.6687 246.134 21.9378 245.899 22.2742 245.596C22.6442 245.26 22.9469 244.991 23.1824 244.789C23.8551 244.217 24.326 243.898 24.5951 243.83C24.8642 243.729 25.3351 243.578 26.0078 243.376C28.0933 242.703 29.8592 242.233 31.3055 241.964C39.8828 227.634 46.7614 216.434 51.9414 208.361C57.155 200.255 60.115 195.781 60.8213 194.94C61.5613 194.065 62.8563 193.292 64.7063 192.619C66.5563 191.946 67.9018 191.627 68.7427 191.66C69.6172 191.66 70.0545 192.03 70.0545 192.77C70.0545 193.073 69.9368 193.477 69.7013 193.981C69.4995 194.486 67.6663 197.463 64.2018 202.912C51.3864 222.993 43.1791 236.01 39.5801 241.964L40.8414 242.418C48.645 240.971 52.6982 240.248 53.0009 240.248C53.3373 240.248 54.1446 240.484 55.4227 240.954C56.7345 241.392 57.5923 241.644 57.9959 241.711C58.7695 241.846 59.1564 242.485 59.1564 243.628C59.1564 244.738 58.8032 245.361 58.0968 245.495C57.525 245.596 56.1459 245.933 53.9596 246.504C51.8068 247.043 50.0746 247.463 48.7628 247.766C50.5455 249.885 51.4368 252.138 51.4368 254.527C51.4368 256.915 50.3773 260.077 48.2582 264.012C46.1391 267.914 43.4314 271.782 40.1351 275.617C36.8387 279.451 33.3742 283.067 29.7414 286.464C26.1424 289.862 22.6778 292.603 19.3478 294.688C16.0179 296.807 13.5624 297.867 11.9815 297.867C10.367 297.867 8.93742 297.43 7.69288 296.555C6.4147 295.714 5.77561 294.453 5.77561 292.771C5.77561 291.089 6.12879 289.122 6.83515 286.868C7.50788 284.648 8.24788 282.596 9.05515 280.712C9.86242 278.862 11.2415 276.188 13.1924 272.69C15.2779 268.923 19.0451 262.482 24.4942 253.366C23.5524 253.534 22.8292 253.618 22.3247 253.618C21.8201 253.618 21.3492 253.501 20.9119 253.265C20.4747 253.03 20.1719 252.727 20.0037 252.357C19.701 251.684 19.5497 251.113 19.5497 250.642ZM33.7273 272.387C36.2501 269.461 38.3691 266.4 40.0846 263.205C41.8 259.976 42.6578 257.352 42.6578 255.334C42.6578 253.282 41.6655 251.483 39.681 249.935L34.0805 251.197C33.5087 252.138 32.6173 253.635 31.4064 255.687C30.2292 257.705 29.2537 259.353 28.4801 260.632C27.7401 261.91 26.7815 263.558 25.6042 265.576C24.4269 267.594 23.4346 269.293 22.6274 270.672C21.8537 272.051 20.9792 273.598 20.0037 275.314C19.0619 277.063 18.2883 278.543 17.6828 279.754C17.0438 280.998 16.4383 282.226 15.8665 283.437C14.7565 285.792 14.2015 287.322 14.2015 288.028C14.2015 288.735 14.3865 289.088 14.7565 289.088C15.4292 289.088 16.8251 288.314 18.9442 286.767C21.0297 285.253 23.3842 283.202 26.0078 280.612C28.6651 278.055 31.2383 275.314 33.7273 272.387ZM98.1071 228.543C100.664 228.543 101.942 229.417 101.942 231.166C101.942 232.108 101.723 232.798 101.286 233.235C100.848 233.672 99.9067 235.135 98.4603 237.624C97.0476 240.08 95.4667 243.242 93.7176 247.11C92.0022 250.944 90.8922 254.224 90.3876 256.948C90.2867 257.285 90.2363 257.756 90.2363 258.361C90.2363 260.211 90.7408 261.136 91.7499 261.136C92.759 261.136 93.9531 260.665 95.3322 259.723C96.7112 258.748 97.939 257.722 99.0153 256.646C100.092 255.536 101.134 254.409 102.143 253.265C103.186 252.122 103.808 251.466 104.01 251.298C104.212 251.129 104.515 251.045 104.918 251.045C105.558 251.045 105.944 251.533 106.079 252.508C106.213 253.484 106.281 254.493 106.281 255.536C106.281 256.578 106.18 257.302 105.978 257.705C105.003 259.623 102.85 261.927 99.5199 264.618C96.2235 267.308 93.2131 268.654 90.4885 268.654C87.7976 268.654 85.8131 267.83 84.5349 266.182C83.2567 264.533 82.6176 262.717 82.6176 260.733C82.6176 258.714 82.954 256.948 83.6267 255.435C80.8349 259.068 77.6227 262.145 73.9899 264.668C70.3909 267.191 67.4477 268.452 65.1604 268.452C62.8732 268.452 61.0064 267.763 59.56 266.383C57.71 264.668 56.785 262.297 56.785 259.269C56.785 256.208 57.4577 253.148 58.8032 250.087C60.1823 246.992 61.9818 244.183 64.2018 241.661C66.4218 239.104 68.8604 236.784 71.5177 234.698C77.1013 230.325 82.2476 228.139 86.9567 228.139C88.7731 228.139 90.2531 228.442 91.3967 229.047C92.5403 229.653 93.2635 230.409 93.5662 231.318C94.3735 230.107 95.0462 229.35 95.5844 229.047C96.1562 228.711 96.9971 228.543 98.1071 228.543ZM91.3967 234.143C85.6449 234.143 79.6913 237.339 73.5359 243.729C71.3495 246.017 69.3313 248.758 67.4813 251.953C65.665 255.149 64.7568 257.335 64.7568 258.513C64.7568 259.69 65.0932 260.278 65.7659 260.278C66.7077 260.278 69.3313 258.428 73.6368 254.728C77.9422 250.995 80.8013 248.253 82.214 246.504C83.7613 244.553 86.8222 240.433 91.3967 234.143ZM143.768 228.038C143.768 230.359 142.473 233.756 139.883 238.23C137.293 242.67 133.963 247.177 129.893 251.752C125.857 256.326 121.568 260.295 117.028 263.659C112.487 266.989 108.938 268.654 106.382 268.654C105.003 268.654 103.741 268.149 102.598 267.14C101.454 266.131 100.882 264.533 100.882 262.347C100.882 260.127 101.925 256.646 104.01 251.903C106.096 247.16 108.148 243.158 110.166 239.895C108.383 241.207 107.29 241.863 106.886 241.863C106.516 241.863 106.028 241.425 105.423 240.551C104.851 239.676 104.565 239.004 104.565 238.533C104.565 238.028 104.649 237.658 104.818 237.423C111.444 230.056 116.119 226.373 118.844 226.373C119.988 226.373 120.946 226.709 121.72 227.382C122.493 228.055 122.88 228.862 122.88 229.804C122.88 230.746 121.737 233.454 119.449 237.927C117.162 242.401 114.875 246.925 112.588 251.499C110.3 256.04 109.157 258.899 109.157 260.077C109.157 260.278 109.258 260.379 109.459 260.379C110.334 260.379 112.688 258.647 116.523 255.183C120.391 251.684 123.519 248.438 125.908 245.445C128.296 242.451 130.381 239.441 132.164 236.414C133.98 233.386 134.888 231.402 134.888 230.46C134.888 229.518 134.687 228.744 134.283 228.139C133.913 227.5 133.728 226.827 133.728 226.121C133.728 225.381 134.216 224.574 135.191 223.699C136.2 222.791 137.478 222.337 139.026 222.337C142.187 222.337 143.768 224.237 143.768 228.038ZM173.587 228.442C174.596 228.442 175.622 228.896 176.665 229.804C177.741 230.712 178.279 232.108 178.279 233.992C178.279 235.842 177.623 238.264 176.311 241.257C175 244.217 173.2 247.244 170.913 250.339C168.626 253.4 166.103 256.293 163.345 259.017C160.62 261.708 157.66 263.928 154.465 265.677C151.303 267.393 148.427 268.25 145.837 268.25C143.247 268.25 141.162 267.443 139.581 265.828C138.033 264.18 137.26 261.91 137.26 259.017C137.26 256.091 137.966 252.862 139.379 249.33C140.825 245.798 142.675 242.687 144.929 239.996C147.182 237.271 149.621 234.833 152.245 232.68C157.727 228.274 162.537 226.07 166.675 226.07C168.525 226.07 169.921 226.524 170.862 227.433C171.199 227.735 171.367 228.004 171.367 228.24V228.543C171.838 228.475 172.578 228.442 173.587 228.442ZM168.491 235.152H168.138C166.961 235.152 166.372 234.294 166.372 232.579C163.916 233.386 161.343 234.799 158.652 236.817C155.962 238.835 153.557 241.224 151.437 243.982C147.132 249.498 144.946 254.157 144.878 257.958C144.878 259.841 145.568 260.783 146.947 260.783C148.326 260.783 150.378 259.875 153.102 258.058C155.827 256.242 158.518 253.652 161.175 250.288C163.866 246.925 165.867 244.015 167.179 241.56C168.525 239.071 169.197 237.389 169.197 236.514C169.197 235.606 168.962 235.152 168.491 235.152ZM193.668 239.39C201.606 230.376 208.367 225.869 213.95 225.869C215.33 225.869 216.456 226.289 217.331 227.13C218.239 227.937 218.693 228.997 218.693 230.309C218.693 231.62 217.751 233.824 215.868 236.918C214.018 239.979 212.302 242.569 210.721 244.688C209.88 245.764 208.922 246.303 207.845 246.303C206.803 246.303 205.979 245.916 205.373 245.142C204.801 244.368 204.515 243.46 204.515 242.418C204.515 240.097 205.76 237.473 208.249 234.547L208.148 234.446C207.038 234.547 204.28 236.733 199.874 241.005C195.501 245.277 191.767 249.111 188.673 252.508C185.612 255.872 182.282 259.976 178.683 264.819C177.64 266.266 176.749 266.989 176.009 266.989C175.302 266.989 174.361 266.77 173.183 266.333C171.972 265.862 171.249 265.526 171.014 265.324C170.745 265.122 170.61 264.786 170.61 264.315C170.61 263.844 170.745 263.306 171.014 262.7C171.283 262.061 171.787 261.17 172.527 260.026C173.234 258.883 174.31 257.033 175.756 254.476C177.236 251.92 179.524 248.052 182.618 242.872C185.713 237.692 187.563 234.564 188.168 233.487C189.446 231.267 190.489 229.653 191.296 228.644C192.81 226.726 195.366 225.768 198.965 225.768C199.773 225.768 200.176 226.272 200.176 227.281C200.176 228.862 198.713 231.839 195.787 236.212L193.668 239.39ZM246.14 211.489C246.14 213.406 245.249 215.34 243.466 217.291C241.684 219.209 239.817 220.167 237.866 220.167C235.949 220.167 234.99 219.158 234.99 217.14C234.99 215.122 235.831 213.204 237.513 211.388C239.228 209.538 241.112 208.613 243.164 208.613C244.072 208.613 244.795 208.865 245.333 209.37C245.871 209.875 246.14 210.581 246.14 211.489ZM237.967 255.536C237.967 256.545 237.866 257.268 237.664 257.705C236.016 261.069 233.392 263.793 229.793 265.879C226.194 267.931 223.066 268.957 220.409 268.957C217.751 268.957 215.464 268.065 213.547 266.283C211.63 264.5 210.671 262.683 210.671 260.833C210.671 258.983 211.596 256.293 213.446 252.761C215.296 249.229 217.146 245.966 218.996 242.973C220.846 239.979 221.771 238.364 221.771 238.129C221.771 237.86 221.418 237.355 220.711 236.615C220.039 235.875 219.702 235.337 219.702 235.001C219.702 234.631 220.392 233.706 221.771 232.226C223.184 230.712 224.882 229.232 226.867 227.786C228.885 226.306 230.415 225.566 231.458 225.566C232.534 225.566 233.493 226.037 234.334 226.979C235.175 227.92 235.595 228.778 235.595 229.552C235.595 230.325 231.593 237.608 223.587 251.398C223.486 251.6 223.2 252.054 222.729 252.761C222.292 253.433 221.939 254.005 221.67 254.476C221.434 254.913 221.149 255.452 220.812 256.091C220.139 257.436 219.803 258.563 219.803 259.471C219.803 260.615 220.577 261.187 222.124 261.187C223.671 261.187 225.269 260.665 226.917 259.623C228.599 258.546 230.045 257.369 231.256 256.091C234.418 252.693 236.218 250.995 236.655 250.995C237.529 250.995 237.967 252.508 237.967 255.536ZM268.996 229.148C268.996 231.368 268.088 233.319 266.272 235.001C264.489 236.683 262.454 237.524 260.167 237.524C259.427 237.524 258.939 237.355 258.703 237.019C258.468 236.649 258.35 236.178 258.35 235.606C258.35 235.034 258.418 234.479 258.552 233.941C257.341 234.345 255.996 234.967 254.516 235.808C253.036 236.649 251.219 237.894 249.067 239.542C246.914 241.19 245.838 242.418 245.838 243.225C245.838 243.494 246.224 243.628 246.998 243.628C247.805 243.628 249.033 243.359 250.681 242.821C252.329 242.249 253.473 241.964 254.112 241.964C254.785 241.964 255.222 241.997 255.424 242.064C255.861 242.3 256.332 242.821 256.837 243.628C257.341 244.402 257.593 245.024 257.593 245.495C257.593 245.933 257.156 246.521 256.282 247.261C255.407 248.001 254.415 248.573 253.305 248.977C252.195 249.347 251.455 249.633 251.085 249.834C243.988 253.803 240.439 256.528 240.439 258.008C240.439 260.632 242.676 261.943 247.149 261.943C250.008 261.943 252.884 261.035 255.777 259.219C258.233 257.672 260.436 256.108 262.387 254.527C264.371 252.912 265.616 251.92 266.12 251.55C266.658 251.18 267.062 250.995 267.331 250.995C268.206 250.995 268.643 251.97 268.643 253.921C268.643 255.872 268.525 257.167 268.29 257.806C268.054 258.412 267.382 259.168 266.272 260.077C259.073 265.929 252.262 268.856 245.838 268.856C242.407 268.856 239.665 268.385 237.614 267.443C233.846 265.728 231.963 263.104 231.963 259.572C231.963 254.93 235.175 251.415 241.599 249.027C240.321 248.455 239.497 247.732 239.127 246.858C238.757 245.949 238.572 244.52 238.572 242.569C238.572 240.584 239.48 238.499 241.297 236.313C243.147 234.093 245.4 232.276 248.058 230.864C253.978 227.668 259.258 226.07 263.9 226.07C265.01 226.07 266.137 226.339 267.281 226.878C268.424 227.416 268.996 228.173 268.996 229.148ZM301.792 201.903L303.86 202.407C304.163 202.407 304.432 202.559 304.667 202.861C304.903 203.164 305.021 203.45 305.021 203.719C305.021 203.988 304.667 204.711 303.961 205.889C303.255 207.066 302.414 208.411 301.438 209.925C300.497 211.405 299.992 212.212 299.925 212.347C302.548 212.145 304.398 212.044 305.475 212.044C306.585 212.044 307.342 212.128 307.745 212.296C308.149 212.431 308.603 212.851 309.107 213.558C309.646 214.23 310.133 214.752 310.571 215.122C311.008 215.458 311.226 215.979 311.226 216.686C311.226 217.392 310.789 217.998 309.915 218.502C309.074 218.973 308.166 219.259 307.19 219.36C299.387 220.134 295.081 220.537 294.274 220.571C291.549 224.742 287.732 231.25 282.821 240.097C277.943 248.909 275.353 254.426 275.051 256.646C274.916 257.655 274.849 258.479 274.849 259.118C274.849 260.43 275.538 261.086 276.918 261.086C278.297 261.086 279.827 260.564 281.509 259.522C283.191 258.445 284.738 257.285 286.151 256.04C289.918 252.677 291.936 250.995 292.205 250.995C293.08 250.995 293.517 252.508 293.517 255.536C293.517 257.184 292.76 258.664 291.247 259.976C287.849 262.902 284.99 265.105 282.669 266.585C280.348 268.065 278.028 268.805 275.707 268.805C275.202 268.805 274.731 268.755 274.294 268.654C271.603 268.149 269.618 267.174 268.34 265.728C267.096 264.248 266.473 262.263 266.473 259.774C266.507 257.285 267.247 254.274 268.693 250.743C270.173 247.177 272.023 243.393 274.243 239.39C277.876 232.865 281.509 226.743 285.142 221.025L283.224 221.277C279.322 221.714 277.052 221.933 276.413 221.933H275.959C274.983 221.933 274.042 221.748 273.133 221.378C272.225 220.974 271.771 220.487 271.771 219.915C271.771 219.343 272.007 218.788 272.478 218.25C272.982 217.712 273.285 217.291 273.386 216.989C273.621 216.249 274.496 215.424 276.009 214.516C277.557 213.608 278.717 213.137 279.491 213.104C280.264 213.036 281.004 212.986 281.711 212.952C282.451 212.919 283.258 212.885 284.132 212.851C285.041 212.818 285.73 212.784 286.201 212.75L290.742 212.549C293.567 208.31 295.502 205.586 296.544 204.375C297.621 203.164 298.243 202.508 298.411 202.407C298.579 202.273 298.916 202.205 299.42 202.205L301.792 201.903Z" fill="#F46F1B"/>
</g>
<defs>
<clipPath id="clip0">
<rect width="367" height="507" fill="white"/>
</clipPath>
</defs>
</svg>
