<svg width="29" height="24" viewBox="0 0 29 24" fill="none" xmlns="http://www.w3.org/2000/svg">
<path fill-rule="evenodd" clip-rule="evenodd" d="M2.52216 3.09507C2.81906 2.67936 3.30529 2.40625 3.85032 2.40625H24.9015C25.4465 2.40625 25.9327 2.67936 26.2296 3.09507L14.3759 9.73316L2.52216 3.09507ZM0.380965 2.9656C0.368911 2.98414 0.357387 3.00321 0.346423 3.02279C0.227916 3.23441 0.194602 3.47062 0.235323 3.69187C0.224477 3.80571 0.218929 3.92105 0.218929 4.03764V19.826C0.218929 21.8255 1.85077 23.4574 3.85032 23.4574H24.9015C26.901 23.4574 28.5328 21.8255 28.5328 19.826V4.03764C28.5328 3.92105 28.5273 3.80571 28.5165 3.69187C28.5572 3.47062 28.5239 3.23441 28.4054 3.02279C28.3944 3.00321 28.3829 2.98414 28.3708 2.96559C27.9115 1.48624 26.5281 0.40625 24.9015 0.40625H3.85032C2.22364 0.40625 0.840313 1.48624 0.380965 2.9656ZM26.5328 5.21751V19.826C26.5328 20.721 25.7964 21.4574 24.9015 21.4574H3.85032C2.95534 21.4574 2.21893 20.721 2.21893 19.826V5.21751L13.8873 11.7518C14.1908 11.9218 14.5609 11.9218 14.8645 11.7518L26.5328 5.21751Z" fill="#fff"/>
</svg>
