<svg width="30" height="25" viewBox="0 0 30 25" fill="none" xmlns="http://www.w3.org/2000/svg">
<path d="M6 12.5C6 9.83941 6.92252 7.26114 8.61038 5.20448C10.2982 3.14782 12.647 1.74002 15.2565 1.22097C17.8659 0.701914 20.5746 1.10371 22.9211 2.3579C25.2675 3.6121 27.1065 5.64108 28.1246 8.09914C29.1428 10.5572 29.2771 13.2923 28.5048 15.8383C27.7325 18.3843 26.1013 20.5838 23.8891 22.0619C21.6769 23.54 19.0206 24.2054 16.3728 23.9446C13.725 23.6838 11.2496 22.513 9.36827 20.6317" stroke="#fff" stroke-width="2"/>
<path d="M17 8V14L21 16" stroke="#fff" stroke-width="2" stroke-linecap="round" stroke-linejoin="round"/>
<path d="M5.28926 16.2819C5.6806 16.6773 6.3194 16.6773 6.71074 16.2819L9.51017 13.4535C10.1351 12.822 9.68785 11.75 8.79943 11.75H3.20057C2.31215 11.75 1.86487 12.822 2.48983 13.4535L5.28926 16.2819Z" fill="#fff"/>
</svg>
