<svg width="367" height="507" viewBox="0 0 367 507" fill="none" xmlns="http://www.w3.org/2000/svg">
<g clip-path="url(#clip0)">
<path d="M249.723 442.256L282.183 507.007L314.645 442.084" fill="white"/>
<path d="M249.723 442.256L282.183 507.007L314.645 442.084" fill="#F46F1B"/>
<path d="M32.3172 170.409V19.3227H350.819V442.084H32.3172V308.747" stroke="#231F20" stroke-width="6.66667" stroke-miterlimit="10"/>
<path d="M19.6193 297.421L15.8291 296.592C14.6842 296.474 13.7366 295.743 12.9865 294.401C12.7891 294.046 12.6706 293.829 12.6311 293.75C12.5522 293.671 12.5127 293.572 12.5127 293.453C12.5127 293.335 12.5522 293.177 12.6311 292.98C12.7101 292.743 12.8286 292.447 12.9865 292.091C13.1444 291.697 13.2826 291.302 13.401 290.907C14.2301 288.104 21.159 274.917 34.1877 251.347C47.2164 227.777 54.0268 215.637 54.619 214.926C55.2507 214.176 55.7048 213.643 55.9811 213.327C56.297 212.972 56.6326 212.676 56.9879 212.439C57.3827 212.202 57.6591 212.044 57.817 211.965C58.0144 211.886 58.3697 211.768 58.883 211.61C59.4357 211.412 59.9884 211.215 60.5412 211.017C61.1334 210.82 61.7453 210.563 62.377 210.248C63.0087 209.892 63.443 209.655 63.6799 209.537C63.9168 209.379 64.2129 209.3 64.5682 209.3C64.963 209.3 65.3183 209.478 65.6342 209.833C65.9895 210.188 66.1672 210.642 66.1672 211.195V211.61C65.9698 212.36 60.8175 221.717 50.7104 239.681C40.6428 257.644 35.155 267.475 34.2469 269.173C37.3264 267.949 41.8667 264.929 47.8678 260.112C53.8689 255.295 56.8892 252.097 56.9287 250.518C57.0076 248.939 57.5604 247.794 58.5869 247.083C59.6134 246.373 60.7188 246.017 61.9032 246.017C63.1272 246.017 64.1537 246.432 64.9828 247.261C65.8513 248.051 66.2659 249.373 66.2264 251.229C66.1869 253.045 65.1604 255.374 63.1469 258.217C61.1334 261.02 58.725 263.626 55.9219 266.034C49.8813 271.167 44.8475 274.562 40.8205 276.22C44.0184 284.866 47.6901 289.19 51.8356 289.19C54.086 288.874 56.8497 287.038 60.1266 283.682C61.3505 282.458 62.5349 281.234 63.6799 280.01C64.8248 278.747 65.5157 277.997 65.7526 277.76C66.029 277.523 66.4041 277.405 66.8778 277.405C67.628 277.405 68.082 277.977 68.2399 279.122C68.3978 280.267 68.4768 281.451 68.4768 282.675C68.4768 283.899 68.3584 284.748 68.1215 285.222C66.9765 287.433 64.4695 290.137 60.6004 293.335C56.7313 296.494 53.0595 298.073 49.5852 298.073C47.0979 298.073 45.1239 297.599 43.6631 296.651C42.2023 295.704 41.0574 294.914 40.2283 294.283C39.3992 293.651 38.5503 292.802 37.6817 291.736C36.8132 290.631 36.0828 289.723 35.4906 289.012C34.9378 288.301 34.2864 287.314 33.5363 286.051C32.8256 284.787 32.3124 283.899 31.9965 283.386C31.6807 282.833 31.2069 281.965 30.5752 280.78C29.983 279.556 29.6474 278.885 29.5684 278.767C28.8578 280.227 28.0682 281.807 27.1996 283.504C26.331 285.202 25.5414 286.781 24.8307 288.242C24.1201 289.703 23.4686 291.045 22.8764 292.269C22.2842 293.453 21.7907 294.441 21.3959 295.23C21.0406 296.02 20.8432 296.434 20.8037 296.474C20.5273 297.105 20.1325 297.421 19.6193 297.421ZM103.536 250.873C104.72 250.873 105.924 251.406 107.148 252.472C108.412 253.538 109.043 255.177 109.043 257.388C109.043 259.559 108.274 262.402 106.734 265.916C105.194 269.39 103.082 272.943 100.397 276.575C97.7124 280.168 94.7513 283.564 91.5139 286.761C88.3159 289.92 84.8416 292.526 81.0909 294.579C77.3797 296.592 74.0041 297.599 70.9641 297.599C67.9241 297.599 65.4763 296.651 63.6207 294.756C61.8045 292.822 60.8965 290.157 60.8965 286.761C60.8965 283.327 61.7256 279.536 63.3838 275.391C65.0815 271.246 67.2529 267.594 69.8981 264.435C72.5433 261.237 75.4057 258.375 78.4852 255.848C84.9206 250.676 90.5663 248.09 95.4225 248.09C97.5939 248.09 99.2324 248.623 100.338 249.689C100.733 250.044 100.93 250.36 100.93 250.637V250.992C101.483 250.913 102.351 250.873 103.536 250.873ZM97.5545 258.75H97.1399C95.7581 258.75 95.0672 257.743 95.0672 255.73C92.1851 256.677 89.1648 258.335 86.0063 260.704C82.8478 263.073 80.025 265.876 77.5377 269.114C72.4841 275.588 69.9179 281.056 69.8389 285.518C69.8389 287.729 70.6483 288.834 72.267 288.834C73.8857 288.834 76.294 287.768 79.492 285.636C82.6899 283.504 85.8484 280.464 88.9674 276.516C92.1258 272.568 94.4749 269.153 96.0147 266.271C97.5939 263.349 98.3836 261.375 98.3836 260.349C98.3836 259.283 98.1072 258.75 97.5545 258.75ZM108.688 297.421L104.898 296.592C103.753 296.474 102.805 295.743 102.055 294.401C101.858 294.046 101.739 293.829 101.7 293.75C101.621 293.671 101.582 293.572 101.582 293.453C101.582 293.335 101.621 293.177 101.7 292.98C101.779 292.743 101.897 292.447 102.055 292.091C102.213 291.697 102.351 291.302 102.47 290.907C103.299 288.104 110.228 274.917 123.256 251.347C136.285 227.777 143.096 215.637 143.688 214.926C144.32 214.176 144.774 213.643 145.05 213.327C145.366 212.972 145.701 212.676 146.057 212.439C146.451 212.202 146.728 212.044 146.886 211.965C147.083 211.886 147.439 211.768 147.952 211.61C148.504 211.412 149.057 211.215 149.61 211.017C150.202 210.82 150.814 210.563 151.446 210.248C152.078 209.892 152.512 209.655 152.749 209.537C152.986 209.379 153.282 209.3 153.637 209.3C154.032 209.3 154.387 209.478 154.703 209.833C155.058 210.188 155.236 210.642 155.236 211.195V211.61C155.039 212.36 149.886 221.717 139.779 239.681C129.712 257.644 124.224 267.475 123.316 269.173C126.395 267.949 130.936 264.929 136.937 260.112C142.938 255.295 145.958 252.097 145.997 250.518C146.076 248.939 146.629 247.794 147.656 247.083C148.682 246.373 149.788 246.017 150.972 246.017C152.196 246.017 153.222 246.432 154.052 247.261C154.92 248.051 155.335 249.373 155.295 251.229C155.256 253.045 154.229 255.374 152.216 258.217C150.202 261.02 147.794 263.626 144.991 266.034C138.95 271.167 133.916 274.562 129.889 276.22C133.087 284.866 136.759 289.19 140.904 289.19C143.155 288.874 145.918 287.038 149.195 283.682C150.419 282.458 151.604 281.234 152.749 280.01C153.894 278.747 154.585 277.997 154.821 277.76C155.098 277.523 155.473 277.405 155.947 277.405C156.697 277.405 157.151 277.977 157.309 279.122C157.467 280.267 157.546 281.451 157.546 282.675C157.546 283.899 157.427 284.748 157.19 285.222C156.045 287.433 153.538 290.137 149.669 293.335C145.8 296.494 142.128 298.073 138.654 298.073C136.167 298.073 134.193 297.599 132.732 296.651C131.271 295.704 130.126 294.914 129.297 294.283C128.468 293.651 127.619 292.802 126.751 291.736C125.882 290.631 125.152 289.723 124.559 289.012C124.007 288.301 123.355 287.314 122.605 286.051C121.894 284.787 121.381 283.899 121.065 283.386C120.749 282.833 120.276 281.965 119.644 280.78C119.052 279.556 118.716 278.885 118.637 278.767C117.927 280.227 117.137 281.807 116.268 283.504C115.4 285.202 114.61 286.781 113.9 288.242C113.189 289.703 112.537 291.045 111.945 292.269C111.353 293.453 110.86 294.441 110.465 295.23C110.109 296.02 109.912 296.434 109.872 296.474C109.596 297.105 109.201 297.421 108.688 297.421ZM193.138 251.702C193.138 254.308 192.072 256.598 189.94 258.572C187.847 260.546 185.459 261.533 182.774 261.533C181.905 261.533 181.333 261.336 181.056 260.941C180.78 260.507 180.642 259.954 180.642 259.283C180.642 258.612 180.721 257.96 180.879 257.329C179.457 257.802 177.878 258.533 176.141 259.52C174.404 260.507 172.272 261.968 169.745 263.902C167.218 265.837 165.955 267.278 165.955 268.225C165.955 268.541 166.409 268.699 167.317 268.699C168.265 268.699 169.706 268.383 171.64 267.751C173.575 267.08 174.917 266.745 175.667 266.745C176.457 266.745 176.97 266.784 177.207 266.863C177.72 267.139 178.273 267.751 178.865 268.699C179.457 269.607 179.754 270.337 179.754 270.89C179.754 271.403 179.24 272.094 178.214 272.963C177.187 273.832 176.023 274.503 174.72 274.976C173.417 275.411 172.548 275.746 172.114 275.983C163.784 280.642 159.618 283.84 159.618 285.577C159.618 288.657 162.244 290.196 167.495 290.196C170.851 290.196 174.226 289.13 177.622 286.998C180.504 285.182 183.09 283.346 185.38 281.491C187.709 279.596 189.17 278.431 189.762 277.997C190.394 277.562 190.867 277.345 191.183 277.345C192.21 277.345 192.723 278.49 192.723 280.78C192.723 283.07 192.585 284.59 192.308 285.34C192.032 286.051 191.243 286.939 189.94 288.005C181.491 294.875 173.496 298.31 165.955 298.31C161.928 298.31 158.71 297.757 156.302 296.651C151.88 294.638 149.669 291.558 149.669 287.413C149.669 281.965 153.44 277.839 160.98 275.036C159.48 274.364 158.513 273.516 158.079 272.489C157.644 271.423 157.427 269.745 157.427 267.455C157.427 265.126 158.493 262.678 160.625 260.112C162.797 257.506 165.442 255.374 168.561 253.716C175.509 249.965 181.708 248.09 187.156 248.09C188.459 248.09 189.782 248.406 191.124 249.038C192.466 249.669 193.138 250.558 193.138 251.702ZM231.631 219.723L234.059 220.315C234.415 220.315 234.731 220.493 235.007 220.848C235.283 221.204 235.422 221.539 235.422 221.855C235.422 222.171 235.007 223.02 234.178 224.401C233.349 225.783 232.362 227.363 231.217 229.139C230.111 230.876 229.519 231.824 229.44 231.982C232.52 231.745 234.691 231.626 235.955 231.626C237.257 231.626 238.146 231.725 238.62 231.923C239.093 232.081 239.626 232.574 240.218 233.403C240.85 234.193 241.423 234.805 241.936 235.239C242.449 235.634 242.706 236.246 242.706 237.075C242.706 237.904 242.193 238.615 241.166 239.207C240.179 239.76 239.113 240.095 237.968 240.214C228.809 241.122 223.755 241.595 222.807 241.635C219.609 246.53 215.128 254.17 209.364 264.554C203.639 274.897 200.599 281.372 200.244 283.978C200.086 285.163 200.007 286.13 200.007 286.88C200.007 288.42 200.817 289.19 202.435 289.19C204.054 289.19 205.85 288.578 207.824 287.354C209.799 286.09 211.615 284.728 213.273 283.267C217.695 279.319 220.064 277.345 220.379 277.345C221.406 277.345 221.919 279.122 221.919 282.675C221.919 284.61 221.031 286.347 219.254 287.887C215.267 291.322 211.911 293.908 209.187 295.645C206.462 297.382 203.738 298.25 201.014 298.25C200.422 298.25 199.869 298.191 199.356 298.073C196.197 297.481 193.868 296.336 192.368 294.638C190.907 292.901 190.177 290.571 190.177 287.65C190.216 284.728 191.085 281.195 192.782 277.049C194.519 272.864 196.691 268.423 199.297 263.724C203.561 256.065 207.824 248.88 212.088 242.168L209.838 242.464C205.258 242.977 202.593 243.234 201.843 243.234H201.31C200.165 243.234 199.06 243.017 197.994 242.582C196.928 242.109 196.395 241.536 196.395 240.865C196.395 240.194 196.671 239.542 197.224 238.911C197.816 238.279 198.171 237.785 198.29 237.43C198.566 236.562 199.593 235.594 201.369 234.528C203.185 233.462 204.548 232.91 205.456 232.87C206.364 232.791 207.232 232.732 208.061 232.692C208.93 232.653 209.877 232.613 210.904 232.574C211.97 232.535 212.779 232.495 213.332 232.456L218.662 232.219C221.978 227.244 224.248 224.046 225.472 222.625C226.736 221.204 227.466 220.434 227.664 220.315C227.861 220.157 228.256 220.078 228.848 220.078L231.631 219.723ZM257.689 219.723L260.117 220.315C260.472 220.315 260.788 220.493 261.064 220.848C261.341 221.204 261.479 221.539 261.479 221.855C261.479 222.171 261.064 223.02 260.235 224.401C259.406 225.783 258.419 227.363 257.274 229.139C256.169 230.876 255.577 231.824 255.498 231.982C258.577 231.745 260.749 231.626 262.012 231.626C263.315 231.626 264.203 231.725 264.677 231.923C265.151 232.081 265.684 232.574 266.276 233.403C266.908 234.193 267.48 234.805 267.993 235.239C268.507 235.634 268.763 236.246 268.763 237.075C268.763 237.904 268.25 238.615 267.223 239.207C266.236 239.76 265.17 240.095 264.025 240.214C254.866 241.122 249.812 241.595 248.865 241.635C245.667 246.53 241.186 254.17 235.422 264.554C229.697 274.897 226.657 281.372 226.302 283.978C226.144 285.163 226.065 286.13 226.065 286.88C226.065 288.42 226.874 289.19 228.493 289.19C230.111 289.19 231.908 288.578 233.882 287.354C235.856 286.09 237.672 284.728 239.33 283.267C243.752 279.319 246.121 277.345 246.437 277.345C247.463 277.345 247.976 279.122 247.976 282.675C247.976 284.61 247.088 286.347 245.312 287.887C241.324 291.322 237.968 293.908 235.244 295.645C232.52 297.382 229.796 298.25 227.071 298.25C226.479 298.25 225.926 298.191 225.413 298.073C222.255 297.481 219.925 296.336 218.425 294.638C216.964 292.901 216.234 290.571 216.234 287.65C216.273 284.728 217.142 281.195 218.84 277.049C220.577 272.864 222.748 268.423 225.354 263.724C229.618 256.065 233.882 248.88 238.146 242.168L235.895 242.464C231.316 242.977 228.651 243.234 227.9 243.234H227.367C226.223 243.234 225.117 243.017 224.051 242.582C222.985 242.109 222.452 241.536 222.452 240.865C222.452 240.194 222.728 239.542 223.281 238.911C223.873 238.279 224.229 237.785 224.347 237.43C224.624 236.562 225.65 235.594 227.427 234.528C229.243 233.462 230.605 232.91 231.513 232.87C232.421 232.791 233.29 232.732 234.119 232.692C234.987 232.653 235.935 232.613 236.961 232.574C238.027 232.535 238.837 232.495 239.389 232.456L244.719 232.219C248.036 227.244 250.306 224.046 251.53 222.625C252.793 221.204 253.524 220.434 253.721 220.315C253.918 220.157 254.313 220.078 254.905 220.078L257.689 219.723ZM283.746 251.702C283.746 254.308 282.68 256.598 280.548 258.572C278.456 260.546 276.067 261.533 273.382 261.533C272.514 261.533 271.941 261.336 271.665 260.941C271.389 260.507 271.25 259.954 271.25 259.283C271.25 258.612 271.329 257.96 271.487 257.329C270.066 257.802 268.487 258.533 266.75 259.52C265.012 260.507 262.881 261.968 260.354 263.902C257.827 265.837 256.564 267.278 256.564 268.225C256.564 268.541 257.018 268.699 257.926 268.699C258.873 268.699 260.314 268.383 262.249 267.751C264.183 267.08 265.526 266.745 266.276 266.745C267.065 266.745 267.579 266.784 267.816 266.863C268.329 267.139 268.882 267.751 269.474 268.699C270.066 269.607 270.362 270.337 270.362 270.89C270.362 271.403 269.849 272.094 268.822 272.963C267.796 273.832 266.631 274.503 265.328 274.976C264.025 275.411 263.157 275.746 262.723 275.983C254.392 280.642 250.227 283.84 250.227 285.577C250.227 288.657 252.852 290.196 258.103 290.196C261.459 290.196 264.835 289.13 268.23 286.998C271.112 285.182 273.698 283.346 275.988 281.491C278.318 279.596 279.778 278.431 280.371 277.997C281.002 277.562 281.476 277.345 281.792 277.345C282.818 277.345 283.332 278.49 283.332 280.78C283.332 283.07 283.193 284.59 282.917 285.34C282.641 286.051 281.851 286.939 280.548 288.005C272.099 294.875 264.104 298.31 256.564 298.31C252.537 298.31 249.319 297.757 246.911 296.651C242.489 294.638 240.278 291.558 240.278 287.413C240.278 281.965 244.048 277.839 251.589 275.036C250.089 274.364 249.121 273.516 248.687 272.489C248.253 271.423 248.036 269.745 248.036 267.455C248.036 265.126 249.102 262.678 251.234 260.112C253.405 257.506 256.05 255.374 259.169 253.716C266.118 249.965 272.316 248.09 277.765 248.09C279.068 248.09 280.39 248.406 281.733 249.038C283.075 249.669 283.746 250.558 283.746 251.702Z" fill="#F46F1B"/>
<path d="M90.264 395H102.016L86.104 354.648L102.016 322.2H90.576L75.808 353.712H75.6V322.2H64.16V395H75.6V372.64L79.136 365.984L90.264 395ZM142.79 395C141.646 392.296 141.542 389.696 141.542 386.16V374.928C141.542 367.336 139.67 361.928 133.95 359.536V359.328C139.046 356.936 141.438 352.152 141.438 344.664V338.944C141.438 327.712 136.342 322.2 124.486 322.2H107.222V395H118.662V365.36H122.614C127.814 365.36 130.102 367.856 130.102 374.616V386.056C130.102 391.984 130.518 393.128 131.142 395H142.79ZM124.174 332.6C128.23 332.6 129.998 334.888 129.998 340.088V347.264C129.998 353.088 127.398 354.96 123.134 354.96H118.662V332.6H124.174ZM159.57 338.944C159.57 333.744 161.858 331.768 165.498 331.768C169.138 331.768 171.426 333.744 171.426 338.944V378.256C171.426 383.456 169.138 385.432 165.498 385.432C161.858 385.432 159.57 383.456 159.57 378.256V338.944ZM148.13 377.528C148.13 389.176 154.266 395.832 165.498 395.832C176.73 395.832 182.866 389.176 182.866 377.528V339.672C182.866 328.024 176.73 321.368 165.498 321.368C154.266 321.368 148.13 328.024 148.13 339.672V377.528ZM216.405 395H228.157L212.245 354.648L228.157 322.2H216.717L201.949 353.712H201.741V322.2H190.301V395H201.741V372.64L205.277 365.984L216.405 395ZM244.803 332.6H264.563V322.2H233.363V395H264.563V384.6H244.803V363.28H260.507V352.88H244.803V332.6ZM268.324 332.6H280.284V395H291.724V332.6H303.684V322.2H268.324V332.6Z" fill="#231F20"/>
<path d="M64.16 170H82.256C93.696 170 99.312 163.656 99.312 152.008V115.192C99.312 103.544 93.696 97.2 82.256 97.2H64.16V170ZM82.048 107.6C85.688 107.6 87.872 109.472 87.872 114.672V152.528C87.872 157.728 85.688 159.6 82.048 159.6H75.6V107.6H82.048ZM118.053 107.6H137.813V97.2H106.613V170H137.813V159.6H118.053V138.28H133.757V127.88H118.053V107.6Z" fill="#231F20"/>
</g>
<defs>
<clipPath id="clip0">
<rect width="367" height="507" fill="white"/>
</clipPath>
</defs>
</svg>
