<svg width="22" height="17" viewBox="0 0 22 17" fill="none" xmlns="http://www.w3.org/2000/svg">
<path d="M21 8H15L13 11H9L7 8H1" stroke="white" stroke-width="2" stroke-linecap="round" stroke-linejoin="round"/>
<path d="M4.45 2.04063L1 8.5V14.125C1 14.6223 1.21071 15.0992 1.58579 15.4508C1.96086 15.8025 2.46957 16 3 16H19C19.5304 16 20.0391 15.8025 20.4142 15.4508C20.7893 15.0992 21 14.6223 21 14.125V8.5L17.55 2.04063C17.3844 1.72824 17.1292 1.46535 16.813 1.28151C16.4967 1.09768 16.1321 1.00019 15.76 1H6.24C5.86792 1.00019 5.50326 1.09768 5.18704 1.28151C4.87083 1.46535 4.61558 1.72824 4.45 2.04063V2.04063Z" stroke="white" stroke-width="2" stroke-linecap="round" stroke-linejoin="round"/>
</svg>
