<svg width="80" height="87" viewBox="0 0 80 87" fill="none" xmlns="http://www.w3.org/2000/svg">
<path d="M10 21.75H16.6667H70" stroke="white" stroke-width="5" stroke-linecap="round" stroke-linejoin="round"/>
<path d="M26.6675 21.748V14.498C26.6675 12.5752 27.3699 10.7312 28.6201 9.37152C29.8703 8.01188 31.566 7.24805 33.3342 7.24805H46.6675C48.4356 7.24805 50.1313 8.01188 51.3815 9.37152C52.6318 10.7312 53.3342 12.5752 53.3342 14.498V21.748M63.3342 21.748V72.498C63.3342 74.4209 62.6318 76.2649 61.3815 77.6246C60.1313 78.9842 58.4356 79.748 56.6675 79.748H23.3341C21.566 79.748 19.8703 78.9842 18.6201 77.6246C17.3699 76.2649 16.6675 74.4209 16.6675 72.498V21.748H63.3342Z" stroke="white" stroke-width="5" stroke-linecap="round" stroke-linejoin="round"/>
<path d="M33.3325 39.873V61.623" stroke="white" stroke-width="5" stroke-linecap="round" stroke-linejoin="round"/>
<path d="M46.6675 39.873V61.623" stroke="white" stroke-width="5" stroke-linecap="round" stroke-linejoin="round"/>
</svg>
