<svg width="18" height="24" viewBox="0 0 18 24" fill="none" xmlns="http://www.w3.org/2000/svg">
    <path d="M17 10C17 17 9 23 9 23C9 23 1 17 1 10C1 7.61305 1.84285 5.32387 3.34315 3.63604C4.84344 1.94821 6.87827 1 9 1C11.1217 1 13.1566 1.94821 14.6569 3.63604C16.1571 5.32387 17 7.61305 17 10Z" stroke="#717171" stroke-width="2" stroke-linecap="round" stroke-linejoin="round"/>
    <path d="M9 13C10.6569 13 12 11.6569 12 10C12 8.34315 10.6569 7 9 7C7.34315 7 6 8.34315 6 10C6 11.6569 7.34315 13 9 13Z" stroke="#717171" stroke-width="2" stroke-linecap="round" stroke-linejoin="round"/>
</svg>
