<svg width="23" height="24" viewBox="0 0 23 24" fill="none" xmlns="http://www.w3.org/2000/svg">
<path d="M16.2915 2H6.70817C4.06181 2 1.9165 4.23858 1.9165 7V17C1.9165 19.7614 4.06181 22 6.70817 22H16.2915C18.9379 22 21.0832 19.7614 21.0832 17V7C21.0832 4.23858 18.9379 2 16.2915 2Z" stroke="white" stroke-width="2" stroke-linecap="round" stroke-linejoin="round"/>
<path d="M15.3332 11.3701C15.4515 12.2023 15.3153 13.0523 14.9439 13.7991C14.5725 14.5459 13.985 15.1515 13.2648 15.5297C12.5446 15.908 11.7284 16.0397 10.9323 15.906C10.1363 15.7723 9.4009 15.3801 8.83077 14.7852C8.26064 14.1903 7.88479 13.4229 7.7567 12.5923C7.6286 11.7616 7.75478 10.91 8.11728 10.1584C8.47978 9.40691 9.06014 8.7938 9.77583 8.4063C10.4915 8.0188 11.3061 7.87665 12.1036 8.00006C12.9172 8.12594 13.6704 8.52152 14.2519 9.12836C14.8335 9.73521 15.2126 10.5211 15.3332 11.3701Z" stroke="white" stroke-width="2" stroke-linecap="round" stroke-linejoin="round"/>
<path d="M16.771 6.5H16.7806" stroke="white" stroke-width="2" stroke-linecap="round" stroke-linejoin="round"/>
</svg>
