<svg width="23" height="23" viewBox="0 0 23 23" fill="none" xmlns="http://www.w3.org/2000/svg">
<path fill-rule="evenodd" clip-rule="evenodd" d="M8.625 9.40269C9.47169 8.91106 10.4521 8.625 11.5 8.625C14.6704 8.625 17.25 11.2046 17.25 14.375C17.25 17.5454 14.6704 20.125 11.5 20.125C8.32959 20.125 5.75 17.5454 5.75 14.375C5.75 12.9224 6.29553 11.5977 7.1875 10.5843V7.1875C7.1875 4.80916 9.12166 2.875 11.5 2.875C13.8783 2.875 15.8125 4.80916 15.8125 7.1875H14.375C14.375 5.60194 13.0856 4.3125 11.5 4.3125C9.91444 4.3125 8.625 5.60194 8.625 7.1875V9.40269ZM12.2188 17.25V15.6803C13.0532 15.3827 13.6562 14.5921 13.6562 13.6562C13.6562 12.4674 12.6888 11.5 11.5 11.5C10.3112 11.5 9.34375 12.4674 9.34375 13.6562C9.34375 14.5921 9.94678 15.3827 10.7812 15.6803V17.25H12.2188Z" fill="#ADB5BD"/>
</svg>
