<svg width="14" height="15" viewBox="0 0 14 15" fill="none" xmlns="http://www.w3.org/2000/svg">
    <path d="M13.2113 7.23118L7.43806 13.1578C6.7308 13.8839 5.77154 14.2918 4.77133 14.2918C3.77111 14.2918 2.81186 13.8839 2.1046 13.1578C1.39734 12.4318 1 11.447 1 10.4202C1 9.39342 1.39734 8.40867 2.1046 7.68261L7.8778 1.75597C8.34931 1.27193 8.98881 1 9.65562 1C10.3224 1 10.9619 1.27193 11.4334 1.75597C11.9049 2.24001 12.1698 2.89651 12.1698 3.58104C12.1698 4.26558 11.9049 4.92207 11.4334 5.40611L5.65395 11.3328C5.4182 11.5748 5.09845 11.7107 4.76504 11.7107C4.43164 11.7107 4.11189 11.5748 3.87613 11.3328C3.64038 11.0907 3.50794 10.7625 3.50794 10.4202C3.50794 10.078 3.64038 9.74971 3.87613 9.50769L9.2096 4.03892" stroke="#808080" stroke-linecap="round" stroke-linejoin="round"/>
</svg>
