<svg width="139" height="97" viewBox="0 0 139 97" fill="none" xmlns="http://www.w3.org/2000/svg">
<g clip-path="url(#clip0_4987_9908)">
<path d="M5.43519 57.3485C5.42453 57.7004 5.27568 58.0339 5.02092 58.2767C4.76617 58.5194 4.42605 58.6519 4.07436 58.6453H1.33641C1.17057 58.6433 1.00683 58.6078 0.855044 58.5409C0.703256 58.474 0.56655 58.3771 0.45314 58.2559C0.33973 58.1348 0.251957 57.992 0.195096 57.8361C0.138235 57.6801 0.11346 57.5143 0.122258 57.3485L0.0407715 27.4836C0.044998 27.141 0.182859 26.8136 0.424929 26.5714C0.666998 26.3291 0.994098 26.1911 1.33641 26.1869H4.07436C4.42545 26.1824 4.76437 26.3155 5.01866 26.5578C5.27296 26.8002 5.42245 27.1324 5.43519 27.4836V57.3485Z" fill="white"/>
<path d="M23.68 31.4225V57.0875C23.68 57.903 23.68 58.6615 22.3843 58.6615H19.5568C18.3019 58.6615 18.2611 57.8949 18.2611 57.0875V31.4225H10.4221C9.00422 31.4225 8.79236 31.1371 8.79236 29.8404V27.7689C8.79236 26.9534 8.79236 26.1868 10.088 26.1868H31.7064C32.9613 26.1868 33.0428 26.9534 33.0428 27.7689V29.8404C33.0428 31.1371 32.8798 31.4225 31.462 31.4225H23.68Z" fill="white"/>
<path d="M37.3046 37.588C36.9572 37.5774 36.6277 37.4318 36.3858 37.1821C36.1439 36.9324 36.0087 36.5983 36.0089 36.2505V27.2796C36.011 26.9364 36.1482 26.6078 36.3908 26.3651C36.6333 26.1224 36.9616 25.985 37.3046 25.9829H39.7492C40.0929 25.985 40.4221 26.1221 40.6659 26.3646C40.9097 26.607 41.0487 26.9356 41.0529 27.2796V36.2505C41.051 36.599 40.914 36.9332 40.6708 37.1827C40.4276 37.4321 40.0972 37.5774 39.7492 37.588H37.3046Z" fill="white"/>
<path d="M65.279 56.7042C63.4537 58.3353 60.8624 59.0121 57.9452 59.0121H54.8569C53.1824 59.0216 51.5328 58.6061 50.0622 57.8046C48.5917 57.0031 47.348 55.8417 46.4474 54.4288C45.8951 53.6369 45.5097 52.7406 45.3148 51.7946C45.0879 50.7229 44.9922 49.6274 45.0296 48.5325V48.614C45.0296 47.7985 45.0703 47.0238 46.3334 47.0238H49.0876C49.3759 47.0042 49.6609 47.0941 49.8859 47.2755C50.1109 47.4568 50.2594 47.7164 50.3018 48.0024C50.4292 48.422 50.4707 48.863 50.424 49.2991C50.424 49.503 50.424 49.87 50.5055 50.3919C50.7412 51.3696 51.2983 52.2396 52.0875 52.8623C52.8766 53.485 53.852 53.8241 54.8569 53.8253H57.9452C60.3898 53.8253 62.484 52.4879 62.8344 50.343C62.8817 50.0735 62.9089 49.8009 62.9159 49.5275C62.9159 48.9974 62.9974 47.7822 62.3047 47.1705C61.1721 46.2001 58.6949 45.7923 55.7858 45.1072C50.5951 43.9247 44.997 42.3426 44.997 36.9029V36.3402C44.9465 35.3982 45.0288 34.4538 45.2414 33.5348H45.2007C45.6719 31.3258 46.8878 29.3461 48.6445 27.928C50.4012 26.5099 52.5918 25.7396 54.8487 25.7464H57.9371C60.3294 25.7672 62.6444 26.5979 64.5049 28.1033C66.3302 29.5631 67.4628 32.3604 67.3406 35.4431C67.2999 36.2587 67.2999 37.0253 66.045 37.0253H63.3722C63.0312 37.017 62.7064 36.8777 62.4652 36.6363C62.224 36.3949 62.0849 36.0699 62.0766 35.7286C61.9543 32.2788 60.5365 30.9821 57.9452 30.9821H54.8569C53.8269 30.9949 52.8312 31.3541 52.03 32.0021C51.2289 32.6501 50.6689 33.549 50.4403 34.5542V34.5134C50.2688 35.026 50.2388 35.5755 50.3536 36.1038C50.4683 36.632 50.7235 37.1195 51.0922 37.5146C51.57 38.0138 52.1718 38.3769 52.836 38.5666L57.497 39.8715C59.9416 40.5565 61.6691 41.0051 62.6877 41.3721C63.6885 41.7071 64.6416 42.1703 65.5235 42.7503C66.45 43.407 67.1958 44.2873 67.6916 45.3096C68.1873 46.3319 68.417 47.4629 68.3592 48.5977C68.3592 51.6723 67.1043 55.0813 65.279 56.7042Z" fill="white"/>
<path d="M15.7758 64.5332C17.5846 64.583 19.305 65.3272 20.5808 66.6115C21.8565 67.8959 22.5898 69.6221 22.6289 71.4326C22.6289 74.5235 20.9991 76.3259 18.6523 77.8836C19.4672 80.1589 20.282 82.2711 21.0969 84.5383C22.4007 88.1104 23.7371 91.7232 25.1712 95.3361C25.6194 96.4289 25.0083 96.9671 23.9163 96.9671H20.8443C20.5492 96.9804 20.2588 96.8898 20.0236 96.711C19.7884 96.5322 19.6232 96.2765 19.5568 95.9885L13.7224 80.4933C10.9192 81.9531 8.45017 83.3313 5.57369 84.8319V95.4176C5.57369 96.2331 5.57369 96.9998 4.2699 96.9998H1.33638C1.16875 96.9976 1.00318 96.9623 0.849229 96.8959C0.695275 96.8295 0.555968 96.7333 0.439331 96.6127C0.322693 96.4922 0.231029 96.3498 0.169614 96.1937C0.1082 96.0375 0.0782493 95.8708 0.0814867 95.703L0 65.8381C0.0105472 65.4897 0.155734 65.159 0.404996 64.9156C0.654258 64.6723 0.98815 64.5352 1.33638 64.5332H15.7758ZM5.51665 69.9321V78.7806C8.71908 77.1985 15.9388 73.6264 16.7863 72.2563C16.9443 72.0136 17.0292 71.7305 17.0307 71.4408C17.0243 71.0356 16.8578 70.6494 16.5677 70.3667C16.2776 70.084 15.8874 69.9277 15.4825 69.9321H5.51665Z" fill="white"/>
<path d="M29.7182 96.9999C29.5456 97.0093 29.3729 96.9822 29.2114 96.9204C29.05 96.8585 28.9034 96.7633 28.7811 96.641C28.6589 96.5186 28.5638 96.3719 28.502 96.2103C28.4402 96.0487 28.4131 95.8759 28.4226 95.7031L28.3411 65.8382C28.3408 65.6605 28.3768 65.4846 28.4468 65.3213C28.5169 65.158 28.6195 65.0107 28.7485 64.8886C28.8774 64.7664 29.03 64.6718 29.1967 64.6108C29.3635 64.5497 29.5409 64.5233 29.7182 64.5333H49.275C50.6114 64.5333 50.6114 65.3489 50.6114 66.1644V68.3908C50.6114 69.8506 50.4077 69.973 48.9817 69.973H33.817V77.1578H47.3193C47.4939 77.1542 47.6674 77.1867 47.8289 77.2532C47.9905 77.3197 48.1366 77.4187 48.2581 77.5442C48.3797 77.6697 48.4741 77.8189 48.5355 77.9826C48.5969 78.1462 48.624 78.3208 48.615 78.4953V81.2518C48.6251 81.427 48.5989 81.6025 48.5381 81.7671C48.4772 81.9317 48.383 82.0819 48.2613 82.2083C48.1396 82.3347 47.9931 82.4345 47.831 82.5015C47.6689 82.5685 47.4947 82.6011 47.3193 82.5975H33.817V91.6418H49.5521C50.9699 91.6418 51.1818 91.7641 51.1818 93.2239V95.4177C51.1818 96.2332 51.1818 97.0488 49.8373 97.0488L29.7182 96.9999Z" fill="white"/>
<path d="M78.985 96.9999H76.0678C75.2529 96.9999 75.0492 96.5595 74.764 95.9478L71.0808 85.2725L61.115 89.709L58.8823 95.956C58.597 96.6003 58.5156 97.008 57.5459 97.008H54.7346C54.3871 97.0082 54.0532 96.8729 53.8037 96.6308C53.5542 96.3887 53.4088 96.0589 53.3982 95.7113C53.3982 95.5482 62.6877 68.1543 63.7389 65.6017C64.0241 64.9901 64.2278 64.5415 65.0345 64.5415H68.6036C69.4185 64.5415 69.5815 65.0716 69.8585 65.6017L80.2399 95.222C80.2556 95.3847 80.2556 95.5486 80.2399 95.7113C80.2616 95.8829 80.2444 96.0571 80.1895 96.2211C80.1346 96.3851 80.0434 96.5345 79.9228 96.6584C79.8022 96.7822 79.6553 96.8772 79.4929 96.9363C79.3305 96.9955 79.1569 97.0172 78.985 96.9999ZM69.1333 79.8736C68.6444 78.5769 68.3184 77.7695 68.1962 77.321C68.074 76.8724 67.9191 76.5054 67.7969 76.065C67.5117 75.2495 67.2672 74.434 66.8191 73.1373L63.5596 82.3691L69.1333 79.8736Z" fill="white"/>
<path d="M96.0157 64.5332C99.4271 64.5396 102.697 65.8965 105.113 68.3076C107.528 70.7188 108.892 73.9883 108.907 77.4024V84.1387C108.892 87.5521 107.528 90.8208 105.112 93.2306C102.697 95.6404 99.4263 96.9955 96.0157 96.9998H84.5424C84.3698 97.0092 84.1971 96.9821 84.0357 96.9202C83.8742 96.8584 83.7276 96.7632 83.6053 96.6409C83.4831 96.5185 83.388 96.3718 83.3262 96.2102C83.2644 96.0486 83.2374 95.8758 83.2468 95.703L83.1653 65.8381C83.1841 65.4854 83.3374 65.1534 83.5937 64.9106C83.8499 64.6678 84.1895 64.5327 84.5424 64.5332H96.0157ZM88.5923 69.9321V91.6009H96.0157C97.9932 91.5862 99.8862 90.7968 101.289 89.4019C102.692 88.007 103.493 86.1177 103.521 84.1387V77.4024C103.495 75.422 102.695 73.5306 101.292 72.134C99.8888 70.7374 97.9946 69.9468 96.0157 69.9321H88.5923Z" fill="white"/>
<path d="M132.823 65.0634C132.949 64.8936 133.114 64.7567 133.304 64.6644C133.494 64.5721 133.704 64.5272 133.915 64.5333H137.566C137.742 64.5107 137.922 64.5289 138.09 64.5865C138.259 64.644 138.412 64.7395 138.538 64.8655C138.664 64.9915 138.759 65.1446 138.817 65.3133C138.874 65.4819 138.892 65.6615 138.87 65.8382C138.825 66.2446 138.654 66.6268 138.381 66.931C138.381 66.9718 138.34 66.9718 138.34 67.0126L127.918 81.9043V95.4177C127.918 96.2333 127.918 96.9999 126.581 96.9999H123.819C122.564 96.9999 122.523 96.2333 122.523 95.4177V81.8635L111.751 66.564C111.616 66.3326 111.559 66.0638 111.588 65.7974C111.56 65.6258 111.573 65.4501 111.626 65.2846C111.68 65.1191 111.771 64.9686 111.893 64.8453C112.016 64.722 112.166 64.6294 112.331 64.5752C112.496 64.521 112.671 64.5066 112.843 64.5333H116.453C116.685 64.5238 116.915 64.5752 117.121 64.6825C117.327 64.7899 117.501 64.9493 117.626 65.145L125.212 76.3831C129.425 69.8588 131.943 66.1236 132.872 64.9656L132.823 65.0634Z" fill="white"/>
<path d="M102.152 13.6275C102.332 13.8059 102.549 13.9423 102.787 14.0271C103.023 14.1183 103.276 14.1572 103.529 14.1412H105.525V18.2189C106.153 18.2189 106.78 18.1618 107.408 18.1618C108.035 18.1618 108.557 18.1618 109.135 18.2189V14.1412H111.115C111.366 14.1532 111.617 14.1138 111.853 14.0255C112.088 13.9371 112.303 13.8017 112.484 13.6275C112.67 13.4536 112.817 13.2424 112.916 13.0076C113.013 12.7751 113.063 12.5256 113.063 12.2737C113.064 12.0216 113.014 11.772 112.916 11.5397C112.817 11.305 112.67 11.0938 112.484 10.9199C112.303 10.7456 112.088 10.6102 111.853 10.5219C111.617 10.4335 111.366 10.3941 111.115 10.4061H103.529C103.276 10.3901 103.023 10.4291 102.787 10.5203C102.549 10.605 102.332 10.7414 102.152 10.9199C101.966 11.0938 101.819 11.305 101.72 11.5397C101.622 11.772 101.572 12.0216 101.573 12.2737C101.573 12.5256 101.623 12.7751 101.72 13.0076C101.819 13.2424 101.966 13.4536 102.152 13.6275Z" fill="#ABA765"/>
<path d="M119.011 7.09502C119.424 7.09477 119.82 6.9305 120.111 6.63832L124.096 2.65034C124.387 2.35943 124.55 1.96486 124.55 1.55344C124.55 1.14203 124.387 0.747462 124.096 0.456547C123.805 0.165632 123.411 0.00219727 123 0.00219727C122.589 0.00219726 122.195 0.165632 121.904 0.456547L117.919 4.44452C117.705 4.66228 117.56 4.93829 117.501 5.2382C117.442 5.53811 117.473 5.84866 117.59 6.13119C117.706 6.41372 117.903 6.65574 118.156 6.82712C118.408 6.9985 118.706 7.09167 119.011 7.09502Z" fill="#ABA765"/>
<path d="M120.853 16.4819C120.855 16.8936 121.02 17.2877 121.312 17.5781C121.603 17.8684 121.998 18.0314 122.409 18.0314H128.04C128.451 18.0314 128.844 17.8682 129.135 17.5776C129.425 17.287 129.588 16.8929 129.588 16.4819C129.588 16.0709 129.425 15.6768 129.135 15.3862C128.844 15.0956 128.451 14.9324 128.04 14.9324H122.409C121.998 14.9324 121.603 15.0954 121.312 15.3857C121.02 15.6761 120.855 16.0702 120.853 16.4819Z" fill="#ABA765"/>
<path d="M86.7019 18.0397H92.3326C92.5459 18.0552 92.7601 18.0265 92.9619 17.9555C93.1636 17.8844 93.3486 17.7725 93.5052 17.6267C93.6618 17.4809 93.7867 17.3044 93.8721 17.1082C93.9575 16.9119 94.0016 16.7002 94.0016 16.4861C94.0016 16.2721 93.9575 16.0603 93.8721 15.8641C93.7867 15.6679 93.6618 15.4914 93.5052 15.3456C93.3486 15.1998 93.1636 15.0879 92.9619 15.0168C92.7601 14.9458 92.5459 14.9171 92.3326 14.9325H86.7019C86.4886 14.9171 86.2744 14.9458 86.0726 15.0168C85.8709 15.0879 85.686 15.1998 85.5294 15.3456C85.3727 15.4914 85.2478 15.6679 85.1624 15.8641C85.077 16.0603 85.033 16.2721 85.033 16.4861C85.033 16.7002 85.077 16.9119 85.1624 17.1082C85.2478 17.3044 85.3727 17.4809 85.5294 17.6267C85.686 17.7725 85.8709 17.8844 86.0726 17.9555C86.2744 18.0265 86.4886 18.0552 86.7019 18.0397Z" fill="#ABA765"/>
<path d="M94.5245 6.63832C94.8162 6.9305 95.2119 7.09477 95.6246 7.09502C95.9299 7.09167 96.2275 6.9985 96.4803 6.82712C96.7331 6.65574 96.93 6.41372 97.0464 6.13119C97.1628 5.84866 97.1936 5.53811 97.1349 5.2382C97.0763 4.93829 96.9307 4.66228 96.7165 4.44452L92.74 0.456547C92.596 0.3125 92.4252 0.198236 92.2371 0.120279C92.0491 0.0423215 91.8475 0.00219727 91.644 0.00219727C91.4404 0.00219726 91.2389 0.0423215 91.0508 0.120279C90.8628 0.198236 90.6919 0.3125 90.548 0.456547C90.404 0.600594 90.2899 0.771602 90.212 0.959808C90.1341 1.14801 90.094 1.34973 90.094 1.55344C90.094 1.75716 90.1341 1.95888 90.212 2.14708C90.2899 2.33529 90.404 2.5063 90.548 2.65034L94.5245 6.63832Z" fill="#ABA765"/>
<path d="M137.46 53.067H109.934V49.4786H137.061C137.004 48.5407 136.906 47.6029 136.759 46.6732C136.612 45.7434 136.425 44.8219 136.197 43.9166C135.969 43.0114 135.692 42.1062 135.382 41.2172C135.072 40.3283 134.706 39.4638 134.315 38.6075C133.923 37.7512 133.5 36.9275 133.003 36.1201C132.506 35.3127 132.008 34.489 131.463 33.7551C130.917 33.0211 130.33 32.2626 129.711 31.5531C129.091 30.8436 128.439 30.1667 127.755 29.5224C127.07 28.8781 126.361 28.2665 125.62 27.6875C124.878 27.1084 124.112 26.5702 123.322 26.0564C122.532 25.5426 121.692 25.0777 120.877 24.6537C120.063 24.2296 119.182 23.8381 118.311 23.4874C117.439 23.1368 116.559 22.835 115.654 22.5659C114.75 22.2968 113.845 22.0847 112.924 21.9053C112.004 21.7259 111.075 21.5872 110.137 21.4975C109.2 21.4078 108.263 21.3589 107.326 21.3589C106.389 21.3589 105.444 21.3997 104.507 21.4894C103.569 21.5712 102.636 21.7019 101.712 21.8808C100.791 22.0521 99.8783 22.2723 98.9738 22.5333C98.068 22.7924 97.176 23.0972 96.301 23.4467C95.4291 23.7892 94.5654 24.1806 93.726 24.6047C92.8881 25.0308 92.0722 25.4989 91.2814 26.0074C90.4666 26.5131 89.7169 27.0513 88.9672 27.6385C88.2176 28.2257 87.5086 28.8292 86.8241 29.4735C86.1396 30.1178 85.4877 30.7947 84.8603 31.5042C84.2329 32.2137 83.6543 32.9477 83.1002 33.7143C81.9982 35.2537 81.0407 36.8917 80.24 38.6075C79.8407 39.423 79.4822 40.3283 79.1644 41.2172C78.8466 42.1062 78.5777 43.0032 78.3495 43.9248C78.1214 44.8464 77.9258 45.7598 77.7791 46.6895C77.6324 47.6192 77.5346 48.5571 77.4858 49.5031H104.018V53.0914H77.1761C76.9732 53.0914 76.7722 53.1316 76.5848 53.2095C76.3975 53.2875 76.2273 53.4018 76.0842 53.5458C75.9411 53.6898 75.8278 53.8606 75.7509 54.0486C75.674 54.2365 75.6349 54.4379 75.636 54.641V57.0876C75.636 57.4964 75.7983 57.8884 76.0871 58.1775C76.3759 58.4665 76.7676 58.6289 77.1761 58.6289H137.476C137.886 58.6268 138.279 58.4628 138.569 58.1727C138.859 57.8826 139.022 57.4897 139.024 57.0794V54.641C139.029 54.4337 138.992 54.2278 138.915 54.0353C138.838 53.8429 138.723 53.668 138.577 53.5211C138.431 53.3741 138.256 53.2582 138.064 53.1801C137.873 53.1021 137.667 53.0636 137.46 53.067ZM96.5862 29.7752C91.8415 31.9672 88.107 35.8826 86.1396 40.7279C86.0398 41.016 85.8527 41.2658 85.6045 41.4427C85.3562 41.6195 85.0591 41.7146 84.7544 41.7147C84.5906 41.7162 84.4278 41.6886 84.2736 41.6331C83.9067 41.507 83.6047 41.2405 83.4336 40.892C83.2626 40.5436 83.2365 40.1414 83.3609 39.7737C85.5891 34.0944 89.9586 29.5192 95.5269 27.035C95.7235 26.9508 95.9362 26.9106 96.1499 26.9173C96.3637 26.9239 96.5734 26.9773 96.7644 27.0737C96.9554 27.17 97.123 27.307 97.2555 27.475C97.388 27.643 97.4822 27.838 97.5315 28.0463C97.6004 28.3996 97.5437 28.7659 97.371 29.0817C97.1984 29.3975 96.9207 29.6429 96.5862 29.7752Z" fill="#ABA765"/>
</g>
<defs>
<clipPath id="clip0_4987_9908">
<rect width="139" height="97" fill="white"/>
</clipPath>
</defs>
</svg>
