<?xml version="1.0" encoding="UTF-8"?>
<svg id="Layer_2" data-name="Layer 2" xmlns="http://www.w3.org/2000/svg" viewBox="0 0 300 300">
  <defs>
    <style>
      .cls-1 {
        fill: none;
        stroke: #fff;
        stroke-miterlimit: 10;
        stroke-width: 10px;
      }
    </style>
  </defs>
  <g>
    <path class="cls-1" d="M156.77,171.16c-10.08-44.03-41.97-94.7-135.25-95.65l-.03.18c-.81,5.87-19.95,155.2,137.82,159.63,0,0,2.2-12.59,1.65-30.71"/>
    <path class="cls-1" d="M21.49,75.69c36.2,29.18,100.16,87.23,137.87,159.2"/>
  </g>
  <path class="cls-1" d="M160.96,204.61c-.06-1.91-.15-3.87-.27-5.9-.53-8.46-1.69-17.84-3.92-27.55,3.2-39.14,23.31-98.67,115.75-99.62,0,0,.01.05.02.15.68,4.88,16.36,127.27-111.58,132.92Z"/>
  <path class="cls-1" d="M160.69,198.71c31.73-57.36,82.64-103.47,111.85-127.02"/>
</svg>