<svg width="100%" height="100%" viewBox="0 0 236 270" fill="none" xmlns="http://www.w3.org/2000/svg">
    <path d="M93.8027 233.232L152.5 106L160.746 111.504L106.286 263.375C104.861 267.349 101.094 270 96.8726 270H91.0128C86.4477 270 82.4619 266.919 81.2901 262.507C75.8904 242.176 60.2507 184.956 45.5 147C32.6475 113.929 9.90289 68.2928 0.382654 49.5544C-0.950608 46.9302 1.63006 44.5737 3.9759 46.3517C15.2704 54.9119 36.45 74.6046 53.5195 111.504C78.0391 164.508 93.8027 233.232 93.8027 233.232Z" fill="#ffffff" />
    <path d="M226.756 36.5959C233.081 14.5973 239.454 -7.56595 231.338 2.49749C226.526 8.46442 212.058 13.1047 195.437 18.4354C168.882 26.952 136.833 37.2309 129.889 57.4975C123.089 77.3451 135.404 93.2378 146.275 102.739C161.739 81.2789 168.466 67.7619 172.574 59.5068C175.846 52.9301 177.457 49.6933 180.5 48.4403C185.65 46.3195 168.049 79.1291 152.5 106C157.744 109.5 160.746 111.504 160.746 111.504C160.746 111.504 189.338 112.949 201.099 103.449C212.86 93.9491 215.709 86.0459 218.838 66.9975C219.936 60.3164 223.339 48.4801 226.756 36.5959Z" fill="#ffffff" />
</svg>