<svg xmlns="http://www.w3.org/2000/svg" width="24" height="20" viewBox="0 0 24 20" fill="none">
    <path d="M5 10C5 7.9178 5.72198 5.90002 7.04291 4.29046C8.36384 2.6809 10.202 1.57915 12.2442 1.17293C14.2864 0.766717 16.4062 1.08117 18.2426 2.06271C20.0789 3.04425 21.5181 4.63215 22.3149 6.55585C23.1117 8.47955 23.2169 10.62 22.6125 12.6126C22.008 14.6051 20.7314 16.3264 19.0001 17.4832C17.2688 18.64 15.19 19.1608 13.1178 18.9567C11.0457 18.7526 9.10838 17.8363 7.63604 16.364" stroke="#404040" stroke-width="2" />
    <path d="M13.5996 6.3999V11.1999L16.7996 12.7999" stroke="#404040" stroke-width="2" stroke-linecap="round" stroke-linejoin="round" />
    <path d="M4.08926 12.382C4.4806 12.7774 5.1194 12.7774 5.51074 12.382L7.27094 10.6035C7.8959 9.97211 7.44862 8.9001 6.5602 8.9001H3.0398C2.15138 8.9001 1.7041 9.97211 2.32906 10.6036L4.08926 12.382Z" fill="#404040" />
</svg>